G04 #@! TF.GenerationSoftware,KiCad,Pcbnew,(5.1.5)-3*
G04 #@! TF.CreationDate,2022-01-21T17:51:05-06:00*
G04 #@! TF.ProjectId,test_stand_smd,74657374-5f73-4746-916e-645f736d642e,rev?*
G04 #@! TF.SameCoordinates,Original*
G04 #@! TF.FileFunction,Legend,Top*
G04 #@! TF.FilePolarity,Positive*
%FSLAX46Y46*%
G04 Gerber Fmt 4.6, Leading zero omitted, Abs format (unit mm)*
G04 Created by KiCad (PCBNEW (5.1.5)-3) date 2022-01-21 17:51:05*
%MOMM*%
%LPD*%
G04 APERTURE LIST*
%ADD10C,0.120000*%
%ADD11C,0.150000*%
%ADD12C,0.125000*%
G04 APERTURE END LIST*
D10*
X140284200Y-94792800D02*
X140157200Y-95123000D01*
X140284200Y-94792800D02*
X139954000Y-94716600D01*
X140284200Y-94792800D02*
X139674600Y-95123000D01*
D11*
X137074400Y-94728161D02*
X137217257Y-94775780D01*
X137455352Y-94775780D01*
X137550590Y-94728161D01*
X137598209Y-94680542D01*
X137645828Y-94585304D01*
X137645828Y-94490066D01*
X137598209Y-94394828D01*
X137550590Y-94347209D01*
X137455352Y-94299590D01*
X137264876Y-94251971D01*
X137169638Y-94204352D01*
X137122019Y-94156733D01*
X137074400Y-94061495D01*
X137074400Y-93966257D01*
X137122019Y-93871019D01*
X137169638Y-93823400D01*
X137264876Y-93775780D01*
X137502971Y-93775780D01*
X137645828Y-93823400D01*
X138455352Y-94728161D02*
X138360114Y-94775780D01*
X138169638Y-94775780D01*
X138074400Y-94728161D01*
X138026780Y-94632923D01*
X138026780Y-94251971D01*
X138074400Y-94156733D01*
X138169638Y-94109114D01*
X138360114Y-94109114D01*
X138455352Y-94156733D01*
X138502971Y-94251971D01*
X138502971Y-94347209D01*
X138026780Y-94442447D01*
X138788685Y-94109114D02*
X139169638Y-94109114D01*
X138931542Y-93775780D02*
X138931542Y-94632923D01*
X138979161Y-94728161D01*
X139074400Y-94775780D01*
X139169638Y-94775780D01*
X136550590Y-95425780D02*
X137217257Y-95425780D01*
X136550590Y-96425780D01*
X137217257Y-96425780D01*
X137979161Y-96378161D02*
X137883923Y-96425780D01*
X137693447Y-96425780D01*
X137598209Y-96378161D01*
X137550590Y-96282923D01*
X137550590Y-95901971D01*
X137598209Y-95806733D01*
X137693447Y-95759114D01*
X137883923Y-95759114D01*
X137979161Y-95806733D01*
X138026780Y-95901971D01*
X138026780Y-95997209D01*
X137550590Y-96092447D01*
X138455352Y-96425780D02*
X138455352Y-95759114D01*
X138455352Y-95949590D02*
X138502971Y-95854352D01*
X138550590Y-95806733D01*
X138645828Y-95759114D01*
X138741066Y-95759114D01*
X139217257Y-96425780D02*
X139122019Y-96378161D01*
X139074400Y-96330542D01*
X139026780Y-96235304D01*
X139026780Y-95949590D01*
X139074400Y-95854352D01*
X139122019Y-95806733D01*
X139217257Y-95759114D01*
X139360114Y-95759114D01*
X139455352Y-95806733D01*
X139502971Y-95854352D01*
X139550590Y-95949590D01*
X139550590Y-96235304D01*
X139502971Y-96330542D01*
X139455352Y-96378161D01*
X139360114Y-96425780D01*
X139217257Y-96425780D01*
X150339828Y-104357228D02*
X150375542Y-104250085D01*
X150411257Y-104214371D01*
X150482685Y-104178657D01*
X150589828Y-104178657D01*
X150661257Y-104214371D01*
X150696971Y-104250085D01*
X150732685Y-104321514D01*
X150732685Y-104607228D01*
X149982685Y-104607228D01*
X149982685Y-104357228D01*
X150018400Y-104285800D01*
X150054114Y-104250085D01*
X150125542Y-104214371D01*
X150196971Y-104214371D01*
X150268400Y-104250085D01*
X150304114Y-104285800D01*
X150339828Y-104357228D01*
X150339828Y-104607228D01*
X150732685Y-103500085D02*
X150732685Y-103857228D01*
X149982685Y-103857228D01*
X150732685Y-103250085D02*
X149982685Y-103250085D01*
X150732685Y-102821514D02*
X150304114Y-103142942D01*
X149982685Y-102821514D02*
X150411257Y-103250085D01*
X149982685Y-102000085D02*
X150732685Y-101821514D01*
X150196971Y-101678657D01*
X150732685Y-101535800D01*
X149982685Y-101357228D01*
X150732685Y-101071514D02*
X150232685Y-101071514D01*
X149982685Y-101071514D02*
X150018400Y-101107228D01*
X150054114Y-101071514D01*
X150018400Y-101035800D01*
X149982685Y-101071514D01*
X150054114Y-101071514D01*
X150732685Y-100714371D02*
X150232685Y-100714371D01*
X150375542Y-100714371D02*
X150304114Y-100678657D01*
X150268400Y-100642942D01*
X150232685Y-100571514D01*
X150232685Y-100500085D01*
X150696971Y-99964371D02*
X150732685Y-100035800D01*
X150732685Y-100178657D01*
X150696971Y-100250085D01*
X150625542Y-100285800D01*
X150339828Y-100285800D01*
X150268400Y-100250085D01*
X150232685Y-100178657D01*
X150232685Y-100035800D01*
X150268400Y-99964371D01*
X150339828Y-99928657D01*
X150411257Y-99928657D01*
X150482685Y-100285800D01*
D10*
X148791200Y-82819021D02*
X148791200Y-83144579D01*
X149811200Y-82819021D02*
X149811200Y-83144579D01*
X148566200Y-78499600D02*
X148566200Y-80784600D01*
X150036200Y-78499600D02*
X148566200Y-78499600D01*
X150036200Y-80784600D02*
X150036200Y-78499600D01*
X141882400Y-91099421D02*
X141882400Y-91424979D01*
X142902400Y-91099421D02*
X142902400Y-91424979D01*
X143283000Y-90082000D02*
X143283000Y-92367000D01*
X144753000Y-90082000D02*
X143283000Y-90082000D01*
X144753000Y-92367000D02*
X144753000Y-90082000D01*
X147723460Y-81555200D02*
X147723460Y-79755200D01*
X147723460Y-76045200D02*
X147723460Y-77505200D01*
X138783460Y-76045200D02*
X138783460Y-77505200D01*
X138783460Y-81555200D02*
X138783460Y-79755200D01*
X138783460Y-76045200D02*
X147723460Y-76045200D01*
X145326000Y-93248200D02*
X145326000Y-93548200D01*
X141186000Y-96388200D02*
X141186000Y-96088200D01*
X141186000Y-93548200D02*
X141186000Y-93248200D01*
X145326000Y-96388200D02*
X141186000Y-96388200D01*
X145326000Y-96088200D02*
X145326000Y-96388200D01*
X141186000Y-93248200D02*
X145326000Y-93248200D01*
X149639020Y-99882960D02*
X149639020Y-101152960D01*
X148369020Y-99882960D02*
X149639020Y-99882960D01*
X137829020Y-102195889D02*
X137829020Y-102592960D01*
X138589020Y-102195889D02*
X138589020Y-102592960D01*
X137829020Y-111252960D02*
X137829020Y-105252960D01*
X138589020Y-111252960D02*
X137829020Y-111252960D01*
X138589020Y-105252960D02*
X138589020Y-111252960D01*
X139479020Y-102592960D02*
X139479020Y-105252960D01*
X140369020Y-102195889D02*
X140369020Y-102592960D01*
X141129020Y-102195889D02*
X141129020Y-102592960D01*
X140369020Y-111252960D02*
X140369020Y-105252960D01*
X141129020Y-111252960D02*
X140369020Y-111252960D01*
X141129020Y-105252960D02*
X141129020Y-111252960D01*
X142019020Y-102592960D02*
X142019020Y-105252960D01*
X142909020Y-102195889D02*
X142909020Y-102592960D01*
X143669020Y-102195889D02*
X143669020Y-102592960D01*
X142909020Y-111252960D02*
X142909020Y-105252960D01*
X143669020Y-111252960D02*
X142909020Y-111252960D01*
X143669020Y-105252960D02*
X143669020Y-111252960D01*
X144559020Y-102592960D02*
X144559020Y-105252960D01*
X145449020Y-102195889D02*
X145449020Y-102592960D01*
X146209020Y-102195889D02*
X146209020Y-102592960D01*
X145449020Y-111252960D02*
X145449020Y-105252960D01*
X146209020Y-111252960D02*
X145449020Y-111252960D01*
X146209020Y-105252960D02*
X146209020Y-111252960D01*
X147099020Y-102592960D02*
X147099020Y-105252960D01*
X147989020Y-102262960D02*
X147989020Y-102592960D01*
X148749020Y-102262960D02*
X148749020Y-102592960D01*
X148089020Y-105252960D02*
X148089020Y-111252960D01*
X148209020Y-105252960D02*
X148209020Y-111252960D01*
X148329020Y-105252960D02*
X148329020Y-111252960D01*
X148449020Y-105252960D02*
X148449020Y-111252960D01*
X148569020Y-105252960D02*
X148569020Y-111252960D01*
X148689020Y-105252960D02*
X148689020Y-111252960D01*
X147989020Y-111252960D02*
X147989020Y-105252960D01*
X148749020Y-111252960D02*
X147989020Y-111252960D01*
X148749020Y-105252960D02*
X148749020Y-111252960D01*
X149699020Y-105252960D02*
X149699020Y-102592960D01*
X136879020Y-105252960D02*
X149699020Y-105252960D01*
X136879020Y-102592960D02*
X136879020Y-105252960D01*
X149699020Y-102592960D02*
X136879020Y-102592960D01*
X139050600Y-88204400D02*
X136600600Y-88204400D01*
X137250600Y-91424400D02*
X139050600Y-91424400D01*
X145464000Y-86530400D02*
X145464000Y-86180400D01*
X145464000Y-86180400D02*
X145814000Y-86180400D01*
X149684000Y-90050400D02*
X149684000Y-90400400D01*
X149684000Y-90400400D02*
X149334000Y-90400400D01*
X149684000Y-86530400D02*
X149684000Y-86180400D01*
X149684000Y-86180400D02*
X149334000Y-86180400D01*
X145464000Y-90050400D02*
X145464000Y-90400400D01*
X136700800Y-82844421D02*
X136700800Y-83169979D01*
X137720800Y-82844421D02*
X137720800Y-83169979D01*
X136700800Y-79669421D02*
X136700800Y-79994979D01*
X137720800Y-79669421D02*
X137720800Y-79994979D01*
X146530600Y-94706221D02*
X146530600Y-95031779D01*
X147550600Y-94706221D02*
X147550600Y-95031779D01*
X138350179Y-97625200D02*
X138024621Y-97625200D01*
X138350179Y-98645200D02*
X138024621Y-98645200D01*
X141660179Y-97625200D02*
X141334621Y-97625200D01*
X141660179Y-98645200D02*
X141334621Y-98645200D01*
X145018979Y-97610200D02*
X144693421Y-97610200D01*
X145018979Y-98630200D02*
X144693421Y-98630200D01*
X148290179Y-97605200D02*
X147964621Y-97605200D01*
X148290179Y-98625200D02*
X147964621Y-98625200D01*
X137683021Y-85955600D02*
X138008579Y-85955600D01*
X137683021Y-84935600D02*
X138008579Y-84935600D01*
X139330800Y-86336200D02*
X137045800Y-86336200D01*
X139330800Y-87806200D02*
X139330800Y-86336200D01*
X137045800Y-87806200D02*
X139330800Y-87806200D01*
X143232600Y-88249979D02*
X143232600Y-87924421D01*
X142212600Y-88249979D02*
X142212600Y-87924421D01*
X141530800Y-88249979D02*
X141530800Y-87924421D01*
X140510800Y-88249979D02*
X140510800Y-87924421D01*
X137683021Y-92991400D02*
X138008579Y-92991400D01*
X137683021Y-91971400D02*
X138008579Y-91971400D01*
X142047179Y-85164200D02*
X141721621Y-85164200D01*
X142047179Y-86184200D02*
X141721621Y-86184200D01*
D11*
X150961285Y-83106800D02*
X150604142Y-83356800D01*
X150961285Y-83535371D02*
X150211285Y-83535371D01*
X150211285Y-83249657D01*
X150247000Y-83178228D01*
X150282714Y-83142514D01*
X150354142Y-83106800D01*
X150461285Y-83106800D01*
X150532714Y-83142514D01*
X150568428Y-83178228D01*
X150604142Y-83249657D01*
X150604142Y-83535371D01*
X150961285Y-82749657D02*
X150961285Y-82606800D01*
X150925571Y-82535371D01*
X150889857Y-82499657D01*
X150782714Y-82428228D01*
X150639857Y-82392514D01*
X150354142Y-82392514D01*
X150282714Y-82428228D01*
X150247000Y-82463942D01*
X150211285Y-82535371D01*
X150211285Y-82678228D01*
X150247000Y-82749657D01*
X150282714Y-82785371D01*
X150354142Y-82821085D01*
X150532714Y-82821085D01*
X150604142Y-82785371D01*
X150639857Y-82749657D01*
X150675571Y-82678228D01*
X150675571Y-82535371D01*
X150639857Y-82463942D01*
X150604142Y-82428228D01*
X150532714Y-82392514D01*
X150961285Y-80538171D02*
X150211285Y-80538171D01*
X150211285Y-80359600D01*
X150247000Y-80252457D01*
X150318428Y-80181028D01*
X150389857Y-80145314D01*
X150532714Y-80109600D01*
X150639857Y-80109600D01*
X150782714Y-80145314D01*
X150854142Y-80181028D01*
X150925571Y-80252457D01*
X150961285Y-80359600D01*
X150961285Y-80538171D01*
X150211285Y-79859600D02*
X150211285Y-79395314D01*
X150497000Y-79645314D01*
X150497000Y-79538171D01*
X150532714Y-79466742D01*
X150568428Y-79431028D01*
X150639857Y-79395314D01*
X150818428Y-79395314D01*
X150889857Y-79431028D01*
X150925571Y-79466742D01*
X150961285Y-79538171D01*
X150961285Y-79752457D01*
X150925571Y-79823885D01*
X150889857Y-79859600D01*
X141664885Y-92377800D02*
X141307742Y-92627800D01*
X141664885Y-92806371D02*
X140914885Y-92806371D01*
X140914885Y-92520657D01*
X140950600Y-92449228D01*
X140986314Y-92413514D01*
X141057742Y-92377800D01*
X141164885Y-92377800D01*
X141236314Y-92413514D01*
X141272028Y-92449228D01*
X141307742Y-92520657D01*
X141307742Y-92806371D01*
X141236314Y-91949228D02*
X141200600Y-92020657D01*
X141164885Y-92056371D01*
X141093457Y-92092085D01*
X141057742Y-92092085D01*
X140986314Y-92056371D01*
X140950600Y-92020657D01*
X140914885Y-91949228D01*
X140914885Y-91806371D01*
X140950600Y-91734942D01*
X140986314Y-91699228D01*
X141057742Y-91663514D01*
X141093457Y-91663514D01*
X141164885Y-91699228D01*
X141200600Y-91734942D01*
X141236314Y-91806371D01*
X141236314Y-91949228D01*
X141272028Y-92020657D01*
X141307742Y-92056371D01*
X141379171Y-92092085D01*
X141522028Y-92092085D01*
X141593457Y-92056371D01*
X141629171Y-92020657D01*
X141664885Y-91949228D01*
X141664885Y-91806371D01*
X141629171Y-91734942D01*
X141593457Y-91699228D01*
X141522028Y-91663514D01*
X141379171Y-91663514D01*
X141307742Y-91699228D01*
X141272028Y-91734942D01*
X141236314Y-91806371D01*
X145703485Y-92882571D02*
X144953485Y-92882571D01*
X144953485Y-92704000D01*
X144989200Y-92596857D01*
X145060628Y-92525428D01*
X145132057Y-92489714D01*
X145274914Y-92454000D01*
X145382057Y-92454000D01*
X145524914Y-92489714D01*
X145596342Y-92525428D01*
X145667771Y-92596857D01*
X145703485Y-92704000D01*
X145703485Y-92882571D01*
X145024914Y-92168285D02*
X144989200Y-92132571D01*
X144953485Y-92061142D01*
X144953485Y-91882571D01*
X144989200Y-91811142D01*
X145024914Y-91775428D01*
X145096342Y-91739714D01*
X145167771Y-91739714D01*
X145274914Y-91775428D01*
X145703485Y-92204000D01*
X145703485Y-91739714D01*
X142948066Y-81265780D02*
X142948066Y-81980066D01*
X142900447Y-82122923D01*
X142805209Y-82218161D01*
X142662352Y-82265780D01*
X142567114Y-82265780D01*
X143376638Y-81361019D02*
X143424257Y-81313400D01*
X143519495Y-81265780D01*
X143757590Y-81265780D01*
X143852828Y-81313400D01*
X143900447Y-81361019D01*
X143948066Y-81456257D01*
X143948066Y-81551495D01*
X143900447Y-81694352D01*
X143329019Y-82265780D01*
X143948066Y-82265780D01*
X135570980Y-104016133D02*
X136285266Y-104016133D01*
X136428123Y-104063752D01*
X136523361Y-104158990D01*
X136570980Y-104301847D01*
X136570980Y-104397085D01*
X136570980Y-103016133D02*
X136570980Y-103587561D01*
X136570980Y-103301847D02*
X135570980Y-103301847D01*
X135713838Y-103397085D01*
X135809076Y-103492323D01*
X135856695Y-103587561D01*
X139103171Y-89429085D02*
X139103171Y-90036228D01*
X139138885Y-90107657D01*
X139174600Y-90143371D01*
X139246028Y-90179085D01*
X139388885Y-90179085D01*
X139460314Y-90143371D01*
X139496028Y-90107657D01*
X139531742Y-90036228D01*
X139531742Y-89429085D01*
X139853171Y-89500514D02*
X139888885Y-89464800D01*
X139960314Y-89429085D01*
X140138885Y-89429085D01*
X140210314Y-89464800D01*
X140246028Y-89500514D01*
X140281742Y-89571942D01*
X140281742Y-89643371D01*
X140246028Y-89750514D01*
X139817457Y-90179085D01*
X140281742Y-90179085D01*
X148717095Y-91070180D02*
X148717095Y-91879704D01*
X148764714Y-91974942D01*
X148812333Y-92022561D01*
X148907571Y-92070180D01*
X149098047Y-92070180D01*
X149193285Y-92022561D01*
X149240904Y-91974942D01*
X149288523Y-91879704D01*
X149288523Y-91070180D01*
X150288523Y-92070180D02*
X149717095Y-92070180D01*
X150002809Y-92070180D02*
X150002809Y-91070180D01*
X149907571Y-91213038D01*
X149812333Y-91308276D01*
X149717095Y-91355895D01*
X136330885Y-83132200D02*
X135973742Y-83382200D01*
X136330885Y-83560771D02*
X135580885Y-83560771D01*
X135580885Y-83275057D01*
X135616600Y-83203628D01*
X135652314Y-83167914D01*
X135723742Y-83132200D01*
X135830885Y-83132200D01*
X135902314Y-83167914D01*
X135938028Y-83203628D01*
X135973742Y-83275057D01*
X135973742Y-83560771D01*
X135580885Y-82882200D02*
X135580885Y-82382200D01*
X136330885Y-82703628D01*
X136330885Y-79957200D02*
X135973742Y-80207200D01*
X136330885Y-80385771D02*
X135580885Y-80385771D01*
X135580885Y-80100057D01*
X135616600Y-80028628D01*
X135652314Y-79992914D01*
X135723742Y-79957200D01*
X135830885Y-79957200D01*
X135902314Y-79992914D01*
X135938028Y-80028628D01*
X135973742Y-80100057D01*
X135973742Y-80385771D01*
X135580885Y-79314342D02*
X135580885Y-79457200D01*
X135616600Y-79528628D01*
X135652314Y-79564342D01*
X135759457Y-79635771D01*
X135902314Y-79671485D01*
X136188028Y-79671485D01*
X136259457Y-79635771D01*
X136295171Y-79600057D01*
X136330885Y-79528628D01*
X136330885Y-79385771D01*
X136295171Y-79314342D01*
X136259457Y-79278628D01*
X136188028Y-79242914D01*
X136009457Y-79242914D01*
X135938028Y-79278628D01*
X135902314Y-79314342D01*
X135866600Y-79385771D01*
X135866600Y-79528628D01*
X135902314Y-79600057D01*
X135938028Y-79635771D01*
X136009457Y-79671485D01*
X148922980Y-95035666D02*
X148446790Y-95369000D01*
X148922980Y-95607095D02*
X147922980Y-95607095D01*
X147922980Y-95226142D01*
X147970600Y-95130904D01*
X148018219Y-95083285D01*
X148113457Y-95035666D01*
X148256314Y-95035666D01*
X148351552Y-95083285D01*
X148399171Y-95130904D01*
X148446790Y-95226142D01*
X148446790Y-95607095D01*
X147922980Y-94130904D02*
X147922980Y-94607095D01*
X148399171Y-94654714D01*
X148351552Y-94607095D01*
X148303933Y-94511857D01*
X148303933Y-94273761D01*
X148351552Y-94178523D01*
X148399171Y-94130904D01*
X148494409Y-94083285D01*
X148732504Y-94083285D01*
X148827742Y-94130904D01*
X148875361Y-94178523D01*
X148922980Y-94273761D01*
X148922980Y-94511857D01*
X148875361Y-94607095D01*
X148827742Y-94654714D01*
X136559485Y-98245200D02*
X136202342Y-98495200D01*
X136559485Y-98673771D02*
X135809485Y-98673771D01*
X135809485Y-98388057D01*
X135845200Y-98316628D01*
X135880914Y-98280914D01*
X135952342Y-98245200D01*
X136059485Y-98245200D01*
X136130914Y-98280914D01*
X136166628Y-98316628D01*
X136202342Y-98388057D01*
X136202342Y-98673771D01*
X136059485Y-97602342D02*
X136559485Y-97602342D01*
X135773771Y-97780914D02*
X136309485Y-97959485D01*
X136309485Y-97495200D01*
D12*
X141420066Y-97304990D02*
X141253400Y-97066895D01*
X141134352Y-97304990D02*
X141134352Y-96804990D01*
X141324828Y-96804990D01*
X141372447Y-96828800D01*
X141396257Y-96852609D01*
X141420066Y-96900228D01*
X141420066Y-96971657D01*
X141396257Y-97019276D01*
X141372447Y-97043085D01*
X141324828Y-97066895D01*
X141134352Y-97066895D01*
X141586733Y-96804990D02*
X141896257Y-96804990D01*
X141729590Y-96995466D01*
X141801019Y-96995466D01*
X141848638Y-97019276D01*
X141872447Y-97043085D01*
X141896257Y-97090704D01*
X141896257Y-97209752D01*
X141872447Y-97257371D01*
X141848638Y-97281180D01*
X141801019Y-97304990D01*
X141658161Y-97304990D01*
X141610542Y-97281180D01*
X141586733Y-97257371D01*
X144772866Y-97279590D02*
X144606200Y-97041495D01*
X144487152Y-97279590D02*
X144487152Y-96779590D01*
X144677628Y-96779590D01*
X144725247Y-96803400D01*
X144749057Y-96827209D01*
X144772866Y-96874828D01*
X144772866Y-96946257D01*
X144749057Y-96993876D01*
X144725247Y-97017685D01*
X144677628Y-97041495D01*
X144487152Y-97041495D01*
X144963342Y-96827209D02*
X144987152Y-96803400D01*
X145034771Y-96779590D01*
X145153819Y-96779590D01*
X145201438Y-96803400D01*
X145225247Y-96827209D01*
X145249057Y-96874828D01*
X145249057Y-96922447D01*
X145225247Y-96993876D01*
X144939533Y-97279590D01*
X145249057Y-97279590D01*
D11*
X150504085Y-98245200D02*
X150146942Y-98495200D01*
X150504085Y-98673771D02*
X149754085Y-98673771D01*
X149754085Y-98388057D01*
X149789800Y-98316628D01*
X149825514Y-98280914D01*
X149896942Y-98245200D01*
X150004085Y-98245200D01*
X150075514Y-98280914D01*
X150111228Y-98316628D01*
X150146942Y-98388057D01*
X150146942Y-98673771D01*
X150504085Y-97530914D02*
X150504085Y-97959485D01*
X150504085Y-97745200D02*
X149754085Y-97745200D01*
X149861228Y-97816628D01*
X149932657Y-97888057D01*
X149968371Y-97959485D01*
X135938028Y-85695600D02*
X135938028Y-85945600D01*
X136330885Y-85945600D02*
X135580885Y-85945600D01*
X135580885Y-85588457D01*
X136330885Y-84909885D02*
X136330885Y-85338457D01*
X136330885Y-85124171D02*
X135580885Y-85124171D01*
X135688028Y-85195600D01*
X135759457Y-85267028D01*
X135795171Y-85338457D01*
X136330885Y-87624771D02*
X135580885Y-87624771D01*
X135580885Y-87446200D01*
X135616600Y-87339057D01*
X135688028Y-87267628D01*
X135759457Y-87231914D01*
X135902314Y-87196200D01*
X136009457Y-87196200D01*
X136152314Y-87231914D01*
X136223742Y-87267628D01*
X136295171Y-87339057D01*
X136330885Y-87446200D01*
X136330885Y-87624771D01*
X136330885Y-86481914D02*
X136330885Y-86910485D01*
X136330885Y-86696200D02*
X135580885Y-86696200D01*
X135688028Y-86767628D01*
X135759457Y-86839057D01*
X135795171Y-86910485D01*
X144285857Y-88212200D02*
X144321571Y-88247914D01*
X144357285Y-88355057D01*
X144357285Y-88426485D01*
X144321571Y-88533628D01*
X144250142Y-88605057D01*
X144178714Y-88640771D01*
X144035857Y-88676485D01*
X143928714Y-88676485D01*
X143785857Y-88640771D01*
X143714428Y-88605057D01*
X143643000Y-88533628D01*
X143607285Y-88426485D01*
X143607285Y-88355057D01*
X143643000Y-88247914D01*
X143678714Y-88212200D01*
X143857285Y-87569342D02*
X144357285Y-87569342D01*
X143571571Y-87747914D02*
X144107285Y-87926485D01*
X144107285Y-87462200D01*
D12*
X140259571Y-88170533D02*
X140283380Y-88194342D01*
X140307190Y-88265771D01*
X140307190Y-88313390D01*
X140283380Y-88384819D01*
X140235761Y-88432438D01*
X140188142Y-88456247D01*
X140092904Y-88480057D01*
X140021476Y-88480057D01*
X139926238Y-88456247D01*
X139878619Y-88432438D01*
X139831000Y-88384819D01*
X139807190Y-88313390D01*
X139807190Y-88265771D01*
X139831000Y-88194342D01*
X139854809Y-88170533D01*
X139807190Y-88003866D02*
X139807190Y-87694342D01*
X139997666Y-87861009D01*
X139997666Y-87789580D01*
X140021476Y-87741961D01*
X140045285Y-87718152D01*
X140092904Y-87694342D01*
X140211952Y-87694342D01*
X140259571Y-87718152D01*
X140283380Y-87741961D01*
X140307190Y-87789580D01*
X140307190Y-87932438D01*
X140283380Y-87980057D01*
X140259571Y-88003866D01*
D11*
X140145657Y-92631800D02*
X140181371Y-92667514D01*
X140217085Y-92774657D01*
X140217085Y-92846085D01*
X140181371Y-92953228D01*
X140109942Y-93024657D01*
X140038514Y-93060371D01*
X139895657Y-93096085D01*
X139788514Y-93096085D01*
X139645657Y-93060371D01*
X139574228Y-93024657D01*
X139502800Y-92953228D01*
X139467085Y-92846085D01*
X139467085Y-92774657D01*
X139502800Y-92667514D01*
X139538514Y-92631800D01*
X139538514Y-92346085D02*
X139502800Y-92310371D01*
X139467085Y-92238942D01*
X139467085Y-92060371D01*
X139502800Y-91988942D01*
X139538514Y-91953228D01*
X139609942Y-91917514D01*
X139681371Y-91917514D01*
X139788514Y-91953228D01*
X140217085Y-92381800D01*
X140217085Y-91917514D01*
X143994600Y-85942057D02*
X143958885Y-85977771D01*
X143851742Y-86013485D01*
X143780314Y-86013485D01*
X143673171Y-85977771D01*
X143601742Y-85906342D01*
X143566028Y-85834914D01*
X143530314Y-85692057D01*
X143530314Y-85584914D01*
X143566028Y-85442057D01*
X143601742Y-85370628D01*
X143673171Y-85299200D01*
X143780314Y-85263485D01*
X143851742Y-85263485D01*
X143958885Y-85299200D01*
X143994600Y-85334914D01*
X144708885Y-86013485D02*
X144280314Y-86013485D01*
X144494600Y-86013485D02*
X144494600Y-85263485D01*
X144423171Y-85370628D01*
X144351742Y-85442057D01*
X144280314Y-85477771D01*
M02*
