M48
; DRILL file {KiCad (5.1.5)-3} date 1/21/2022 5:51:10 PM
; FORMAT={-:-/ absolute / metric / decimal}
; #@! TF.CreationDate,2022-01-21T17:51:10-06:00
; #@! TF.GenerationSoftware,Kicad,Pcbnew,(5.1.5)-3
; #@! TF.FileFunction,Plated,1,2,PTH
FMAT,2
METRIC
T1C0.400
T2C0.600
T3C1.000
%
G90
G05
T1
X141.148Y-91.44
X141.173Y-80.62
X144.018Y-89.637
X144.501Y-81.788
X144.602Y-86.106
X147.574Y-91.44
X148.59Y-92.456
X149.86Y-96.266
T3
X138.209Y-101.153
X140.749Y-101.153
X143.289Y-101.153
X145.829Y-101.153
X148.369Y-101.153
T2
G00X138.933Y-78.245
M15
G01X138.933Y-79.045
M16
G05
G00X138.933Y-82.265
M15
G01X138.933Y-83.365
M16
G05
G00X147.573Y-78.245
M15
G01X147.573Y-79.045
M16
G05
G00X147.573Y-82.265
M15
G01X147.573Y-83.365
M16
G05
T0
M30
