G04 #@! TF.GenerationSoftware,KiCad,Pcbnew,(5.1.5)-3*
G04 #@! TF.CreationDate,2022-01-21T17:51:05-06:00*
G04 #@! TF.ProjectId,test_stand_smd,74657374-5f73-4746-916e-645f736d642e,rev?*
G04 #@! TF.SameCoordinates,Original*
G04 #@! TF.FileFunction,Paste,Top*
G04 #@! TF.FilePolarity,Positive*
%FSLAX46Y46*%
G04 Gerber Fmt 4.6, Leading zero omitted, Abs format (unit mm)*
G04 Created by KiCad (PCBNEW (5.1.5)-3) date 2022-01-21 17:51:05*
%MOMM*%
%LPD*%
G04 APERTURE LIST*
%ADD10C,0.100000*%
%ADD11R,0.600000X1.160000*%
%ADD12R,0.300000X1.160000*%
%ADD13R,1.060000X0.650000*%
G04 APERTURE END LIST*
D10*
G36*
X149578891Y-83332853D02*
G01*
X149600126Y-83336003D01*
X149620950Y-83341219D01*
X149641162Y-83348451D01*
X149660568Y-83357630D01*
X149678981Y-83368666D01*
X149696224Y-83381454D01*
X149712130Y-83395870D01*
X149726546Y-83411776D01*
X149739334Y-83429019D01*
X149750370Y-83447432D01*
X149759549Y-83466838D01*
X149766781Y-83487050D01*
X149771997Y-83507874D01*
X149775147Y-83529109D01*
X149776200Y-83550550D01*
X149776200Y-83988050D01*
X149775147Y-84009491D01*
X149771997Y-84030726D01*
X149766781Y-84051550D01*
X149759549Y-84071762D01*
X149750370Y-84091168D01*
X149739334Y-84109581D01*
X149726546Y-84126824D01*
X149712130Y-84142730D01*
X149696224Y-84157146D01*
X149678981Y-84169934D01*
X149660568Y-84180970D01*
X149641162Y-84190149D01*
X149620950Y-84197381D01*
X149600126Y-84202597D01*
X149578891Y-84205747D01*
X149557450Y-84206800D01*
X149044950Y-84206800D01*
X149023509Y-84205747D01*
X149002274Y-84202597D01*
X148981450Y-84197381D01*
X148961238Y-84190149D01*
X148941832Y-84180970D01*
X148923419Y-84169934D01*
X148906176Y-84157146D01*
X148890270Y-84142730D01*
X148875854Y-84126824D01*
X148863066Y-84109581D01*
X148852030Y-84091168D01*
X148842851Y-84071762D01*
X148835619Y-84051550D01*
X148830403Y-84030726D01*
X148827253Y-84009491D01*
X148826200Y-83988050D01*
X148826200Y-83550550D01*
X148827253Y-83529109D01*
X148830403Y-83507874D01*
X148835619Y-83487050D01*
X148842851Y-83466838D01*
X148852030Y-83447432D01*
X148863066Y-83429019D01*
X148875854Y-83411776D01*
X148890270Y-83395870D01*
X148906176Y-83381454D01*
X148923419Y-83368666D01*
X148941832Y-83357630D01*
X148961238Y-83348451D01*
X148981450Y-83341219D01*
X149002274Y-83336003D01*
X149023509Y-83332853D01*
X149044950Y-83331800D01*
X149557450Y-83331800D01*
X149578891Y-83332853D01*
G37*
G36*
X149578891Y-81757853D02*
G01*
X149600126Y-81761003D01*
X149620950Y-81766219D01*
X149641162Y-81773451D01*
X149660568Y-81782630D01*
X149678981Y-81793666D01*
X149696224Y-81806454D01*
X149712130Y-81820870D01*
X149726546Y-81836776D01*
X149739334Y-81854019D01*
X149750370Y-81872432D01*
X149759549Y-81891838D01*
X149766781Y-81912050D01*
X149771997Y-81932874D01*
X149775147Y-81954109D01*
X149776200Y-81975550D01*
X149776200Y-82413050D01*
X149775147Y-82434491D01*
X149771997Y-82455726D01*
X149766781Y-82476550D01*
X149759549Y-82496762D01*
X149750370Y-82516168D01*
X149739334Y-82534581D01*
X149726546Y-82551824D01*
X149712130Y-82567730D01*
X149696224Y-82582146D01*
X149678981Y-82594934D01*
X149660568Y-82605970D01*
X149641162Y-82615149D01*
X149620950Y-82622381D01*
X149600126Y-82627597D01*
X149578891Y-82630747D01*
X149557450Y-82631800D01*
X149044950Y-82631800D01*
X149023509Y-82630747D01*
X149002274Y-82627597D01*
X148981450Y-82622381D01*
X148961238Y-82615149D01*
X148941832Y-82605970D01*
X148923419Y-82594934D01*
X148906176Y-82582146D01*
X148890270Y-82567730D01*
X148875854Y-82551824D01*
X148863066Y-82534581D01*
X148852030Y-82516168D01*
X148842851Y-82496762D01*
X148835619Y-82476550D01*
X148830403Y-82455726D01*
X148827253Y-82434491D01*
X148826200Y-82413050D01*
X148826200Y-81975550D01*
X148827253Y-81954109D01*
X148830403Y-81932874D01*
X148835619Y-81912050D01*
X148842851Y-81891838D01*
X148852030Y-81872432D01*
X148863066Y-81854019D01*
X148875854Y-81836776D01*
X148890270Y-81820870D01*
X148906176Y-81806454D01*
X148923419Y-81793666D01*
X148941832Y-81782630D01*
X148961238Y-81773451D01*
X148981450Y-81766219D01*
X149002274Y-81761003D01*
X149023509Y-81757853D01*
X149044950Y-81756800D01*
X149557450Y-81756800D01*
X149578891Y-81757853D01*
G37*
G36*
X149578891Y-80335653D02*
G01*
X149600126Y-80338803D01*
X149620950Y-80344019D01*
X149641162Y-80351251D01*
X149660568Y-80360430D01*
X149678981Y-80371466D01*
X149696224Y-80384254D01*
X149712130Y-80398670D01*
X149726546Y-80414576D01*
X149739334Y-80431819D01*
X149750370Y-80450232D01*
X149759549Y-80469638D01*
X149766781Y-80489850D01*
X149771997Y-80510674D01*
X149775147Y-80531909D01*
X149776200Y-80553350D01*
X149776200Y-80990850D01*
X149775147Y-81012291D01*
X149771997Y-81033526D01*
X149766781Y-81054350D01*
X149759549Y-81074562D01*
X149750370Y-81093968D01*
X149739334Y-81112381D01*
X149726546Y-81129624D01*
X149712130Y-81145530D01*
X149696224Y-81159946D01*
X149678981Y-81172734D01*
X149660568Y-81183770D01*
X149641162Y-81192949D01*
X149620950Y-81200181D01*
X149600126Y-81205397D01*
X149578891Y-81208547D01*
X149557450Y-81209600D01*
X149044950Y-81209600D01*
X149023509Y-81208547D01*
X149002274Y-81205397D01*
X148981450Y-81200181D01*
X148961238Y-81192949D01*
X148941832Y-81183770D01*
X148923419Y-81172734D01*
X148906176Y-81159946D01*
X148890270Y-81145530D01*
X148875854Y-81129624D01*
X148863066Y-81112381D01*
X148852030Y-81093968D01*
X148842851Y-81074562D01*
X148835619Y-81054350D01*
X148830403Y-81033526D01*
X148827253Y-81012291D01*
X148826200Y-80990850D01*
X148826200Y-80553350D01*
X148827253Y-80531909D01*
X148830403Y-80510674D01*
X148835619Y-80489850D01*
X148842851Y-80469638D01*
X148852030Y-80450232D01*
X148863066Y-80431819D01*
X148875854Y-80414576D01*
X148890270Y-80398670D01*
X148906176Y-80384254D01*
X148923419Y-80371466D01*
X148941832Y-80360430D01*
X148961238Y-80351251D01*
X148981450Y-80344019D01*
X149002274Y-80338803D01*
X149023509Y-80335653D01*
X149044950Y-80334600D01*
X149557450Y-80334600D01*
X149578891Y-80335653D01*
G37*
G36*
X149578891Y-78760653D02*
G01*
X149600126Y-78763803D01*
X149620950Y-78769019D01*
X149641162Y-78776251D01*
X149660568Y-78785430D01*
X149678981Y-78796466D01*
X149696224Y-78809254D01*
X149712130Y-78823670D01*
X149726546Y-78839576D01*
X149739334Y-78856819D01*
X149750370Y-78875232D01*
X149759549Y-78894638D01*
X149766781Y-78914850D01*
X149771997Y-78935674D01*
X149775147Y-78956909D01*
X149776200Y-78978350D01*
X149776200Y-79415850D01*
X149775147Y-79437291D01*
X149771997Y-79458526D01*
X149766781Y-79479350D01*
X149759549Y-79499562D01*
X149750370Y-79518968D01*
X149739334Y-79537381D01*
X149726546Y-79554624D01*
X149712130Y-79570530D01*
X149696224Y-79584946D01*
X149678981Y-79597734D01*
X149660568Y-79608770D01*
X149641162Y-79617949D01*
X149620950Y-79625181D01*
X149600126Y-79630397D01*
X149578891Y-79633547D01*
X149557450Y-79634600D01*
X149044950Y-79634600D01*
X149023509Y-79633547D01*
X149002274Y-79630397D01*
X148981450Y-79625181D01*
X148961238Y-79617949D01*
X148941832Y-79608770D01*
X148923419Y-79597734D01*
X148906176Y-79584946D01*
X148890270Y-79570530D01*
X148875854Y-79554624D01*
X148863066Y-79537381D01*
X148852030Y-79518968D01*
X148842851Y-79499562D01*
X148835619Y-79479350D01*
X148830403Y-79458526D01*
X148827253Y-79437291D01*
X148826200Y-79415850D01*
X148826200Y-78978350D01*
X148827253Y-78956909D01*
X148830403Y-78935674D01*
X148835619Y-78914850D01*
X148842851Y-78894638D01*
X148852030Y-78875232D01*
X148863066Y-78856819D01*
X148875854Y-78839576D01*
X148890270Y-78823670D01*
X148906176Y-78809254D01*
X148923419Y-78796466D01*
X148941832Y-78785430D01*
X148961238Y-78776251D01*
X148981450Y-78769019D01*
X149002274Y-78763803D01*
X149023509Y-78760653D01*
X149044950Y-78759600D01*
X149557450Y-78759600D01*
X149578891Y-78760653D01*
G37*
G36*
X142670091Y-91613253D02*
G01*
X142691326Y-91616403D01*
X142712150Y-91621619D01*
X142732362Y-91628851D01*
X142751768Y-91638030D01*
X142770181Y-91649066D01*
X142787424Y-91661854D01*
X142803330Y-91676270D01*
X142817746Y-91692176D01*
X142830534Y-91709419D01*
X142841570Y-91727832D01*
X142850749Y-91747238D01*
X142857981Y-91767450D01*
X142863197Y-91788274D01*
X142866347Y-91809509D01*
X142867400Y-91830950D01*
X142867400Y-92268450D01*
X142866347Y-92289891D01*
X142863197Y-92311126D01*
X142857981Y-92331950D01*
X142850749Y-92352162D01*
X142841570Y-92371568D01*
X142830534Y-92389981D01*
X142817746Y-92407224D01*
X142803330Y-92423130D01*
X142787424Y-92437546D01*
X142770181Y-92450334D01*
X142751768Y-92461370D01*
X142732362Y-92470549D01*
X142712150Y-92477781D01*
X142691326Y-92482997D01*
X142670091Y-92486147D01*
X142648650Y-92487200D01*
X142136150Y-92487200D01*
X142114709Y-92486147D01*
X142093474Y-92482997D01*
X142072650Y-92477781D01*
X142052438Y-92470549D01*
X142033032Y-92461370D01*
X142014619Y-92450334D01*
X141997376Y-92437546D01*
X141981470Y-92423130D01*
X141967054Y-92407224D01*
X141954266Y-92389981D01*
X141943230Y-92371568D01*
X141934051Y-92352162D01*
X141926819Y-92331950D01*
X141921603Y-92311126D01*
X141918453Y-92289891D01*
X141917400Y-92268450D01*
X141917400Y-91830950D01*
X141918453Y-91809509D01*
X141921603Y-91788274D01*
X141926819Y-91767450D01*
X141934051Y-91747238D01*
X141943230Y-91727832D01*
X141954266Y-91709419D01*
X141967054Y-91692176D01*
X141981470Y-91676270D01*
X141997376Y-91661854D01*
X142014619Y-91649066D01*
X142033032Y-91638030D01*
X142052438Y-91628851D01*
X142072650Y-91621619D01*
X142093474Y-91616403D01*
X142114709Y-91613253D01*
X142136150Y-91612200D01*
X142648650Y-91612200D01*
X142670091Y-91613253D01*
G37*
G36*
X142670091Y-90038253D02*
G01*
X142691326Y-90041403D01*
X142712150Y-90046619D01*
X142732362Y-90053851D01*
X142751768Y-90063030D01*
X142770181Y-90074066D01*
X142787424Y-90086854D01*
X142803330Y-90101270D01*
X142817746Y-90117176D01*
X142830534Y-90134419D01*
X142841570Y-90152832D01*
X142850749Y-90172238D01*
X142857981Y-90192450D01*
X142863197Y-90213274D01*
X142866347Y-90234509D01*
X142867400Y-90255950D01*
X142867400Y-90693450D01*
X142866347Y-90714891D01*
X142863197Y-90736126D01*
X142857981Y-90756950D01*
X142850749Y-90777162D01*
X142841570Y-90796568D01*
X142830534Y-90814981D01*
X142817746Y-90832224D01*
X142803330Y-90848130D01*
X142787424Y-90862546D01*
X142770181Y-90875334D01*
X142751768Y-90886370D01*
X142732362Y-90895549D01*
X142712150Y-90902781D01*
X142691326Y-90907997D01*
X142670091Y-90911147D01*
X142648650Y-90912200D01*
X142136150Y-90912200D01*
X142114709Y-90911147D01*
X142093474Y-90907997D01*
X142072650Y-90902781D01*
X142052438Y-90895549D01*
X142033032Y-90886370D01*
X142014619Y-90875334D01*
X141997376Y-90862546D01*
X141981470Y-90848130D01*
X141967054Y-90832224D01*
X141954266Y-90814981D01*
X141943230Y-90796568D01*
X141934051Y-90777162D01*
X141926819Y-90756950D01*
X141921603Y-90736126D01*
X141918453Y-90714891D01*
X141917400Y-90693450D01*
X141917400Y-90255950D01*
X141918453Y-90234509D01*
X141921603Y-90213274D01*
X141926819Y-90192450D01*
X141934051Y-90172238D01*
X141943230Y-90152832D01*
X141954266Y-90134419D01*
X141967054Y-90117176D01*
X141981470Y-90101270D01*
X141997376Y-90086854D01*
X142014619Y-90074066D01*
X142033032Y-90063030D01*
X142052438Y-90053851D01*
X142072650Y-90046619D01*
X142093474Y-90041403D01*
X142114709Y-90038253D01*
X142136150Y-90037200D01*
X142648650Y-90037200D01*
X142670091Y-90038253D01*
G37*
G36*
X144295691Y-91918053D02*
G01*
X144316926Y-91921203D01*
X144337750Y-91926419D01*
X144357962Y-91933651D01*
X144377368Y-91942830D01*
X144395781Y-91953866D01*
X144413024Y-91966654D01*
X144428930Y-91981070D01*
X144443346Y-91996976D01*
X144456134Y-92014219D01*
X144467170Y-92032632D01*
X144476349Y-92052038D01*
X144483581Y-92072250D01*
X144488797Y-92093074D01*
X144491947Y-92114309D01*
X144493000Y-92135750D01*
X144493000Y-92573250D01*
X144491947Y-92594691D01*
X144488797Y-92615926D01*
X144483581Y-92636750D01*
X144476349Y-92656962D01*
X144467170Y-92676368D01*
X144456134Y-92694781D01*
X144443346Y-92712024D01*
X144428930Y-92727930D01*
X144413024Y-92742346D01*
X144395781Y-92755134D01*
X144377368Y-92766170D01*
X144357962Y-92775349D01*
X144337750Y-92782581D01*
X144316926Y-92787797D01*
X144295691Y-92790947D01*
X144274250Y-92792000D01*
X143761750Y-92792000D01*
X143740309Y-92790947D01*
X143719074Y-92787797D01*
X143698250Y-92782581D01*
X143678038Y-92775349D01*
X143658632Y-92766170D01*
X143640219Y-92755134D01*
X143622976Y-92742346D01*
X143607070Y-92727930D01*
X143592654Y-92712024D01*
X143579866Y-92694781D01*
X143568830Y-92676368D01*
X143559651Y-92656962D01*
X143552419Y-92636750D01*
X143547203Y-92615926D01*
X143544053Y-92594691D01*
X143543000Y-92573250D01*
X143543000Y-92135750D01*
X143544053Y-92114309D01*
X143547203Y-92093074D01*
X143552419Y-92072250D01*
X143559651Y-92052038D01*
X143568830Y-92032632D01*
X143579866Y-92014219D01*
X143592654Y-91996976D01*
X143607070Y-91981070D01*
X143622976Y-91966654D01*
X143640219Y-91953866D01*
X143658632Y-91942830D01*
X143678038Y-91933651D01*
X143698250Y-91926419D01*
X143719074Y-91921203D01*
X143740309Y-91918053D01*
X143761750Y-91917000D01*
X144274250Y-91917000D01*
X144295691Y-91918053D01*
G37*
G36*
X144295691Y-90343053D02*
G01*
X144316926Y-90346203D01*
X144337750Y-90351419D01*
X144357962Y-90358651D01*
X144377368Y-90367830D01*
X144395781Y-90378866D01*
X144413024Y-90391654D01*
X144428930Y-90406070D01*
X144443346Y-90421976D01*
X144456134Y-90439219D01*
X144467170Y-90457632D01*
X144476349Y-90477038D01*
X144483581Y-90497250D01*
X144488797Y-90518074D01*
X144491947Y-90539309D01*
X144493000Y-90560750D01*
X144493000Y-90998250D01*
X144491947Y-91019691D01*
X144488797Y-91040926D01*
X144483581Y-91061750D01*
X144476349Y-91081962D01*
X144467170Y-91101368D01*
X144456134Y-91119781D01*
X144443346Y-91137024D01*
X144428930Y-91152930D01*
X144413024Y-91167346D01*
X144395781Y-91180134D01*
X144377368Y-91191170D01*
X144357962Y-91200349D01*
X144337750Y-91207581D01*
X144316926Y-91212797D01*
X144295691Y-91215947D01*
X144274250Y-91217000D01*
X143761750Y-91217000D01*
X143740309Y-91215947D01*
X143719074Y-91212797D01*
X143698250Y-91207581D01*
X143678038Y-91200349D01*
X143658632Y-91191170D01*
X143640219Y-91180134D01*
X143622976Y-91167346D01*
X143607070Y-91152930D01*
X143592654Y-91137024D01*
X143579866Y-91119781D01*
X143568830Y-91101368D01*
X143559651Y-91081962D01*
X143552419Y-91061750D01*
X143547203Y-91040926D01*
X143544053Y-91019691D01*
X143543000Y-90998250D01*
X143543000Y-90560750D01*
X143544053Y-90539309D01*
X143547203Y-90518074D01*
X143552419Y-90497250D01*
X143559651Y-90477038D01*
X143568830Y-90457632D01*
X143579866Y-90439219D01*
X143592654Y-90421976D01*
X143607070Y-90406070D01*
X143622976Y-90391654D01*
X143640219Y-90378866D01*
X143658632Y-90367830D01*
X143678038Y-90358651D01*
X143698250Y-90351419D01*
X143719074Y-90346203D01*
X143740309Y-90343053D01*
X143761750Y-90342000D01*
X144274250Y-90342000D01*
X144295691Y-90343053D01*
G37*
D11*
X140053460Y-83395200D03*
X140853460Y-83395200D03*
X140053460Y-83395200D03*
X140853460Y-83395200D03*
X146453460Y-83395200D03*
X146453460Y-83395200D03*
X145653460Y-83395200D03*
X145653460Y-83395200D03*
D12*
X141503460Y-83395200D03*
X142503460Y-83395200D03*
X142003460Y-83395200D03*
X144503460Y-83395200D03*
X145003460Y-83395200D03*
X143003460Y-83395200D03*
X143503460Y-83395200D03*
X144003460Y-83395200D03*
D10*
G36*
X141375603Y-93819163D02*
G01*
X141395018Y-93822043D01*
X141414057Y-93826812D01*
X141432537Y-93833424D01*
X141450279Y-93841816D01*
X141467114Y-93851906D01*
X141482879Y-93863598D01*
X141497421Y-93876779D01*
X141510602Y-93891321D01*
X141522294Y-93907086D01*
X141532384Y-93923921D01*
X141540776Y-93941663D01*
X141547388Y-93960143D01*
X141552157Y-93979182D01*
X141555037Y-93998597D01*
X141556000Y-94018200D01*
X141556000Y-95618200D01*
X141555037Y-95637803D01*
X141552157Y-95657218D01*
X141547388Y-95676257D01*
X141540776Y-95694737D01*
X141532384Y-95712479D01*
X141522294Y-95729314D01*
X141510602Y-95745079D01*
X141497421Y-95759621D01*
X141482879Y-95772802D01*
X141467114Y-95784494D01*
X141450279Y-95794584D01*
X141432537Y-95802976D01*
X141414057Y-95809588D01*
X141395018Y-95814357D01*
X141375603Y-95817237D01*
X141356000Y-95818200D01*
X140956000Y-95818200D01*
X140936397Y-95817237D01*
X140916982Y-95814357D01*
X140897943Y-95809588D01*
X140879463Y-95802976D01*
X140861721Y-95794584D01*
X140844886Y-95784494D01*
X140829121Y-95772802D01*
X140814579Y-95759621D01*
X140801398Y-95745079D01*
X140789706Y-95729314D01*
X140779616Y-95712479D01*
X140771224Y-95694737D01*
X140764612Y-95676257D01*
X140759843Y-95657218D01*
X140756963Y-95637803D01*
X140756000Y-95618200D01*
X140756000Y-94018200D01*
X140756963Y-93998597D01*
X140759843Y-93979182D01*
X140764612Y-93960143D01*
X140771224Y-93941663D01*
X140779616Y-93923921D01*
X140789706Y-93907086D01*
X140801398Y-93891321D01*
X140814579Y-93876779D01*
X140829121Y-93863598D01*
X140844886Y-93851906D01*
X140861721Y-93841816D01*
X140879463Y-93833424D01*
X140897943Y-93826812D01*
X140916982Y-93822043D01*
X140936397Y-93819163D01*
X140956000Y-93818200D01*
X141356000Y-93818200D01*
X141375603Y-93819163D01*
G37*
G36*
X145575603Y-93819163D02*
G01*
X145595018Y-93822043D01*
X145614057Y-93826812D01*
X145632537Y-93833424D01*
X145650279Y-93841816D01*
X145667114Y-93851906D01*
X145682879Y-93863598D01*
X145697421Y-93876779D01*
X145710602Y-93891321D01*
X145722294Y-93907086D01*
X145732384Y-93923921D01*
X145740776Y-93941663D01*
X145747388Y-93960143D01*
X145752157Y-93979182D01*
X145755037Y-93998597D01*
X145756000Y-94018200D01*
X145756000Y-95618200D01*
X145755037Y-95637803D01*
X145752157Y-95657218D01*
X145747388Y-95676257D01*
X145740776Y-95694737D01*
X145732384Y-95712479D01*
X145722294Y-95729314D01*
X145710602Y-95745079D01*
X145697421Y-95759621D01*
X145682879Y-95772802D01*
X145667114Y-95784494D01*
X145650279Y-95794584D01*
X145632537Y-95802976D01*
X145614057Y-95809588D01*
X145595018Y-95814357D01*
X145575603Y-95817237D01*
X145556000Y-95818200D01*
X145156000Y-95818200D01*
X145136397Y-95817237D01*
X145116982Y-95814357D01*
X145097943Y-95809588D01*
X145079463Y-95802976D01*
X145061721Y-95794584D01*
X145044886Y-95784494D01*
X145029121Y-95772802D01*
X145014579Y-95759621D01*
X145001398Y-95745079D01*
X144989706Y-95729314D01*
X144979616Y-95712479D01*
X144971224Y-95694737D01*
X144964612Y-95676257D01*
X144959843Y-95657218D01*
X144956963Y-95637803D01*
X144956000Y-95618200D01*
X144956000Y-94018200D01*
X144956963Y-93998597D01*
X144959843Y-93979182D01*
X144964612Y-93960143D01*
X144971224Y-93941663D01*
X144979616Y-93923921D01*
X144989706Y-93907086D01*
X145001398Y-93891321D01*
X145014579Y-93876779D01*
X145029121Y-93863598D01*
X145044886Y-93851906D01*
X145061721Y-93841816D01*
X145079463Y-93833424D01*
X145097943Y-93826812D01*
X145116982Y-93822043D01*
X145136397Y-93819163D01*
X145156000Y-93818200D01*
X145556000Y-93818200D01*
X145575603Y-93819163D01*
G37*
D13*
X139250600Y-88864400D03*
X139250600Y-90764400D03*
X137050600Y-90764400D03*
X137050600Y-89814400D03*
X137050600Y-88864400D03*
D10*
G36*
X147208505Y-88431604D02*
G01*
X147232773Y-88435204D01*
X147256572Y-88441165D01*
X147279671Y-88449430D01*
X147301850Y-88459920D01*
X147322893Y-88472532D01*
X147342599Y-88487147D01*
X147360777Y-88503623D01*
X147377253Y-88521801D01*
X147391868Y-88541507D01*
X147404480Y-88562550D01*
X147414970Y-88584729D01*
X147423235Y-88607828D01*
X147429196Y-88631627D01*
X147432796Y-88655895D01*
X147434000Y-88680399D01*
X147434000Y-89350401D01*
X147432796Y-89374905D01*
X147429196Y-89399173D01*
X147423235Y-89422972D01*
X147414970Y-89446071D01*
X147404480Y-89468250D01*
X147391868Y-89489293D01*
X147377253Y-89508999D01*
X147360777Y-89527177D01*
X147342599Y-89543653D01*
X147322893Y-89558268D01*
X147301850Y-89570880D01*
X147279671Y-89581370D01*
X147256572Y-89589635D01*
X147232773Y-89595596D01*
X147208505Y-89599196D01*
X147184001Y-89600400D01*
X146513999Y-89600400D01*
X146489495Y-89599196D01*
X146465227Y-89595596D01*
X146441428Y-89589635D01*
X146418329Y-89581370D01*
X146396150Y-89570880D01*
X146375107Y-89558268D01*
X146355401Y-89543653D01*
X146337223Y-89527177D01*
X146320747Y-89508999D01*
X146306132Y-89489293D01*
X146293520Y-89468250D01*
X146283030Y-89446071D01*
X146274765Y-89422972D01*
X146268804Y-89399173D01*
X146265204Y-89374905D01*
X146264000Y-89350401D01*
X146264000Y-88680399D01*
X146265204Y-88655895D01*
X146268804Y-88631627D01*
X146274765Y-88607828D01*
X146283030Y-88584729D01*
X146293520Y-88562550D01*
X146306132Y-88541507D01*
X146320747Y-88521801D01*
X146337223Y-88503623D01*
X146355401Y-88487147D01*
X146375107Y-88472532D01*
X146396150Y-88459920D01*
X146418329Y-88449430D01*
X146441428Y-88441165D01*
X146465227Y-88435204D01*
X146489495Y-88431604D01*
X146513999Y-88430400D01*
X147184001Y-88430400D01*
X147208505Y-88431604D01*
G37*
G36*
X148658505Y-88431604D02*
G01*
X148682773Y-88435204D01*
X148706572Y-88441165D01*
X148729671Y-88449430D01*
X148751850Y-88459920D01*
X148772893Y-88472532D01*
X148792599Y-88487147D01*
X148810777Y-88503623D01*
X148827253Y-88521801D01*
X148841868Y-88541507D01*
X148854480Y-88562550D01*
X148864970Y-88584729D01*
X148873235Y-88607828D01*
X148879196Y-88631627D01*
X148882796Y-88655895D01*
X148884000Y-88680399D01*
X148884000Y-89350401D01*
X148882796Y-89374905D01*
X148879196Y-89399173D01*
X148873235Y-89422972D01*
X148864970Y-89446071D01*
X148854480Y-89468250D01*
X148841868Y-89489293D01*
X148827253Y-89508999D01*
X148810777Y-89527177D01*
X148792599Y-89543653D01*
X148772893Y-89558268D01*
X148751850Y-89570880D01*
X148729671Y-89581370D01*
X148706572Y-89589635D01*
X148682773Y-89595596D01*
X148658505Y-89599196D01*
X148634001Y-89600400D01*
X147963999Y-89600400D01*
X147939495Y-89599196D01*
X147915227Y-89595596D01*
X147891428Y-89589635D01*
X147868329Y-89581370D01*
X147846150Y-89570880D01*
X147825107Y-89558268D01*
X147805401Y-89543653D01*
X147787223Y-89527177D01*
X147770747Y-89508999D01*
X147756132Y-89489293D01*
X147743520Y-89468250D01*
X147733030Y-89446071D01*
X147724765Y-89422972D01*
X147718804Y-89399173D01*
X147715204Y-89374905D01*
X147714000Y-89350401D01*
X147714000Y-88680399D01*
X147715204Y-88655895D01*
X147718804Y-88631627D01*
X147724765Y-88607828D01*
X147733030Y-88584729D01*
X147743520Y-88562550D01*
X147756132Y-88541507D01*
X147770747Y-88521801D01*
X147787223Y-88503623D01*
X147805401Y-88487147D01*
X147825107Y-88472532D01*
X147846150Y-88459920D01*
X147868329Y-88449430D01*
X147891428Y-88441165D01*
X147915227Y-88435204D01*
X147939495Y-88431604D01*
X147963999Y-88430400D01*
X148634001Y-88430400D01*
X148658505Y-88431604D01*
G37*
G36*
X147208505Y-86981604D02*
G01*
X147232773Y-86985204D01*
X147256572Y-86991165D01*
X147279671Y-86999430D01*
X147301850Y-87009920D01*
X147322893Y-87022532D01*
X147342599Y-87037147D01*
X147360777Y-87053623D01*
X147377253Y-87071801D01*
X147391868Y-87091507D01*
X147404480Y-87112550D01*
X147414970Y-87134729D01*
X147423235Y-87157828D01*
X147429196Y-87181627D01*
X147432796Y-87205895D01*
X147434000Y-87230399D01*
X147434000Y-87900401D01*
X147432796Y-87924905D01*
X147429196Y-87949173D01*
X147423235Y-87972972D01*
X147414970Y-87996071D01*
X147404480Y-88018250D01*
X147391868Y-88039293D01*
X147377253Y-88058999D01*
X147360777Y-88077177D01*
X147342599Y-88093653D01*
X147322893Y-88108268D01*
X147301850Y-88120880D01*
X147279671Y-88131370D01*
X147256572Y-88139635D01*
X147232773Y-88145596D01*
X147208505Y-88149196D01*
X147184001Y-88150400D01*
X146513999Y-88150400D01*
X146489495Y-88149196D01*
X146465227Y-88145596D01*
X146441428Y-88139635D01*
X146418329Y-88131370D01*
X146396150Y-88120880D01*
X146375107Y-88108268D01*
X146355401Y-88093653D01*
X146337223Y-88077177D01*
X146320747Y-88058999D01*
X146306132Y-88039293D01*
X146293520Y-88018250D01*
X146283030Y-87996071D01*
X146274765Y-87972972D01*
X146268804Y-87949173D01*
X146265204Y-87924905D01*
X146264000Y-87900401D01*
X146264000Y-87230399D01*
X146265204Y-87205895D01*
X146268804Y-87181627D01*
X146274765Y-87157828D01*
X146283030Y-87134729D01*
X146293520Y-87112550D01*
X146306132Y-87091507D01*
X146320747Y-87071801D01*
X146337223Y-87053623D01*
X146355401Y-87037147D01*
X146375107Y-87022532D01*
X146396150Y-87009920D01*
X146418329Y-86999430D01*
X146441428Y-86991165D01*
X146465227Y-86985204D01*
X146489495Y-86981604D01*
X146513999Y-86980400D01*
X147184001Y-86980400D01*
X147208505Y-86981604D01*
G37*
G36*
X148658505Y-86981604D02*
G01*
X148682773Y-86985204D01*
X148706572Y-86991165D01*
X148729671Y-86999430D01*
X148751850Y-87009920D01*
X148772893Y-87022532D01*
X148792599Y-87037147D01*
X148810777Y-87053623D01*
X148827253Y-87071801D01*
X148841868Y-87091507D01*
X148854480Y-87112550D01*
X148864970Y-87134729D01*
X148873235Y-87157828D01*
X148879196Y-87181627D01*
X148882796Y-87205895D01*
X148884000Y-87230399D01*
X148884000Y-87900401D01*
X148882796Y-87924905D01*
X148879196Y-87949173D01*
X148873235Y-87972972D01*
X148864970Y-87996071D01*
X148854480Y-88018250D01*
X148841868Y-88039293D01*
X148827253Y-88058999D01*
X148810777Y-88077177D01*
X148792599Y-88093653D01*
X148772893Y-88108268D01*
X148751850Y-88120880D01*
X148729671Y-88131370D01*
X148706572Y-88139635D01*
X148682773Y-88145596D01*
X148658505Y-88149196D01*
X148634001Y-88150400D01*
X147963999Y-88150400D01*
X147939495Y-88149196D01*
X147915227Y-88145596D01*
X147891428Y-88139635D01*
X147868329Y-88131370D01*
X147846150Y-88120880D01*
X147825107Y-88108268D01*
X147805401Y-88093653D01*
X147787223Y-88077177D01*
X147770747Y-88058999D01*
X147756132Y-88039293D01*
X147743520Y-88018250D01*
X147733030Y-87996071D01*
X147724765Y-87972972D01*
X147718804Y-87949173D01*
X147715204Y-87924905D01*
X147714000Y-87900401D01*
X147714000Y-87230399D01*
X147715204Y-87205895D01*
X147718804Y-87181627D01*
X147724765Y-87157828D01*
X147733030Y-87134729D01*
X147743520Y-87112550D01*
X147756132Y-87091507D01*
X147770747Y-87071801D01*
X147787223Y-87053623D01*
X147805401Y-87037147D01*
X147825107Y-87022532D01*
X147846150Y-87009920D01*
X147868329Y-86999430D01*
X147891428Y-86991165D01*
X147915227Y-86985204D01*
X147939495Y-86981604D01*
X147963999Y-86980400D01*
X148634001Y-86980400D01*
X148658505Y-86981604D01*
G37*
G36*
X146228901Y-89940641D02*
G01*
X146233755Y-89941361D01*
X146238514Y-89942553D01*
X146243134Y-89944206D01*
X146247570Y-89946304D01*
X146251779Y-89948827D01*
X146255720Y-89951749D01*
X146259355Y-89955045D01*
X146262651Y-89958680D01*
X146265573Y-89962621D01*
X146268096Y-89966830D01*
X146270194Y-89971266D01*
X146271847Y-89975886D01*
X146273039Y-89980645D01*
X146273759Y-89985499D01*
X146274000Y-89990400D01*
X146274000Y-90590400D01*
X146273759Y-90595301D01*
X146273039Y-90600155D01*
X146271847Y-90604914D01*
X146270194Y-90609534D01*
X146268096Y-90613970D01*
X146265573Y-90618179D01*
X146262651Y-90622120D01*
X146259355Y-90625755D01*
X146255720Y-90629051D01*
X146251779Y-90631973D01*
X146247570Y-90634496D01*
X146243134Y-90636594D01*
X146238514Y-90638247D01*
X146233755Y-90639439D01*
X146228901Y-90640159D01*
X146224000Y-90640400D01*
X146124000Y-90640400D01*
X146119099Y-90640159D01*
X146114245Y-90639439D01*
X146109486Y-90638247D01*
X146104866Y-90636594D01*
X146100430Y-90634496D01*
X146096221Y-90631973D01*
X146092280Y-90629051D01*
X146088645Y-90625755D01*
X146085349Y-90622120D01*
X146082427Y-90618179D01*
X146079904Y-90613970D01*
X146077806Y-90609534D01*
X146076153Y-90604914D01*
X146074961Y-90600155D01*
X146074241Y-90595301D01*
X146074000Y-90590400D01*
X146074000Y-89990400D01*
X146074241Y-89985499D01*
X146074961Y-89980645D01*
X146076153Y-89975886D01*
X146077806Y-89971266D01*
X146079904Y-89966830D01*
X146082427Y-89962621D01*
X146085349Y-89958680D01*
X146088645Y-89955045D01*
X146092280Y-89951749D01*
X146096221Y-89948827D01*
X146100430Y-89946304D01*
X146104866Y-89944206D01*
X146109486Y-89942553D01*
X146114245Y-89941361D01*
X146119099Y-89940641D01*
X146124000Y-89940400D01*
X146224000Y-89940400D01*
X146228901Y-89940641D01*
G37*
G36*
X146628901Y-89940641D02*
G01*
X146633755Y-89941361D01*
X146638514Y-89942553D01*
X146643134Y-89944206D01*
X146647570Y-89946304D01*
X146651779Y-89948827D01*
X146655720Y-89951749D01*
X146659355Y-89955045D01*
X146662651Y-89958680D01*
X146665573Y-89962621D01*
X146668096Y-89966830D01*
X146670194Y-89971266D01*
X146671847Y-89975886D01*
X146673039Y-89980645D01*
X146673759Y-89985499D01*
X146674000Y-89990400D01*
X146674000Y-90590400D01*
X146673759Y-90595301D01*
X146673039Y-90600155D01*
X146671847Y-90604914D01*
X146670194Y-90609534D01*
X146668096Y-90613970D01*
X146665573Y-90618179D01*
X146662651Y-90622120D01*
X146659355Y-90625755D01*
X146655720Y-90629051D01*
X146651779Y-90631973D01*
X146647570Y-90634496D01*
X146643134Y-90636594D01*
X146638514Y-90638247D01*
X146633755Y-90639439D01*
X146628901Y-90640159D01*
X146624000Y-90640400D01*
X146524000Y-90640400D01*
X146519099Y-90640159D01*
X146514245Y-90639439D01*
X146509486Y-90638247D01*
X146504866Y-90636594D01*
X146500430Y-90634496D01*
X146496221Y-90631973D01*
X146492280Y-90629051D01*
X146488645Y-90625755D01*
X146485349Y-90622120D01*
X146482427Y-90618179D01*
X146479904Y-90613970D01*
X146477806Y-90609534D01*
X146476153Y-90604914D01*
X146474961Y-90600155D01*
X146474241Y-90595301D01*
X146474000Y-90590400D01*
X146474000Y-89990400D01*
X146474241Y-89985499D01*
X146474961Y-89980645D01*
X146476153Y-89975886D01*
X146477806Y-89971266D01*
X146479904Y-89966830D01*
X146482427Y-89962621D01*
X146485349Y-89958680D01*
X146488645Y-89955045D01*
X146492280Y-89951749D01*
X146496221Y-89948827D01*
X146500430Y-89946304D01*
X146504866Y-89944206D01*
X146509486Y-89942553D01*
X146514245Y-89941361D01*
X146519099Y-89940641D01*
X146524000Y-89940400D01*
X146624000Y-89940400D01*
X146628901Y-89940641D01*
G37*
G36*
X147028901Y-89940641D02*
G01*
X147033755Y-89941361D01*
X147038514Y-89942553D01*
X147043134Y-89944206D01*
X147047570Y-89946304D01*
X147051779Y-89948827D01*
X147055720Y-89951749D01*
X147059355Y-89955045D01*
X147062651Y-89958680D01*
X147065573Y-89962621D01*
X147068096Y-89966830D01*
X147070194Y-89971266D01*
X147071847Y-89975886D01*
X147073039Y-89980645D01*
X147073759Y-89985499D01*
X147074000Y-89990400D01*
X147074000Y-90590400D01*
X147073759Y-90595301D01*
X147073039Y-90600155D01*
X147071847Y-90604914D01*
X147070194Y-90609534D01*
X147068096Y-90613970D01*
X147065573Y-90618179D01*
X147062651Y-90622120D01*
X147059355Y-90625755D01*
X147055720Y-90629051D01*
X147051779Y-90631973D01*
X147047570Y-90634496D01*
X147043134Y-90636594D01*
X147038514Y-90638247D01*
X147033755Y-90639439D01*
X147028901Y-90640159D01*
X147024000Y-90640400D01*
X146924000Y-90640400D01*
X146919099Y-90640159D01*
X146914245Y-90639439D01*
X146909486Y-90638247D01*
X146904866Y-90636594D01*
X146900430Y-90634496D01*
X146896221Y-90631973D01*
X146892280Y-90629051D01*
X146888645Y-90625755D01*
X146885349Y-90622120D01*
X146882427Y-90618179D01*
X146879904Y-90613970D01*
X146877806Y-90609534D01*
X146876153Y-90604914D01*
X146874961Y-90600155D01*
X146874241Y-90595301D01*
X146874000Y-90590400D01*
X146874000Y-89990400D01*
X146874241Y-89985499D01*
X146874961Y-89980645D01*
X146876153Y-89975886D01*
X146877806Y-89971266D01*
X146879904Y-89966830D01*
X146882427Y-89962621D01*
X146885349Y-89958680D01*
X146888645Y-89955045D01*
X146892280Y-89951749D01*
X146896221Y-89948827D01*
X146900430Y-89946304D01*
X146904866Y-89944206D01*
X146909486Y-89942553D01*
X146914245Y-89941361D01*
X146919099Y-89940641D01*
X146924000Y-89940400D01*
X147024000Y-89940400D01*
X147028901Y-89940641D01*
G37*
G36*
X147428901Y-89940641D02*
G01*
X147433755Y-89941361D01*
X147438514Y-89942553D01*
X147443134Y-89944206D01*
X147447570Y-89946304D01*
X147451779Y-89948827D01*
X147455720Y-89951749D01*
X147459355Y-89955045D01*
X147462651Y-89958680D01*
X147465573Y-89962621D01*
X147468096Y-89966830D01*
X147470194Y-89971266D01*
X147471847Y-89975886D01*
X147473039Y-89980645D01*
X147473759Y-89985499D01*
X147474000Y-89990400D01*
X147474000Y-90590400D01*
X147473759Y-90595301D01*
X147473039Y-90600155D01*
X147471847Y-90604914D01*
X147470194Y-90609534D01*
X147468096Y-90613970D01*
X147465573Y-90618179D01*
X147462651Y-90622120D01*
X147459355Y-90625755D01*
X147455720Y-90629051D01*
X147451779Y-90631973D01*
X147447570Y-90634496D01*
X147443134Y-90636594D01*
X147438514Y-90638247D01*
X147433755Y-90639439D01*
X147428901Y-90640159D01*
X147424000Y-90640400D01*
X147324000Y-90640400D01*
X147319099Y-90640159D01*
X147314245Y-90639439D01*
X147309486Y-90638247D01*
X147304866Y-90636594D01*
X147300430Y-90634496D01*
X147296221Y-90631973D01*
X147292280Y-90629051D01*
X147288645Y-90625755D01*
X147285349Y-90622120D01*
X147282427Y-90618179D01*
X147279904Y-90613970D01*
X147277806Y-90609534D01*
X147276153Y-90604914D01*
X147274961Y-90600155D01*
X147274241Y-90595301D01*
X147274000Y-90590400D01*
X147274000Y-89990400D01*
X147274241Y-89985499D01*
X147274961Y-89980645D01*
X147276153Y-89975886D01*
X147277806Y-89971266D01*
X147279904Y-89966830D01*
X147282427Y-89962621D01*
X147285349Y-89958680D01*
X147288645Y-89955045D01*
X147292280Y-89951749D01*
X147296221Y-89948827D01*
X147300430Y-89946304D01*
X147304866Y-89944206D01*
X147309486Y-89942553D01*
X147314245Y-89941361D01*
X147319099Y-89940641D01*
X147324000Y-89940400D01*
X147424000Y-89940400D01*
X147428901Y-89940641D01*
G37*
G36*
X147828901Y-89940641D02*
G01*
X147833755Y-89941361D01*
X147838514Y-89942553D01*
X147843134Y-89944206D01*
X147847570Y-89946304D01*
X147851779Y-89948827D01*
X147855720Y-89951749D01*
X147859355Y-89955045D01*
X147862651Y-89958680D01*
X147865573Y-89962621D01*
X147868096Y-89966830D01*
X147870194Y-89971266D01*
X147871847Y-89975886D01*
X147873039Y-89980645D01*
X147873759Y-89985499D01*
X147874000Y-89990400D01*
X147874000Y-90590400D01*
X147873759Y-90595301D01*
X147873039Y-90600155D01*
X147871847Y-90604914D01*
X147870194Y-90609534D01*
X147868096Y-90613970D01*
X147865573Y-90618179D01*
X147862651Y-90622120D01*
X147859355Y-90625755D01*
X147855720Y-90629051D01*
X147851779Y-90631973D01*
X147847570Y-90634496D01*
X147843134Y-90636594D01*
X147838514Y-90638247D01*
X147833755Y-90639439D01*
X147828901Y-90640159D01*
X147824000Y-90640400D01*
X147724000Y-90640400D01*
X147719099Y-90640159D01*
X147714245Y-90639439D01*
X147709486Y-90638247D01*
X147704866Y-90636594D01*
X147700430Y-90634496D01*
X147696221Y-90631973D01*
X147692280Y-90629051D01*
X147688645Y-90625755D01*
X147685349Y-90622120D01*
X147682427Y-90618179D01*
X147679904Y-90613970D01*
X147677806Y-90609534D01*
X147676153Y-90604914D01*
X147674961Y-90600155D01*
X147674241Y-90595301D01*
X147674000Y-90590400D01*
X147674000Y-89990400D01*
X147674241Y-89985499D01*
X147674961Y-89980645D01*
X147676153Y-89975886D01*
X147677806Y-89971266D01*
X147679904Y-89966830D01*
X147682427Y-89962621D01*
X147685349Y-89958680D01*
X147688645Y-89955045D01*
X147692280Y-89951749D01*
X147696221Y-89948827D01*
X147700430Y-89946304D01*
X147704866Y-89944206D01*
X147709486Y-89942553D01*
X147714245Y-89941361D01*
X147719099Y-89940641D01*
X147724000Y-89940400D01*
X147824000Y-89940400D01*
X147828901Y-89940641D01*
G37*
G36*
X148228901Y-89940641D02*
G01*
X148233755Y-89941361D01*
X148238514Y-89942553D01*
X148243134Y-89944206D01*
X148247570Y-89946304D01*
X148251779Y-89948827D01*
X148255720Y-89951749D01*
X148259355Y-89955045D01*
X148262651Y-89958680D01*
X148265573Y-89962621D01*
X148268096Y-89966830D01*
X148270194Y-89971266D01*
X148271847Y-89975886D01*
X148273039Y-89980645D01*
X148273759Y-89985499D01*
X148274000Y-89990400D01*
X148274000Y-90590400D01*
X148273759Y-90595301D01*
X148273039Y-90600155D01*
X148271847Y-90604914D01*
X148270194Y-90609534D01*
X148268096Y-90613970D01*
X148265573Y-90618179D01*
X148262651Y-90622120D01*
X148259355Y-90625755D01*
X148255720Y-90629051D01*
X148251779Y-90631973D01*
X148247570Y-90634496D01*
X148243134Y-90636594D01*
X148238514Y-90638247D01*
X148233755Y-90639439D01*
X148228901Y-90640159D01*
X148224000Y-90640400D01*
X148124000Y-90640400D01*
X148119099Y-90640159D01*
X148114245Y-90639439D01*
X148109486Y-90638247D01*
X148104866Y-90636594D01*
X148100430Y-90634496D01*
X148096221Y-90631973D01*
X148092280Y-90629051D01*
X148088645Y-90625755D01*
X148085349Y-90622120D01*
X148082427Y-90618179D01*
X148079904Y-90613970D01*
X148077806Y-90609534D01*
X148076153Y-90604914D01*
X148074961Y-90600155D01*
X148074241Y-90595301D01*
X148074000Y-90590400D01*
X148074000Y-89990400D01*
X148074241Y-89985499D01*
X148074961Y-89980645D01*
X148076153Y-89975886D01*
X148077806Y-89971266D01*
X148079904Y-89966830D01*
X148082427Y-89962621D01*
X148085349Y-89958680D01*
X148088645Y-89955045D01*
X148092280Y-89951749D01*
X148096221Y-89948827D01*
X148100430Y-89946304D01*
X148104866Y-89944206D01*
X148109486Y-89942553D01*
X148114245Y-89941361D01*
X148119099Y-89940641D01*
X148124000Y-89940400D01*
X148224000Y-89940400D01*
X148228901Y-89940641D01*
G37*
G36*
X148628901Y-89940641D02*
G01*
X148633755Y-89941361D01*
X148638514Y-89942553D01*
X148643134Y-89944206D01*
X148647570Y-89946304D01*
X148651779Y-89948827D01*
X148655720Y-89951749D01*
X148659355Y-89955045D01*
X148662651Y-89958680D01*
X148665573Y-89962621D01*
X148668096Y-89966830D01*
X148670194Y-89971266D01*
X148671847Y-89975886D01*
X148673039Y-89980645D01*
X148673759Y-89985499D01*
X148674000Y-89990400D01*
X148674000Y-90590400D01*
X148673759Y-90595301D01*
X148673039Y-90600155D01*
X148671847Y-90604914D01*
X148670194Y-90609534D01*
X148668096Y-90613970D01*
X148665573Y-90618179D01*
X148662651Y-90622120D01*
X148659355Y-90625755D01*
X148655720Y-90629051D01*
X148651779Y-90631973D01*
X148647570Y-90634496D01*
X148643134Y-90636594D01*
X148638514Y-90638247D01*
X148633755Y-90639439D01*
X148628901Y-90640159D01*
X148624000Y-90640400D01*
X148524000Y-90640400D01*
X148519099Y-90640159D01*
X148514245Y-90639439D01*
X148509486Y-90638247D01*
X148504866Y-90636594D01*
X148500430Y-90634496D01*
X148496221Y-90631973D01*
X148492280Y-90629051D01*
X148488645Y-90625755D01*
X148485349Y-90622120D01*
X148482427Y-90618179D01*
X148479904Y-90613970D01*
X148477806Y-90609534D01*
X148476153Y-90604914D01*
X148474961Y-90600155D01*
X148474241Y-90595301D01*
X148474000Y-90590400D01*
X148474000Y-89990400D01*
X148474241Y-89985499D01*
X148474961Y-89980645D01*
X148476153Y-89975886D01*
X148477806Y-89971266D01*
X148479904Y-89966830D01*
X148482427Y-89962621D01*
X148485349Y-89958680D01*
X148488645Y-89955045D01*
X148492280Y-89951749D01*
X148496221Y-89948827D01*
X148500430Y-89946304D01*
X148504866Y-89944206D01*
X148509486Y-89942553D01*
X148514245Y-89941361D01*
X148519099Y-89940641D01*
X148524000Y-89940400D01*
X148624000Y-89940400D01*
X148628901Y-89940641D01*
G37*
G36*
X149028901Y-89940641D02*
G01*
X149033755Y-89941361D01*
X149038514Y-89942553D01*
X149043134Y-89944206D01*
X149047570Y-89946304D01*
X149051779Y-89948827D01*
X149055720Y-89951749D01*
X149059355Y-89955045D01*
X149062651Y-89958680D01*
X149065573Y-89962621D01*
X149068096Y-89966830D01*
X149070194Y-89971266D01*
X149071847Y-89975886D01*
X149073039Y-89980645D01*
X149073759Y-89985499D01*
X149074000Y-89990400D01*
X149074000Y-90590400D01*
X149073759Y-90595301D01*
X149073039Y-90600155D01*
X149071847Y-90604914D01*
X149070194Y-90609534D01*
X149068096Y-90613970D01*
X149065573Y-90618179D01*
X149062651Y-90622120D01*
X149059355Y-90625755D01*
X149055720Y-90629051D01*
X149051779Y-90631973D01*
X149047570Y-90634496D01*
X149043134Y-90636594D01*
X149038514Y-90638247D01*
X149033755Y-90639439D01*
X149028901Y-90640159D01*
X149024000Y-90640400D01*
X148924000Y-90640400D01*
X148919099Y-90640159D01*
X148914245Y-90639439D01*
X148909486Y-90638247D01*
X148904866Y-90636594D01*
X148900430Y-90634496D01*
X148896221Y-90631973D01*
X148892280Y-90629051D01*
X148888645Y-90625755D01*
X148885349Y-90622120D01*
X148882427Y-90618179D01*
X148879904Y-90613970D01*
X148877806Y-90609534D01*
X148876153Y-90604914D01*
X148874961Y-90600155D01*
X148874241Y-90595301D01*
X148874000Y-90590400D01*
X148874000Y-89990400D01*
X148874241Y-89985499D01*
X148874961Y-89980645D01*
X148876153Y-89975886D01*
X148877806Y-89971266D01*
X148879904Y-89966830D01*
X148882427Y-89962621D01*
X148885349Y-89958680D01*
X148888645Y-89955045D01*
X148892280Y-89951749D01*
X148896221Y-89948827D01*
X148900430Y-89946304D01*
X148904866Y-89944206D01*
X148909486Y-89942553D01*
X148914245Y-89941361D01*
X148919099Y-89940641D01*
X148924000Y-89940400D01*
X149024000Y-89940400D01*
X149028901Y-89940641D01*
G37*
G36*
X149878901Y-89590641D02*
G01*
X149883755Y-89591361D01*
X149888514Y-89592553D01*
X149893134Y-89594206D01*
X149897570Y-89596304D01*
X149901779Y-89598827D01*
X149905720Y-89601749D01*
X149909355Y-89605045D01*
X149912651Y-89608680D01*
X149915573Y-89612621D01*
X149918096Y-89616830D01*
X149920194Y-89621266D01*
X149921847Y-89625886D01*
X149923039Y-89630645D01*
X149923759Y-89635499D01*
X149924000Y-89640400D01*
X149924000Y-89740400D01*
X149923759Y-89745301D01*
X149923039Y-89750155D01*
X149921847Y-89754914D01*
X149920194Y-89759534D01*
X149918096Y-89763970D01*
X149915573Y-89768179D01*
X149912651Y-89772120D01*
X149909355Y-89775755D01*
X149905720Y-89779051D01*
X149901779Y-89781973D01*
X149897570Y-89784496D01*
X149893134Y-89786594D01*
X149888514Y-89788247D01*
X149883755Y-89789439D01*
X149878901Y-89790159D01*
X149874000Y-89790400D01*
X149274000Y-89790400D01*
X149269099Y-89790159D01*
X149264245Y-89789439D01*
X149259486Y-89788247D01*
X149254866Y-89786594D01*
X149250430Y-89784496D01*
X149246221Y-89781973D01*
X149242280Y-89779051D01*
X149238645Y-89775755D01*
X149235349Y-89772120D01*
X149232427Y-89768179D01*
X149229904Y-89763970D01*
X149227806Y-89759534D01*
X149226153Y-89754914D01*
X149224961Y-89750155D01*
X149224241Y-89745301D01*
X149224000Y-89740400D01*
X149224000Y-89640400D01*
X149224241Y-89635499D01*
X149224961Y-89630645D01*
X149226153Y-89625886D01*
X149227806Y-89621266D01*
X149229904Y-89616830D01*
X149232427Y-89612621D01*
X149235349Y-89608680D01*
X149238645Y-89605045D01*
X149242280Y-89601749D01*
X149246221Y-89598827D01*
X149250430Y-89596304D01*
X149254866Y-89594206D01*
X149259486Y-89592553D01*
X149264245Y-89591361D01*
X149269099Y-89590641D01*
X149274000Y-89590400D01*
X149874000Y-89590400D01*
X149878901Y-89590641D01*
G37*
G36*
X149878901Y-89190641D02*
G01*
X149883755Y-89191361D01*
X149888514Y-89192553D01*
X149893134Y-89194206D01*
X149897570Y-89196304D01*
X149901779Y-89198827D01*
X149905720Y-89201749D01*
X149909355Y-89205045D01*
X149912651Y-89208680D01*
X149915573Y-89212621D01*
X149918096Y-89216830D01*
X149920194Y-89221266D01*
X149921847Y-89225886D01*
X149923039Y-89230645D01*
X149923759Y-89235499D01*
X149924000Y-89240400D01*
X149924000Y-89340400D01*
X149923759Y-89345301D01*
X149923039Y-89350155D01*
X149921847Y-89354914D01*
X149920194Y-89359534D01*
X149918096Y-89363970D01*
X149915573Y-89368179D01*
X149912651Y-89372120D01*
X149909355Y-89375755D01*
X149905720Y-89379051D01*
X149901779Y-89381973D01*
X149897570Y-89384496D01*
X149893134Y-89386594D01*
X149888514Y-89388247D01*
X149883755Y-89389439D01*
X149878901Y-89390159D01*
X149874000Y-89390400D01*
X149274000Y-89390400D01*
X149269099Y-89390159D01*
X149264245Y-89389439D01*
X149259486Y-89388247D01*
X149254866Y-89386594D01*
X149250430Y-89384496D01*
X149246221Y-89381973D01*
X149242280Y-89379051D01*
X149238645Y-89375755D01*
X149235349Y-89372120D01*
X149232427Y-89368179D01*
X149229904Y-89363970D01*
X149227806Y-89359534D01*
X149226153Y-89354914D01*
X149224961Y-89350155D01*
X149224241Y-89345301D01*
X149224000Y-89340400D01*
X149224000Y-89240400D01*
X149224241Y-89235499D01*
X149224961Y-89230645D01*
X149226153Y-89225886D01*
X149227806Y-89221266D01*
X149229904Y-89216830D01*
X149232427Y-89212621D01*
X149235349Y-89208680D01*
X149238645Y-89205045D01*
X149242280Y-89201749D01*
X149246221Y-89198827D01*
X149250430Y-89196304D01*
X149254866Y-89194206D01*
X149259486Y-89192553D01*
X149264245Y-89191361D01*
X149269099Y-89190641D01*
X149274000Y-89190400D01*
X149874000Y-89190400D01*
X149878901Y-89190641D01*
G37*
G36*
X149878901Y-88790641D02*
G01*
X149883755Y-88791361D01*
X149888514Y-88792553D01*
X149893134Y-88794206D01*
X149897570Y-88796304D01*
X149901779Y-88798827D01*
X149905720Y-88801749D01*
X149909355Y-88805045D01*
X149912651Y-88808680D01*
X149915573Y-88812621D01*
X149918096Y-88816830D01*
X149920194Y-88821266D01*
X149921847Y-88825886D01*
X149923039Y-88830645D01*
X149923759Y-88835499D01*
X149924000Y-88840400D01*
X149924000Y-88940400D01*
X149923759Y-88945301D01*
X149923039Y-88950155D01*
X149921847Y-88954914D01*
X149920194Y-88959534D01*
X149918096Y-88963970D01*
X149915573Y-88968179D01*
X149912651Y-88972120D01*
X149909355Y-88975755D01*
X149905720Y-88979051D01*
X149901779Y-88981973D01*
X149897570Y-88984496D01*
X149893134Y-88986594D01*
X149888514Y-88988247D01*
X149883755Y-88989439D01*
X149878901Y-88990159D01*
X149874000Y-88990400D01*
X149274000Y-88990400D01*
X149269099Y-88990159D01*
X149264245Y-88989439D01*
X149259486Y-88988247D01*
X149254866Y-88986594D01*
X149250430Y-88984496D01*
X149246221Y-88981973D01*
X149242280Y-88979051D01*
X149238645Y-88975755D01*
X149235349Y-88972120D01*
X149232427Y-88968179D01*
X149229904Y-88963970D01*
X149227806Y-88959534D01*
X149226153Y-88954914D01*
X149224961Y-88950155D01*
X149224241Y-88945301D01*
X149224000Y-88940400D01*
X149224000Y-88840400D01*
X149224241Y-88835499D01*
X149224961Y-88830645D01*
X149226153Y-88825886D01*
X149227806Y-88821266D01*
X149229904Y-88816830D01*
X149232427Y-88812621D01*
X149235349Y-88808680D01*
X149238645Y-88805045D01*
X149242280Y-88801749D01*
X149246221Y-88798827D01*
X149250430Y-88796304D01*
X149254866Y-88794206D01*
X149259486Y-88792553D01*
X149264245Y-88791361D01*
X149269099Y-88790641D01*
X149274000Y-88790400D01*
X149874000Y-88790400D01*
X149878901Y-88790641D01*
G37*
G36*
X149878901Y-88390641D02*
G01*
X149883755Y-88391361D01*
X149888514Y-88392553D01*
X149893134Y-88394206D01*
X149897570Y-88396304D01*
X149901779Y-88398827D01*
X149905720Y-88401749D01*
X149909355Y-88405045D01*
X149912651Y-88408680D01*
X149915573Y-88412621D01*
X149918096Y-88416830D01*
X149920194Y-88421266D01*
X149921847Y-88425886D01*
X149923039Y-88430645D01*
X149923759Y-88435499D01*
X149924000Y-88440400D01*
X149924000Y-88540400D01*
X149923759Y-88545301D01*
X149923039Y-88550155D01*
X149921847Y-88554914D01*
X149920194Y-88559534D01*
X149918096Y-88563970D01*
X149915573Y-88568179D01*
X149912651Y-88572120D01*
X149909355Y-88575755D01*
X149905720Y-88579051D01*
X149901779Y-88581973D01*
X149897570Y-88584496D01*
X149893134Y-88586594D01*
X149888514Y-88588247D01*
X149883755Y-88589439D01*
X149878901Y-88590159D01*
X149874000Y-88590400D01*
X149274000Y-88590400D01*
X149269099Y-88590159D01*
X149264245Y-88589439D01*
X149259486Y-88588247D01*
X149254866Y-88586594D01*
X149250430Y-88584496D01*
X149246221Y-88581973D01*
X149242280Y-88579051D01*
X149238645Y-88575755D01*
X149235349Y-88572120D01*
X149232427Y-88568179D01*
X149229904Y-88563970D01*
X149227806Y-88559534D01*
X149226153Y-88554914D01*
X149224961Y-88550155D01*
X149224241Y-88545301D01*
X149224000Y-88540400D01*
X149224000Y-88440400D01*
X149224241Y-88435499D01*
X149224961Y-88430645D01*
X149226153Y-88425886D01*
X149227806Y-88421266D01*
X149229904Y-88416830D01*
X149232427Y-88412621D01*
X149235349Y-88408680D01*
X149238645Y-88405045D01*
X149242280Y-88401749D01*
X149246221Y-88398827D01*
X149250430Y-88396304D01*
X149254866Y-88394206D01*
X149259486Y-88392553D01*
X149264245Y-88391361D01*
X149269099Y-88390641D01*
X149274000Y-88390400D01*
X149874000Y-88390400D01*
X149878901Y-88390641D01*
G37*
G36*
X149878901Y-87990641D02*
G01*
X149883755Y-87991361D01*
X149888514Y-87992553D01*
X149893134Y-87994206D01*
X149897570Y-87996304D01*
X149901779Y-87998827D01*
X149905720Y-88001749D01*
X149909355Y-88005045D01*
X149912651Y-88008680D01*
X149915573Y-88012621D01*
X149918096Y-88016830D01*
X149920194Y-88021266D01*
X149921847Y-88025886D01*
X149923039Y-88030645D01*
X149923759Y-88035499D01*
X149924000Y-88040400D01*
X149924000Y-88140400D01*
X149923759Y-88145301D01*
X149923039Y-88150155D01*
X149921847Y-88154914D01*
X149920194Y-88159534D01*
X149918096Y-88163970D01*
X149915573Y-88168179D01*
X149912651Y-88172120D01*
X149909355Y-88175755D01*
X149905720Y-88179051D01*
X149901779Y-88181973D01*
X149897570Y-88184496D01*
X149893134Y-88186594D01*
X149888514Y-88188247D01*
X149883755Y-88189439D01*
X149878901Y-88190159D01*
X149874000Y-88190400D01*
X149274000Y-88190400D01*
X149269099Y-88190159D01*
X149264245Y-88189439D01*
X149259486Y-88188247D01*
X149254866Y-88186594D01*
X149250430Y-88184496D01*
X149246221Y-88181973D01*
X149242280Y-88179051D01*
X149238645Y-88175755D01*
X149235349Y-88172120D01*
X149232427Y-88168179D01*
X149229904Y-88163970D01*
X149227806Y-88159534D01*
X149226153Y-88154914D01*
X149224961Y-88150155D01*
X149224241Y-88145301D01*
X149224000Y-88140400D01*
X149224000Y-88040400D01*
X149224241Y-88035499D01*
X149224961Y-88030645D01*
X149226153Y-88025886D01*
X149227806Y-88021266D01*
X149229904Y-88016830D01*
X149232427Y-88012621D01*
X149235349Y-88008680D01*
X149238645Y-88005045D01*
X149242280Y-88001749D01*
X149246221Y-87998827D01*
X149250430Y-87996304D01*
X149254866Y-87994206D01*
X149259486Y-87992553D01*
X149264245Y-87991361D01*
X149269099Y-87990641D01*
X149274000Y-87990400D01*
X149874000Y-87990400D01*
X149878901Y-87990641D01*
G37*
G36*
X149878901Y-87590641D02*
G01*
X149883755Y-87591361D01*
X149888514Y-87592553D01*
X149893134Y-87594206D01*
X149897570Y-87596304D01*
X149901779Y-87598827D01*
X149905720Y-87601749D01*
X149909355Y-87605045D01*
X149912651Y-87608680D01*
X149915573Y-87612621D01*
X149918096Y-87616830D01*
X149920194Y-87621266D01*
X149921847Y-87625886D01*
X149923039Y-87630645D01*
X149923759Y-87635499D01*
X149924000Y-87640400D01*
X149924000Y-87740400D01*
X149923759Y-87745301D01*
X149923039Y-87750155D01*
X149921847Y-87754914D01*
X149920194Y-87759534D01*
X149918096Y-87763970D01*
X149915573Y-87768179D01*
X149912651Y-87772120D01*
X149909355Y-87775755D01*
X149905720Y-87779051D01*
X149901779Y-87781973D01*
X149897570Y-87784496D01*
X149893134Y-87786594D01*
X149888514Y-87788247D01*
X149883755Y-87789439D01*
X149878901Y-87790159D01*
X149874000Y-87790400D01*
X149274000Y-87790400D01*
X149269099Y-87790159D01*
X149264245Y-87789439D01*
X149259486Y-87788247D01*
X149254866Y-87786594D01*
X149250430Y-87784496D01*
X149246221Y-87781973D01*
X149242280Y-87779051D01*
X149238645Y-87775755D01*
X149235349Y-87772120D01*
X149232427Y-87768179D01*
X149229904Y-87763970D01*
X149227806Y-87759534D01*
X149226153Y-87754914D01*
X149224961Y-87750155D01*
X149224241Y-87745301D01*
X149224000Y-87740400D01*
X149224000Y-87640400D01*
X149224241Y-87635499D01*
X149224961Y-87630645D01*
X149226153Y-87625886D01*
X149227806Y-87621266D01*
X149229904Y-87616830D01*
X149232427Y-87612621D01*
X149235349Y-87608680D01*
X149238645Y-87605045D01*
X149242280Y-87601749D01*
X149246221Y-87598827D01*
X149250430Y-87596304D01*
X149254866Y-87594206D01*
X149259486Y-87592553D01*
X149264245Y-87591361D01*
X149269099Y-87590641D01*
X149274000Y-87590400D01*
X149874000Y-87590400D01*
X149878901Y-87590641D01*
G37*
G36*
X149878901Y-87190641D02*
G01*
X149883755Y-87191361D01*
X149888514Y-87192553D01*
X149893134Y-87194206D01*
X149897570Y-87196304D01*
X149901779Y-87198827D01*
X149905720Y-87201749D01*
X149909355Y-87205045D01*
X149912651Y-87208680D01*
X149915573Y-87212621D01*
X149918096Y-87216830D01*
X149920194Y-87221266D01*
X149921847Y-87225886D01*
X149923039Y-87230645D01*
X149923759Y-87235499D01*
X149924000Y-87240400D01*
X149924000Y-87340400D01*
X149923759Y-87345301D01*
X149923039Y-87350155D01*
X149921847Y-87354914D01*
X149920194Y-87359534D01*
X149918096Y-87363970D01*
X149915573Y-87368179D01*
X149912651Y-87372120D01*
X149909355Y-87375755D01*
X149905720Y-87379051D01*
X149901779Y-87381973D01*
X149897570Y-87384496D01*
X149893134Y-87386594D01*
X149888514Y-87388247D01*
X149883755Y-87389439D01*
X149878901Y-87390159D01*
X149874000Y-87390400D01*
X149274000Y-87390400D01*
X149269099Y-87390159D01*
X149264245Y-87389439D01*
X149259486Y-87388247D01*
X149254866Y-87386594D01*
X149250430Y-87384496D01*
X149246221Y-87381973D01*
X149242280Y-87379051D01*
X149238645Y-87375755D01*
X149235349Y-87372120D01*
X149232427Y-87368179D01*
X149229904Y-87363970D01*
X149227806Y-87359534D01*
X149226153Y-87354914D01*
X149224961Y-87350155D01*
X149224241Y-87345301D01*
X149224000Y-87340400D01*
X149224000Y-87240400D01*
X149224241Y-87235499D01*
X149224961Y-87230645D01*
X149226153Y-87225886D01*
X149227806Y-87221266D01*
X149229904Y-87216830D01*
X149232427Y-87212621D01*
X149235349Y-87208680D01*
X149238645Y-87205045D01*
X149242280Y-87201749D01*
X149246221Y-87198827D01*
X149250430Y-87196304D01*
X149254866Y-87194206D01*
X149259486Y-87192553D01*
X149264245Y-87191361D01*
X149269099Y-87190641D01*
X149274000Y-87190400D01*
X149874000Y-87190400D01*
X149878901Y-87190641D01*
G37*
G36*
X149878901Y-86790641D02*
G01*
X149883755Y-86791361D01*
X149888514Y-86792553D01*
X149893134Y-86794206D01*
X149897570Y-86796304D01*
X149901779Y-86798827D01*
X149905720Y-86801749D01*
X149909355Y-86805045D01*
X149912651Y-86808680D01*
X149915573Y-86812621D01*
X149918096Y-86816830D01*
X149920194Y-86821266D01*
X149921847Y-86825886D01*
X149923039Y-86830645D01*
X149923759Y-86835499D01*
X149924000Y-86840400D01*
X149924000Y-86940400D01*
X149923759Y-86945301D01*
X149923039Y-86950155D01*
X149921847Y-86954914D01*
X149920194Y-86959534D01*
X149918096Y-86963970D01*
X149915573Y-86968179D01*
X149912651Y-86972120D01*
X149909355Y-86975755D01*
X149905720Y-86979051D01*
X149901779Y-86981973D01*
X149897570Y-86984496D01*
X149893134Y-86986594D01*
X149888514Y-86988247D01*
X149883755Y-86989439D01*
X149878901Y-86990159D01*
X149874000Y-86990400D01*
X149274000Y-86990400D01*
X149269099Y-86990159D01*
X149264245Y-86989439D01*
X149259486Y-86988247D01*
X149254866Y-86986594D01*
X149250430Y-86984496D01*
X149246221Y-86981973D01*
X149242280Y-86979051D01*
X149238645Y-86975755D01*
X149235349Y-86972120D01*
X149232427Y-86968179D01*
X149229904Y-86963970D01*
X149227806Y-86959534D01*
X149226153Y-86954914D01*
X149224961Y-86950155D01*
X149224241Y-86945301D01*
X149224000Y-86940400D01*
X149224000Y-86840400D01*
X149224241Y-86835499D01*
X149224961Y-86830645D01*
X149226153Y-86825886D01*
X149227806Y-86821266D01*
X149229904Y-86816830D01*
X149232427Y-86812621D01*
X149235349Y-86808680D01*
X149238645Y-86805045D01*
X149242280Y-86801749D01*
X149246221Y-86798827D01*
X149250430Y-86796304D01*
X149254866Y-86794206D01*
X149259486Y-86792553D01*
X149264245Y-86791361D01*
X149269099Y-86790641D01*
X149274000Y-86790400D01*
X149874000Y-86790400D01*
X149878901Y-86790641D01*
G37*
G36*
X149028901Y-85940641D02*
G01*
X149033755Y-85941361D01*
X149038514Y-85942553D01*
X149043134Y-85944206D01*
X149047570Y-85946304D01*
X149051779Y-85948827D01*
X149055720Y-85951749D01*
X149059355Y-85955045D01*
X149062651Y-85958680D01*
X149065573Y-85962621D01*
X149068096Y-85966830D01*
X149070194Y-85971266D01*
X149071847Y-85975886D01*
X149073039Y-85980645D01*
X149073759Y-85985499D01*
X149074000Y-85990400D01*
X149074000Y-86590400D01*
X149073759Y-86595301D01*
X149073039Y-86600155D01*
X149071847Y-86604914D01*
X149070194Y-86609534D01*
X149068096Y-86613970D01*
X149065573Y-86618179D01*
X149062651Y-86622120D01*
X149059355Y-86625755D01*
X149055720Y-86629051D01*
X149051779Y-86631973D01*
X149047570Y-86634496D01*
X149043134Y-86636594D01*
X149038514Y-86638247D01*
X149033755Y-86639439D01*
X149028901Y-86640159D01*
X149024000Y-86640400D01*
X148924000Y-86640400D01*
X148919099Y-86640159D01*
X148914245Y-86639439D01*
X148909486Y-86638247D01*
X148904866Y-86636594D01*
X148900430Y-86634496D01*
X148896221Y-86631973D01*
X148892280Y-86629051D01*
X148888645Y-86625755D01*
X148885349Y-86622120D01*
X148882427Y-86618179D01*
X148879904Y-86613970D01*
X148877806Y-86609534D01*
X148876153Y-86604914D01*
X148874961Y-86600155D01*
X148874241Y-86595301D01*
X148874000Y-86590400D01*
X148874000Y-85990400D01*
X148874241Y-85985499D01*
X148874961Y-85980645D01*
X148876153Y-85975886D01*
X148877806Y-85971266D01*
X148879904Y-85966830D01*
X148882427Y-85962621D01*
X148885349Y-85958680D01*
X148888645Y-85955045D01*
X148892280Y-85951749D01*
X148896221Y-85948827D01*
X148900430Y-85946304D01*
X148904866Y-85944206D01*
X148909486Y-85942553D01*
X148914245Y-85941361D01*
X148919099Y-85940641D01*
X148924000Y-85940400D01*
X149024000Y-85940400D01*
X149028901Y-85940641D01*
G37*
G36*
X148628901Y-85940641D02*
G01*
X148633755Y-85941361D01*
X148638514Y-85942553D01*
X148643134Y-85944206D01*
X148647570Y-85946304D01*
X148651779Y-85948827D01*
X148655720Y-85951749D01*
X148659355Y-85955045D01*
X148662651Y-85958680D01*
X148665573Y-85962621D01*
X148668096Y-85966830D01*
X148670194Y-85971266D01*
X148671847Y-85975886D01*
X148673039Y-85980645D01*
X148673759Y-85985499D01*
X148674000Y-85990400D01*
X148674000Y-86590400D01*
X148673759Y-86595301D01*
X148673039Y-86600155D01*
X148671847Y-86604914D01*
X148670194Y-86609534D01*
X148668096Y-86613970D01*
X148665573Y-86618179D01*
X148662651Y-86622120D01*
X148659355Y-86625755D01*
X148655720Y-86629051D01*
X148651779Y-86631973D01*
X148647570Y-86634496D01*
X148643134Y-86636594D01*
X148638514Y-86638247D01*
X148633755Y-86639439D01*
X148628901Y-86640159D01*
X148624000Y-86640400D01*
X148524000Y-86640400D01*
X148519099Y-86640159D01*
X148514245Y-86639439D01*
X148509486Y-86638247D01*
X148504866Y-86636594D01*
X148500430Y-86634496D01*
X148496221Y-86631973D01*
X148492280Y-86629051D01*
X148488645Y-86625755D01*
X148485349Y-86622120D01*
X148482427Y-86618179D01*
X148479904Y-86613970D01*
X148477806Y-86609534D01*
X148476153Y-86604914D01*
X148474961Y-86600155D01*
X148474241Y-86595301D01*
X148474000Y-86590400D01*
X148474000Y-85990400D01*
X148474241Y-85985499D01*
X148474961Y-85980645D01*
X148476153Y-85975886D01*
X148477806Y-85971266D01*
X148479904Y-85966830D01*
X148482427Y-85962621D01*
X148485349Y-85958680D01*
X148488645Y-85955045D01*
X148492280Y-85951749D01*
X148496221Y-85948827D01*
X148500430Y-85946304D01*
X148504866Y-85944206D01*
X148509486Y-85942553D01*
X148514245Y-85941361D01*
X148519099Y-85940641D01*
X148524000Y-85940400D01*
X148624000Y-85940400D01*
X148628901Y-85940641D01*
G37*
G36*
X148228901Y-85940641D02*
G01*
X148233755Y-85941361D01*
X148238514Y-85942553D01*
X148243134Y-85944206D01*
X148247570Y-85946304D01*
X148251779Y-85948827D01*
X148255720Y-85951749D01*
X148259355Y-85955045D01*
X148262651Y-85958680D01*
X148265573Y-85962621D01*
X148268096Y-85966830D01*
X148270194Y-85971266D01*
X148271847Y-85975886D01*
X148273039Y-85980645D01*
X148273759Y-85985499D01*
X148274000Y-85990400D01*
X148274000Y-86590400D01*
X148273759Y-86595301D01*
X148273039Y-86600155D01*
X148271847Y-86604914D01*
X148270194Y-86609534D01*
X148268096Y-86613970D01*
X148265573Y-86618179D01*
X148262651Y-86622120D01*
X148259355Y-86625755D01*
X148255720Y-86629051D01*
X148251779Y-86631973D01*
X148247570Y-86634496D01*
X148243134Y-86636594D01*
X148238514Y-86638247D01*
X148233755Y-86639439D01*
X148228901Y-86640159D01*
X148224000Y-86640400D01*
X148124000Y-86640400D01*
X148119099Y-86640159D01*
X148114245Y-86639439D01*
X148109486Y-86638247D01*
X148104866Y-86636594D01*
X148100430Y-86634496D01*
X148096221Y-86631973D01*
X148092280Y-86629051D01*
X148088645Y-86625755D01*
X148085349Y-86622120D01*
X148082427Y-86618179D01*
X148079904Y-86613970D01*
X148077806Y-86609534D01*
X148076153Y-86604914D01*
X148074961Y-86600155D01*
X148074241Y-86595301D01*
X148074000Y-86590400D01*
X148074000Y-85990400D01*
X148074241Y-85985499D01*
X148074961Y-85980645D01*
X148076153Y-85975886D01*
X148077806Y-85971266D01*
X148079904Y-85966830D01*
X148082427Y-85962621D01*
X148085349Y-85958680D01*
X148088645Y-85955045D01*
X148092280Y-85951749D01*
X148096221Y-85948827D01*
X148100430Y-85946304D01*
X148104866Y-85944206D01*
X148109486Y-85942553D01*
X148114245Y-85941361D01*
X148119099Y-85940641D01*
X148124000Y-85940400D01*
X148224000Y-85940400D01*
X148228901Y-85940641D01*
G37*
G36*
X147828901Y-85940641D02*
G01*
X147833755Y-85941361D01*
X147838514Y-85942553D01*
X147843134Y-85944206D01*
X147847570Y-85946304D01*
X147851779Y-85948827D01*
X147855720Y-85951749D01*
X147859355Y-85955045D01*
X147862651Y-85958680D01*
X147865573Y-85962621D01*
X147868096Y-85966830D01*
X147870194Y-85971266D01*
X147871847Y-85975886D01*
X147873039Y-85980645D01*
X147873759Y-85985499D01*
X147874000Y-85990400D01*
X147874000Y-86590400D01*
X147873759Y-86595301D01*
X147873039Y-86600155D01*
X147871847Y-86604914D01*
X147870194Y-86609534D01*
X147868096Y-86613970D01*
X147865573Y-86618179D01*
X147862651Y-86622120D01*
X147859355Y-86625755D01*
X147855720Y-86629051D01*
X147851779Y-86631973D01*
X147847570Y-86634496D01*
X147843134Y-86636594D01*
X147838514Y-86638247D01*
X147833755Y-86639439D01*
X147828901Y-86640159D01*
X147824000Y-86640400D01*
X147724000Y-86640400D01*
X147719099Y-86640159D01*
X147714245Y-86639439D01*
X147709486Y-86638247D01*
X147704866Y-86636594D01*
X147700430Y-86634496D01*
X147696221Y-86631973D01*
X147692280Y-86629051D01*
X147688645Y-86625755D01*
X147685349Y-86622120D01*
X147682427Y-86618179D01*
X147679904Y-86613970D01*
X147677806Y-86609534D01*
X147676153Y-86604914D01*
X147674961Y-86600155D01*
X147674241Y-86595301D01*
X147674000Y-86590400D01*
X147674000Y-85990400D01*
X147674241Y-85985499D01*
X147674961Y-85980645D01*
X147676153Y-85975886D01*
X147677806Y-85971266D01*
X147679904Y-85966830D01*
X147682427Y-85962621D01*
X147685349Y-85958680D01*
X147688645Y-85955045D01*
X147692280Y-85951749D01*
X147696221Y-85948827D01*
X147700430Y-85946304D01*
X147704866Y-85944206D01*
X147709486Y-85942553D01*
X147714245Y-85941361D01*
X147719099Y-85940641D01*
X147724000Y-85940400D01*
X147824000Y-85940400D01*
X147828901Y-85940641D01*
G37*
G36*
X147428901Y-85940641D02*
G01*
X147433755Y-85941361D01*
X147438514Y-85942553D01*
X147443134Y-85944206D01*
X147447570Y-85946304D01*
X147451779Y-85948827D01*
X147455720Y-85951749D01*
X147459355Y-85955045D01*
X147462651Y-85958680D01*
X147465573Y-85962621D01*
X147468096Y-85966830D01*
X147470194Y-85971266D01*
X147471847Y-85975886D01*
X147473039Y-85980645D01*
X147473759Y-85985499D01*
X147474000Y-85990400D01*
X147474000Y-86590400D01*
X147473759Y-86595301D01*
X147473039Y-86600155D01*
X147471847Y-86604914D01*
X147470194Y-86609534D01*
X147468096Y-86613970D01*
X147465573Y-86618179D01*
X147462651Y-86622120D01*
X147459355Y-86625755D01*
X147455720Y-86629051D01*
X147451779Y-86631973D01*
X147447570Y-86634496D01*
X147443134Y-86636594D01*
X147438514Y-86638247D01*
X147433755Y-86639439D01*
X147428901Y-86640159D01*
X147424000Y-86640400D01*
X147324000Y-86640400D01*
X147319099Y-86640159D01*
X147314245Y-86639439D01*
X147309486Y-86638247D01*
X147304866Y-86636594D01*
X147300430Y-86634496D01*
X147296221Y-86631973D01*
X147292280Y-86629051D01*
X147288645Y-86625755D01*
X147285349Y-86622120D01*
X147282427Y-86618179D01*
X147279904Y-86613970D01*
X147277806Y-86609534D01*
X147276153Y-86604914D01*
X147274961Y-86600155D01*
X147274241Y-86595301D01*
X147274000Y-86590400D01*
X147274000Y-85990400D01*
X147274241Y-85985499D01*
X147274961Y-85980645D01*
X147276153Y-85975886D01*
X147277806Y-85971266D01*
X147279904Y-85966830D01*
X147282427Y-85962621D01*
X147285349Y-85958680D01*
X147288645Y-85955045D01*
X147292280Y-85951749D01*
X147296221Y-85948827D01*
X147300430Y-85946304D01*
X147304866Y-85944206D01*
X147309486Y-85942553D01*
X147314245Y-85941361D01*
X147319099Y-85940641D01*
X147324000Y-85940400D01*
X147424000Y-85940400D01*
X147428901Y-85940641D01*
G37*
G36*
X147028901Y-85940641D02*
G01*
X147033755Y-85941361D01*
X147038514Y-85942553D01*
X147043134Y-85944206D01*
X147047570Y-85946304D01*
X147051779Y-85948827D01*
X147055720Y-85951749D01*
X147059355Y-85955045D01*
X147062651Y-85958680D01*
X147065573Y-85962621D01*
X147068096Y-85966830D01*
X147070194Y-85971266D01*
X147071847Y-85975886D01*
X147073039Y-85980645D01*
X147073759Y-85985499D01*
X147074000Y-85990400D01*
X147074000Y-86590400D01*
X147073759Y-86595301D01*
X147073039Y-86600155D01*
X147071847Y-86604914D01*
X147070194Y-86609534D01*
X147068096Y-86613970D01*
X147065573Y-86618179D01*
X147062651Y-86622120D01*
X147059355Y-86625755D01*
X147055720Y-86629051D01*
X147051779Y-86631973D01*
X147047570Y-86634496D01*
X147043134Y-86636594D01*
X147038514Y-86638247D01*
X147033755Y-86639439D01*
X147028901Y-86640159D01*
X147024000Y-86640400D01*
X146924000Y-86640400D01*
X146919099Y-86640159D01*
X146914245Y-86639439D01*
X146909486Y-86638247D01*
X146904866Y-86636594D01*
X146900430Y-86634496D01*
X146896221Y-86631973D01*
X146892280Y-86629051D01*
X146888645Y-86625755D01*
X146885349Y-86622120D01*
X146882427Y-86618179D01*
X146879904Y-86613970D01*
X146877806Y-86609534D01*
X146876153Y-86604914D01*
X146874961Y-86600155D01*
X146874241Y-86595301D01*
X146874000Y-86590400D01*
X146874000Y-85990400D01*
X146874241Y-85985499D01*
X146874961Y-85980645D01*
X146876153Y-85975886D01*
X146877806Y-85971266D01*
X146879904Y-85966830D01*
X146882427Y-85962621D01*
X146885349Y-85958680D01*
X146888645Y-85955045D01*
X146892280Y-85951749D01*
X146896221Y-85948827D01*
X146900430Y-85946304D01*
X146904866Y-85944206D01*
X146909486Y-85942553D01*
X146914245Y-85941361D01*
X146919099Y-85940641D01*
X146924000Y-85940400D01*
X147024000Y-85940400D01*
X147028901Y-85940641D01*
G37*
G36*
X146628901Y-85940641D02*
G01*
X146633755Y-85941361D01*
X146638514Y-85942553D01*
X146643134Y-85944206D01*
X146647570Y-85946304D01*
X146651779Y-85948827D01*
X146655720Y-85951749D01*
X146659355Y-85955045D01*
X146662651Y-85958680D01*
X146665573Y-85962621D01*
X146668096Y-85966830D01*
X146670194Y-85971266D01*
X146671847Y-85975886D01*
X146673039Y-85980645D01*
X146673759Y-85985499D01*
X146674000Y-85990400D01*
X146674000Y-86590400D01*
X146673759Y-86595301D01*
X146673039Y-86600155D01*
X146671847Y-86604914D01*
X146670194Y-86609534D01*
X146668096Y-86613970D01*
X146665573Y-86618179D01*
X146662651Y-86622120D01*
X146659355Y-86625755D01*
X146655720Y-86629051D01*
X146651779Y-86631973D01*
X146647570Y-86634496D01*
X146643134Y-86636594D01*
X146638514Y-86638247D01*
X146633755Y-86639439D01*
X146628901Y-86640159D01*
X146624000Y-86640400D01*
X146524000Y-86640400D01*
X146519099Y-86640159D01*
X146514245Y-86639439D01*
X146509486Y-86638247D01*
X146504866Y-86636594D01*
X146500430Y-86634496D01*
X146496221Y-86631973D01*
X146492280Y-86629051D01*
X146488645Y-86625755D01*
X146485349Y-86622120D01*
X146482427Y-86618179D01*
X146479904Y-86613970D01*
X146477806Y-86609534D01*
X146476153Y-86604914D01*
X146474961Y-86600155D01*
X146474241Y-86595301D01*
X146474000Y-86590400D01*
X146474000Y-85990400D01*
X146474241Y-85985499D01*
X146474961Y-85980645D01*
X146476153Y-85975886D01*
X146477806Y-85971266D01*
X146479904Y-85966830D01*
X146482427Y-85962621D01*
X146485349Y-85958680D01*
X146488645Y-85955045D01*
X146492280Y-85951749D01*
X146496221Y-85948827D01*
X146500430Y-85946304D01*
X146504866Y-85944206D01*
X146509486Y-85942553D01*
X146514245Y-85941361D01*
X146519099Y-85940641D01*
X146524000Y-85940400D01*
X146624000Y-85940400D01*
X146628901Y-85940641D01*
G37*
G36*
X146228901Y-85940641D02*
G01*
X146233755Y-85941361D01*
X146238514Y-85942553D01*
X146243134Y-85944206D01*
X146247570Y-85946304D01*
X146251779Y-85948827D01*
X146255720Y-85951749D01*
X146259355Y-85955045D01*
X146262651Y-85958680D01*
X146265573Y-85962621D01*
X146268096Y-85966830D01*
X146270194Y-85971266D01*
X146271847Y-85975886D01*
X146273039Y-85980645D01*
X146273759Y-85985499D01*
X146274000Y-85990400D01*
X146274000Y-86590400D01*
X146273759Y-86595301D01*
X146273039Y-86600155D01*
X146271847Y-86604914D01*
X146270194Y-86609534D01*
X146268096Y-86613970D01*
X146265573Y-86618179D01*
X146262651Y-86622120D01*
X146259355Y-86625755D01*
X146255720Y-86629051D01*
X146251779Y-86631973D01*
X146247570Y-86634496D01*
X146243134Y-86636594D01*
X146238514Y-86638247D01*
X146233755Y-86639439D01*
X146228901Y-86640159D01*
X146224000Y-86640400D01*
X146124000Y-86640400D01*
X146119099Y-86640159D01*
X146114245Y-86639439D01*
X146109486Y-86638247D01*
X146104866Y-86636594D01*
X146100430Y-86634496D01*
X146096221Y-86631973D01*
X146092280Y-86629051D01*
X146088645Y-86625755D01*
X146085349Y-86622120D01*
X146082427Y-86618179D01*
X146079904Y-86613970D01*
X146077806Y-86609534D01*
X146076153Y-86604914D01*
X146074961Y-86600155D01*
X146074241Y-86595301D01*
X146074000Y-86590400D01*
X146074000Y-85990400D01*
X146074241Y-85985499D01*
X146074961Y-85980645D01*
X146076153Y-85975886D01*
X146077806Y-85971266D01*
X146079904Y-85966830D01*
X146082427Y-85962621D01*
X146085349Y-85958680D01*
X146088645Y-85955045D01*
X146092280Y-85951749D01*
X146096221Y-85948827D01*
X146100430Y-85946304D01*
X146104866Y-85944206D01*
X146109486Y-85942553D01*
X146114245Y-85941361D01*
X146119099Y-85940641D01*
X146124000Y-85940400D01*
X146224000Y-85940400D01*
X146228901Y-85940641D01*
G37*
G36*
X145878901Y-86790641D02*
G01*
X145883755Y-86791361D01*
X145888514Y-86792553D01*
X145893134Y-86794206D01*
X145897570Y-86796304D01*
X145901779Y-86798827D01*
X145905720Y-86801749D01*
X145909355Y-86805045D01*
X145912651Y-86808680D01*
X145915573Y-86812621D01*
X145918096Y-86816830D01*
X145920194Y-86821266D01*
X145921847Y-86825886D01*
X145923039Y-86830645D01*
X145923759Y-86835499D01*
X145924000Y-86840400D01*
X145924000Y-86940400D01*
X145923759Y-86945301D01*
X145923039Y-86950155D01*
X145921847Y-86954914D01*
X145920194Y-86959534D01*
X145918096Y-86963970D01*
X145915573Y-86968179D01*
X145912651Y-86972120D01*
X145909355Y-86975755D01*
X145905720Y-86979051D01*
X145901779Y-86981973D01*
X145897570Y-86984496D01*
X145893134Y-86986594D01*
X145888514Y-86988247D01*
X145883755Y-86989439D01*
X145878901Y-86990159D01*
X145874000Y-86990400D01*
X145274000Y-86990400D01*
X145269099Y-86990159D01*
X145264245Y-86989439D01*
X145259486Y-86988247D01*
X145254866Y-86986594D01*
X145250430Y-86984496D01*
X145246221Y-86981973D01*
X145242280Y-86979051D01*
X145238645Y-86975755D01*
X145235349Y-86972120D01*
X145232427Y-86968179D01*
X145229904Y-86963970D01*
X145227806Y-86959534D01*
X145226153Y-86954914D01*
X145224961Y-86950155D01*
X145224241Y-86945301D01*
X145224000Y-86940400D01*
X145224000Y-86840400D01*
X145224241Y-86835499D01*
X145224961Y-86830645D01*
X145226153Y-86825886D01*
X145227806Y-86821266D01*
X145229904Y-86816830D01*
X145232427Y-86812621D01*
X145235349Y-86808680D01*
X145238645Y-86805045D01*
X145242280Y-86801749D01*
X145246221Y-86798827D01*
X145250430Y-86796304D01*
X145254866Y-86794206D01*
X145259486Y-86792553D01*
X145264245Y-86791361D01*
X145269099Y-86790641D01*
X145274000Y-86790400D01*
X145874000Y-86790400D01*
X145878901Y-86790641D01*
G37*
G36*
X145878901Y-87190641D02*
G01*
X145883755Y-87191361D01*
X145888514Y-87192553D01*
X145893134Y-87194206D01*
X145897570Y-87196304D01*
X145901779Y-87198827D01*
X145905720Y-87201749D01*
X145909355Y-87205045D01*
X145912651Y-87208680D01*
X145915573Y-87212621D01*
X145918096Y-87216830D01*
X145920194Y-87221266D01*
X145921847Y-87225886D01*
X145923039Y-87230645D01*
X145923759Y-87235499D01*
X145924000Y-87240400D01*
X145924000Y-87340400D01*
X145923759Y-87345301D01*
X145923039Y-87350155D01*
X145921847Y-87354914D01*
X145920194Y-87359534D01*
X145918096Y-87363970D01*
X145915573Y-87368179D01*
X145912651Y-87372120D01*
X145909355Y-87375755D01*
X145905720Y-87379051D01*
X145901779Y-87381973D01*
X145897570Y-87384496D01*
X145893134Y-87386594D01*
X145888514Y-87388247D01*
X145883755Y-87389439D01*
X145878901Y-87390159D01*
X145874000Y-87390400D01*
X145274000Y-87390400D01*
X145269099Y-87390159D01*
X145264245Y-87389439D01*
X145259486Y-87388247D01*
X145254866Y-87386594D01*
X145250430Y-87384496D01*
X145246221Y-87381973D01*
X145242280Y-87379051D01*
X145238645Y-87375755D01*
X145235349Y-87372120D01*
X145232427Y-87368179D01*
X145229904Y-87363970D01*
X145227806Y-87359534D01*
X145226153Y-87354914D01*
X145224961Y-87350155D01*
X145224241Y-87345301D01*
X145224000Y-87340400D01*
X145224000Y-87240400D01*
X145224241Y-87235499D01*
X145224961Y-87230645D01*
X145226153Y-87225886D01*
X145227806Y-87221266D01*
X145229904Y-87216830D01*
X145232427Y-87212621D01*
X145235349Y-87208680D01*
X145238645Y-87205045D01*
X145242280Y-87201749D01*
X145246221Y-87198827D01*
X145250430Y-87196304D01*
X145254866Y-87194206D01*
X145259486Y-87192553D01*
X145264245Y-87191361D01*
X145269099Y-87190641D01*
X145274000Y-87190400D01*
X145874000Y-87190400D01*
X145878901Y-87190641D01*
G37*
G36*
X145878901Y-87590641D02*
G01*
X145883755Y-87591361D01*
X145888514Y-87592553D01*
X145893134Y-87594206D01*
X145897570Y-87596304D01*
X145901779Y-87598827D01*
X145905720Y-87601749D01*
X145909355Y-87605045D01*
X145912651Y-87608680D01*
X145915573Y-87612621D01*
X145918096Y-87616830D01*
X145920194Y-87621266D01*
X145921847Y-87625886D01*
X145923039Y-87630645D01*
X145923759Y-87635499D01*
X145924000Y-87640400D01*
X145924000Y-87740400D01*
X145923759Y-87745301D01*
X145923039Y-87750155D01*
X145921847Y-87754914D01*
X145920194Y-87759534D01*
X145918096Y-87763970D01*
X145915573Y-87768179D01*
X145912651Y-87772120D01*
X145909355Y-87775755D01*
X145905720Y-87779051D01*
X145901779Y-87781973D01*
X145897570Y-87784496D01*
X145893134Y-87786594D01*
X145888514Y-87788247D01*
X145883755Y-87789439D01*
X145878901Y-87790159D01*
X145874000Y-87790400D01*
X145274000Y-87790400D01*
X145269099Y-87790159D01*
X145264245Y-87789439D01*
X145259486Y-87788247D01*
X145254866Y-87786594D01*
X145250430Y-87784496D01*
X145246221Y-87781973D01*
X145242280Y-87779051D01*
X145238645Y-87775755D01*
X145235349Y-87772120D01*
X145232427Y-87768179D01*
X145229904Y-87763970D01*
X145227806Y-87759534D01*
X145226153Y-87754914D01*
X145224961Y-87750155D01*
X145224241Y-87745301D01*
X145224000Y-87740400D01*
X145224000Y-87640400D01*
X145224241Y-87635499D01*
X145224961Y-87630645D01*
X145226153Y-87625886D01*
X145227806Y-87621266D01*
X145229904Y-87616830D01*
X145232427Y-87612621D01*
X145235349Y-87608680D01*
X145238645Y-87605045D01*
X145242280Y-87601749D01*
X145246221Y-87598827D01*
X145250430Y-87596304D01*
X145254866Y-87594206D01*
X145259486Y-87592553D01*
X145264245Y-87591361D01*
X145269099Y-87590641D01*
X145274000Y-87590400D01*
X145874000Y-87590400D01*
X145878901Y-87590641D01*
G37*
G36*
X145878901Y-87990641D02*
G01*
X145883755Y-87991361D01*
X145888514Y-87992553D01*
X145893134Y-87994206D01*
X145897570Y-87996304D01*
X145901779Y-87998827D01*
X145905720Y-88001749D01*
X145909355Y-88005045D01*
X145912651Y-88008680D01*
X145915573Y-88012621D01*
X145918096Y-88016830D01*
X145920194Y-88021266D01*
X145921847Y-88025886D01*
X145923039Y-88030645D01*
X145923759Y-88035499D01*
X145924000Y-88040400D01*
X145924000Y-88140400D01*
X145923759Y-88145301D01*
X145923039Y-88150155D01*
X145921847Y-88154914D01*
X145920194Y-88159534D01*
X145918096Y-88163970D01*
X145915573Y-88168179D01*
X145912651Y-88172120D01*
X145909355Y-88175755D01*
X145905720Y-88179051D01*
X145901779Y-88181973D01*
X145897570Y-88184496D01*
X145893134Y-88186594D01*
X145888514Y-88188247D01*
X145883755Y-88189439D01*
X145878901Y-88190159D01*
X145874000Y-88190400D01*
X145274000Y-88190400D01*
X145269099Y-88190159D01*
X145264245Y-88189439D01*
X145259486Y-88188247D01*
X145254866Y-88186594D01*
X145250430Y-88184496D01*
X145246221Y-88181973D01*
X145242280Y-88179051D01*
X145238645Y-88175755D01*
X145235349Y-88172120D01*
X145232427Y-88168179D01*
X145229904Y-88163970D01*
X145227806Y-88159534D01*
X145226153Y-88154914D01*
X145224961Y-88150155D01*
X145224241Y-88145301D01*
X145224000Y-88140400D01*
X145224000Y-88040400D01*
X145224241Y-88035499D01*
X145224961Y-88030645D01*
X145226153Y-88025886D01*
X145227806Y-88021266D01*
X145229904Y-88016830D01*
X145232427Y-88012621D01*
X145235349Y-88008680D01*
X145238645Y-88005045D01*
X145242280Y-88001749D01*
X145246221Y-87998827D01*
X145250430Y-87996304D01*
X145254866Y-87994206D01*
X145259486Y-87992553D01*
X145264245Y-87991361D01*
X145269099Y-87990641D01*
X145274000Y-87990400D01*
X145874000Y-87990400D01*
X145878901Y-87990641D01*
G37*
G36*
X145878901Y-88390641D02*
G01*
X145883755Y-88391361D01*
X145888514Y-88392553D01*
X145893134Y-88394206D01*
X145897570Y-88396304D01*
X145901779Y-88398827D01*
X145905720Y-88401749D01*
X145909355Y-88405045D01*
X145912651Y-88408680D01*
X145915573Y-88412621D01*
X145918096Y-88416830D01*
X145920194Y-88421266D01*
X145921847Y-88425886D01*
X145923039Y-88430645D01*
X145923759Y-88435499D01*
X145924000Y-88440400D01*
X145924000Y-88540400D01*
X145923759Y-88545301D01*
X145923039Y-88550155D01*
X145921847Y-88554914D01*
X145920194Y-88559534D01*
X145918096Y-88563970D01*
X145915573Y-88568179D01*
X145912651Y-88572120D01*
X145909355Y-88575755D01*
X145905720Y-88579051D01*
X145901779Y-88581973D01*
X145897570Y-88584496D01*
X145893134Y-88586594D01*
X145888514Y-88588247D01*
X145883755Y-88589439D01*
X145878901Y-88590159D01*
X145874000Y-88590400D01*
X145274000Y-88590400D01*
X145269099Y-88590159D01*
X145264245Y-88589439D01*
X145259486Y-88588247D01*
X145254866Y-88586594D01*
X145250430Y-88584496D01*
X145246221Y-88581973D01*
X145242280Y-88579051D01*
X145238645Y-88575755D01*
X145235349Y-88572120D01*
X145232427Y-88568179D01*
X145229904Y-88563970D01*
X145227806Y-88559534D01*
X145226153Y-88554914D01*
X145224961Y-88550155D01*
X145224241Y-88545301D01*
X145224000Y-88540400D01*
X145224000Y-88440400D01*
X145224241Y-88435499D01*
X145224961Y-88430645D01*
X145226153Y-88425886D01*
X145227806Y-88421266D01*
X145229904Y-88416830D01*
X145232427Y-88412621D01*
X145235349Y-88408680D01*
X145238645Y-88405045D01*
X145242280Y-88401749D01*
X145246221Y-88398827D01*
X145250430Y-88396304D01*
X145254866Y-88394206D01*
X145259486Y-88392553D01*
X145264245Y-88391361D01*
X145269099Y-88390641D01*
X145274000Y-88390400D01*
X145874000Y-88390400D01*
X145878901Y-88390641D01*
G37*
G36*
X145878901Y-88790641D02*
G01*
X145883755Y-88791361D01*
X145888514Y-88792553D01*
X145893134Y-88794206D01*
X145897570Y-88796304D01*
X145901779Y-88798827D01*
X145905720Y-88801749D01*
X145909355Y-88805045D01*
X145912651Y-88808680D01*
X145915573Y-88812621D01*
X145918096Y-88816830D01*
X145920194Y-88821266D01*
X145921847Y-88825886D01*
X145923039Y-88830645D01*
X145923759Y-88835499D01*
X145924000Y-88840400D01*
X145924000Y-88940400D01*
X145923759Y-88945301D01*
X145923039Y-88950155D01*
X145921847Y-88954914D01*
X145920194Y-88959534D01*
X145918096Y-88963970D01*
X145915573Y-88968179D01*
X145912651Y-88972120D01*
X145909355Y-88975755D01*
X145905720Y-88979051D01*
X145901779Y-88981973D01*
X145897570Y-88984496D01*
X145893134Y-88986594D01*
X145888514Y-88988247D01*
X145883755Y-88989439D01*
X145878901Y-88990159D01*
X145874000Y-88990400D01*
X145274000Y-88990400D01*
X145269099Y-88990159D01*
X145264245Y-88989439D01*
X145259486Y-88988247D01*
X145254866Y-88986594D01*
X145250430Y-88984496D01*
X145246221Y-88981973D01*
X145242280Y-88979051D01*
X145238645Y-88975755D01*
X145235349Y-88972120D01*
X145232427Y-88968179D01*
X145229904Y-88963970D01*
X145227806Y-88959534D01*
X145226153Y-88954914D01*
X145224961Y-88950155D01*
X145224241Y-88945301D01*
X145224000Y-88940400D01*
X145224000Y-88840400D01*
X145224241Y-88835499D01*
X145224961Y-88830645D01*
X145226153Y-88825886D01*
X145227806Y-88821266D01*
X145229904Y-88816830D01*
X145232427Y-88812621D01*
X145235349Y-88808680D01*
X145238645Y-88805045D01*
X145242280Y-88801749D01*
X145246221Y-88798827D01*
X145250430Y-88796304D01*
X145254866Y-88794206D01*
X145259486Y-88792553D01*
X145264245Y-88791361D01*
X145269099Y-88790641D01*
X145274000Y-88790400D01*
X145874000Y-88790400D01*
X145878901Y-88790641D01*
G37*
G36*
X145878901Y-89190641D02*
G01*
X145883755Y-89191361D01*
X145888514Y-89192553D01*
X145893134Y-89194206D01*
X145897570Y-89196304D01*
X145901779Y-89198827D01*
X145905720Y-89201749D01*
X145909355Y-89205045D01*
X145912651Y-89208680D01*
X145915573Y-89212621D01*
X145918096Y-89216830D01*
X145920194Y-89221266D01*
X145921847Y-89225886D01*
X145923039Y-89230645D01*
X145923759Y-89235499D01*
X145924000Y-89240400D01*
X145924000Y-89340400D01*
X145923759Y-89345301D01*
X145923039Y-89350155D01*
X145921847Y-89354914D01*
X145920194Y-89359534D01*
X145918096Y-89363970D01*
X145915573Y-89368179D01*
X145912651Y-89372120D01*
X145909355Y-89375755D01*
X145905720Y-89379051D01*
X145901779Y-89381973D01*
X145897570Y-89384496D01*
X145893134Y-89386594D01*
X145888514Y-89388247D01*
X145883755Y-89389439D01*
X145878901Y-89390159D01*
X145874000Y-89390400D01*
X145274000Y-89390400D01*
X145269099Y-89390159D01*
X145264245Y-89389439D01*
X145259486Y-89388247D01*
X145254866Y-89386594D01*
X145250430Y-89384496D01*
X145246221Y-89381973D01*
X145242280Y-89379051D01*
X145238645Y-89375755D01*
X145235349Y-89372120D01*
X145232427Y-89368179D01*
X145229904Y-89363970D01*
X145227806Y-89359534D01*
X145226153Y-89354914D01*
X145224961Y-89350155D01*
X145224241Y-89345301D01*
X145224000Y-89340400D01*
X145224000Y-89240400D01*
X145224241Y-89235499D01*
X145224961Y-89230645D01*
X145226153Y-89225886D01*
X145227806Y-89221266D01*
X145229904Y-89216830D01*
X145232427Y-89212621D01*
X145235349Y-89208680D01*
X145238645Y-89205045D01*
X145242280Y-89201749D01*
X145246221Y-89198827D01*
X145250430Y-89196304D01*
X145254866Y-89194206D01*
X145259486Y-89192553D01*
X145264245Y-89191361D01*
X145269099Y-89190641D01*
X145274000Y-89190400D01*
X145874000Y-89190400D01*
X145878901Y-89190641D01*
G37*
G36*
X145878901Y-89590641D02*
G01*
X145883755Y-89591361D01*
X145888514Y-89592553D01*
X145893134Y-89594206D01*
X145897570Y-89596304D01*
X145901779Y-89598827D01*
X145905720Y-89601749D01*
X145909355Y-89605045D01*
X145912651Y-89608680D01*
X145915573Y-89612621D01*
X145918096Y-89616830D01*
X145920194Y-89621266D01*
X145921847Y-89625886D01*
X145923039Y-89630645D01*
X145923759Y-89635499D01*
X145924000Y-89640400D01*
X145924000Y-89740400D01*
X145923759Y-89745301D01*
X145923039Y-89750155D01*
X145921847Y-89754914D01*
X145920194Y-89759534D01*
X145918096Y-89763970D01*
X145915573Y-89768179D01*
X145912651Y-89772120D01*
X145909355Y-89775755D01*
X145905720Y-89779051D01*
X145901779Y-89781973D01*
X145897570Y-89784496D01*
X145893134Y-89786594D01*
X145888514Y-89788247D01*
X145883755Y-89789439D01*
X145878901Y-89790159D01*
X145874000Y-89790400D01*
X145274000Y-89790400D01*
X145269099Y-89790159D01*
X145264245Y-89789439D01*
X145259486Y-89788247D01*
X145254866Y-89786594D01*
X145250430Y-89784496D01*
X145246221Y-89781973D01*
X145242280Y-89779051D01*
X145238645Y-89775755D01*
X145235349Y-89772120D01*
X145232427Y-89768179D01*
X145229904Y-89763970D01*
X145227806Y-89759534D01*
X145226153Y-89754914D01*
X145224961Y-89750155D01*
X145224241Y-89745301D01*
X145224000Y-89740400D01*
X145224000Y-89640400D01*
X145224241Y-89635499D01*
X145224961Y-89630645D01*
X145226153Y-89625886D01*
X145227806Y-89621266D01*
X145229904Y-89616830D01*
X145232427Y-89612621D01*
X145235349Y-89608680D01*
X145238645Y-89605045D01*
X145242280Y-89601749D01*
X145246221Y-89598827D01*
X145250430Y-89596304D01*
X145254866Y-89594206D01*
X145259486Y-89592553D01*
X145264245Y-89591361D01*
X145269099Y-89590641D01*
X145274000Y-89590400D01*
X145874000Y-89590400D01*
X145878901Y-89590641D01*
G37*
G36*
X137488491Y-83358253D02*
G01*
X137509726Y-83361403D01*
X137530550Y-83366619D01*
X137550762Y-83373851D01*
X137570168Y-83383030D01*
X137588581Y-83394066D01*
X137605824Y-83406854D01*
X137621730Y-83421270D01*
X137636146Y-83437176D01*
X137648934Y-83454419D01*
X137659970Y-83472832D01*
X137669149Y-83492238D01*
X137676381Y-83512450D01*
X137681597Y-83533274D01*
X137684747Y-83554509D01*
X137685800Y-83575950D01*
X137685800Y-84013450D01*
X137684747Y-84034891D01*
X137681597Y-84056126D01*
X137676381Y-84076950D01*
X137669149Y-84097162D01*
X137659970Y-84116568D01*
X137648934Y-84134981D01*
X137636146Y-84152224D01*
X137621730Y-84168130D01*
X137605824Y-84182546D01*
X137588581Y-84195334D01*
X137570168Y-84206370D01*
X137550762Y-84215549D01*
X137530550Y-84222781D01*
X137509726Y-84227997D01*
X137488491Y-84231147D01*
X137467050Y-84232200D01*
X136954550Y-84232200D01*
X136933109Y-84231147D01*
X136911874Y-84227997D01*
X136891050Y-84222781D01*
X136870838Y-84215549D01*
X136851432Y-84206370D01*
X136833019Y-84195334D01*
X136815776Y-84182546D01*
X136799870Y-84168130D01*
X136785454Y-84152224D01*
X136772666Y-84134981D01*
X136761630Y-84116568D01*
X136752451Y-84097162D01*
X136745219Y-84076950D01*
X136740003Y-84056126D01*
X136736853Y-84034891D01*
X136735800Y-84013450D01*
X136735800Y-83575950D01*
X136736853Y-83554509D01*
X136740003Y-83533274D01*
X136745219Y-83512450D01*
X136752451Y-83492238D01*
X136761630Y-83472832D01*
X136772666Y-83454419D01*
X136785454Y-83437176D01*
X136799870Y-83421270D01*
X136815776Y-83406854D01*
X136833019Y-83394066D01*
X136851432Y-83383030D01*
X136870838Y-83373851D01*
X136891050Y-83366619D01*
X136911874Y-83361403D01*
X136933109Y-83358253D01*
X136954550Y-83357200D01*
X137467050Y-83357200D01*
X137488491Y-83358253D01*
G37*
G36*
X137488491Y-81783253D02*
G01*
X137509726Y-81786403D01*
X137530550Y-81791619D01*
X137550762Y-81798851D01*
X137570168Y-81808030D01*
X137588581Y-81819066D01*
X137605824Y-81831854D01*
X137621730Y-81846270D01*
X137636146Y-81862176D01*
X137648934Y-81879419D01*
X137659970Y-81897832D01*
X137669149Y-81917238D01*
X137676381Y-81937450D01*
X137681597Y-81958274D01*
X137684747Y-81979509D01*
X137685800Y-82000950D01*
X137685800Y-82438450D01*
X137684747Y-82459891D01*
X137681597Y-82481126D01*
X137676381Y-82501950D01*
X137669149Y-82522162D01*
X137659970Y-82541568D01*
X137648934Y-82559981D01*
X137636146Y-82577224D01*
X137621730Y-82593130D01*
X137605824Y-82607546D01*
X137588581Y-82620334D01*
X137570168Y-82631370D01*
X137550762Y-82640549D01*
X137530550Y-82647781D01*
X137509726Y-82652997D01*
X137488491Y-82656147D01*
X137467050Y-82657200D01*
X136954550Y-82657200D01*
X136933109Y-82656147D01*
X136911874Y-82652997D01*
X136891050Y-82647781D01*
X136870838Y-82640549D01*
X136851432Y-82631370D01*
X136833019Y-82620334D01*
X136815776Y-82607546D01*
X136799870Y-82593130D01*
X136785454Y-82577224D01*
X136772666Y-82559981D01*
X136761630Y-82541568D01*
X136752451Y-82522162D01*
X136745219Y-82501950D01*
X136740003Y-82481126D01*
X136736853Y-82459891D01*
X136735800Y-82438450D01*
X136735800Y-82000950D01*
X136736853Y-81979509D01*
X136740003Y-81958274D01*
X136745219Y-81937450D01*
X136752451Y-81917238D01*
X136761630Y-81897832D01*
X136772666Y-81879419D01*
X136785454Y-81862176D01*
X136799870Y-81846270D01*
X136815776Y-81831854D01*
X136833019Y-81819066D01*
X136851432Y-81808030D01*
X136870838Y-81798851D01*
X136891050Y-81791619D01*
X136911874Y-81786403D01*
X136933109Y-81783253D01*
X136954550Y-81782200D01*
X137467050Y-81782200D01*
X137488491Y-81783253D01*
G37*
G36*
X137488491Y-80183253D02*
G01*
X137509726Y-80186403D01*
X137530550Y-80191619D01*
X137550762Y-80198851D01*
X137570168Y-80208030D01*
X137588581Y-80219066D01*
X137605824Y-80231854D01*
X137621730Y-80246270D01*
X137636146Y-80262176D01*
X137648934Y-80279419D01*
X137659970Y-80297832D01*
X137669149Y-80317238D01*
X137676381Y-80337450D01*
X137681597Y-80358274D01*
X137684747Y-80379509D01*
X137685800Y-80400950D01*
X137685800Y-80838450D01*
X137684747Y-80859891D01*
X137681597Y-80881126D01*
X137676381Y-80901950D01*
X137669149Y-80922162D01*
X137659970Y-80941568D01*
X137648934Y-80959981D01*
X137636146Y-80977224D01*
X137621730Y-80993130D01*
X137605824Y-81007546D01*
X137588581Y-81020334D01*
X137570168Y-81031370D01*
X137550762Y-81040549D01*
X137530550Y-81047781D01*
X137509726Y-81052997D01*
X137488491Y-81056147D01*
X137467050Y-81057200D01*
X136954550Y-81057200D01*
X136933109Y-81056147D01*
X136911874Y-81052997D01*
X136891050Y-81047781D01*
X136870838Y-81040549D01*
X136851432Y-81031370D01*
X136833019Y-81020334D01*
X136815776Y-81007546D01*
X136799870Y-80993130D01*
X136785454Y-80977224D01*
X136772666Y-80959981D01*
X136761630Y-80941568D01*
X136752451Y-80922162D01*
X136745219Y-80901950D01*
X136740003Y-80881126D01*
X136736853Y-80859891D01*
X136735800Y-80838450D01*
X136735800Y-80400950D01*
X136736853Y-80379509D01*
X136740003Y-80358274D01*
X136745219Y-80337450D01*
X136752451Y-80317238D01*
X136761630Y-80297832D01*
X136772666Y-80279419D01*
X136785454Y-80262176D01*
X136799870Y-80246270D01*
X136815776Y-80231854D01*
X136833019Y-80219066D01*
X136851432Y-80208030D01*
X136870838Y-80198851D01*
X136891050Y-80191619D01*
X136911874Y-80186403D01*
X136933109Y-80183253D01*
X136954550Y-80182200D01*
X137467050Y-80182200D01*
X137488491Y-80183253D01*
G37*
G36*
X137488491Y-78608253D02*
G01*
X137509726Y-78611403D01*
X137530550Y-78616619D01*
X137550762Y-78623851D01*
X137570168Y-78633030D01*
X137588581Y-78644066D01*
X137605824Y-78656854D01*
X137621730Y-78671270D01*
X137636146Y-78687176D01*
X137648934Y-78704419D01*
X137659970Y-78722832D01*
X137669149Y-78742238D01*
X137676381Y-78762450D01*
X137681597Y-78783274D01*
X137684747Y-78804509D01*
X137685800Y-78825950D01*
X137685800Y-79263450D01*
X137684747Y-79284891D01*
X137681597Y-79306126D01*
X137676381Y-79326950D01*
X137669149Y-79347162D01*
X137659970Y-79366568D01*
X137648934Y-79384981D01*
X137636146Y-79402224D01*
X137621730Y-79418130D01*
X137605824Y-79432546D01*
X137588581Y-79445334D01*
X137570168Y-79456370D01*
X137550762Y-79465549D01*
X137530550Y-79472781D01*
X137509726Y-79477997D01*
X137488491Y-79481147D01*
X137467050Y-79482200D01*
X136954550Y-79482200D01*
X136933109Y-79481147D01*
X136911874Y-79477997D01*
X136891050Y-79472781D01*
X136870838Y-79465549D01*
X136851432Y-79456370D01*
X136833019Y-79445334D01*
X136815776Y-79432546D01*
X136799870Y-79418130D01*
X136785454Y-79402224D01*
X136772666Y-79384981D01*
X136761630Y-79366568D01*
X136752451Y-79347162D01*
X136745219Y-79326950D01*
X136740003Y-79306126D01*
X136736853Y-79284891D01*
X136735800Y-79263450D01*
X136735800Y-78825950D01*
X136736853Y-78804509D01*
X136740003Y-78783274D01*
X136745219Y-78762450D01*
X136752451Y-78742238D01*
X136761630Y-78722832D01*
X136772666Y-78704419D01*
X136785454Y-78687176D01*
X136799870Y-78671270D01*
X136815776Y-78656854D01*
X136833019Y-78644066D01*
X136851432Y-78633030D01*
X136870838Y-78623851D01*
X136891050Y-78616619D01*
X136911874Y-78611403D01*
X136933109Y-78608253D01*
X136954550Y-78607200D01*
X137467050Y-78607200D01*
X137488491Y-78608253D01*
G37*
G36*
X147318291Y-95220053D02*
G01*
X147339526Y-95223203D01*
X147360350Y-95228419D01*
X147380562Y-95235651D01*
X147399968Y-95244830D01*
X147418381Y-95255866D01*
X147435624Y-95268654D01*
X147451530Y-95283070D01*
X147465946Y-95298976D01*
X147478734Y-95316219D01*
X147489770Y-95334632D01*
X147498949Y-95354038D01*
X147506181Y-95374250D01*
X147511397Y-95395074D01*
X147514547Y-95416309D01*
X147515600Y-95437750D01*
X147515600Y-95875250D01*
X147514547Y-95896691D01*
X147511397Y-95917926D01*
X147506181Y-95938750D01*
X147498949Y-95958962D01*
X147489770Y-95978368D01*
X147478734Y-95996781D01*
X147465946Y-96014024D01*
X147451530Y-96029930D01*
X147435624Y-96044346D01*
X147418381Y-96057134D01*
X147399968Y-96068170D01*
X147380562Y-96077349D01*
X147360350Y-96084581D01*
X147339526Y-96089797D01*
X147318291Y-96092947D01*
X147296850Y-96094000D01*
X146784350Y-96094000D01*
X146762909Y-96092947D01*
X146741674Y-96089797D01*
X146720850Y-96084581D01*
X146700638Y-96077349D01*
X146681232Y-96068170D01*
X146662819Y-96057134D01*
X146645576Y-96044346D01*
X146629670Y-96029930D01*
X146615254Y-96014024D01*
X146602466Y-95996781D01*
X146591430Y-95978368D01*
X146582251Y-95958962D01*
X146575019Y-95938750D01*
X146569803Y-95917926D01*
X146566653Y-95896691D01*
X146565600Y-95875250D01*
X146565600Y-95437750D01*
X146566653Y-95416309D01*
X146569803Y-95395074D01*
X146575019Y-95374250D01*
X146582251Y-95354038D01*
X146591430Y-95334632D01*
X146602466Y-95316219D01*
X146615254Y-95298976D01*
X146629670Y-95283070D01*
X146645576Y-95268654D01*
X146662819Y-95255866D01*
X146681232Y-95244830D01*
X146700638Y-95235651D01*
X146720850Y-95228419D01*
X146741674Y-95223203D01*
X146762909Y-95220053D01*
X146784350Y-95219000D01*
X147296850Y-95219000D01*
X147318291Y-95220053D01*
G37*
G36*
X147318291Y-93645053D02*
G01*
X147339526Y-93648203D01*
X147360350Y-93653419D01*
X147380562Y-93660651D01*
X147399968Y-93669830D01*
X147418381Y-93680866D01*
X147435624Y-93693654D01*
X147451530Y-93708070D01*
X147465946Y-93723976D01*
X147478734Y-93741219D01*
X147489770Y-93759632D01*
X147498949Y-93779038D01*
X147506181Y-93799250D01*
X147511397Y-93820074D01*
X147514547Y-93841309D01*
X147515600Y-93862750D01*
X147515600Y-94300250D01*
X147514547Y-94321691D01*
X147511397Y-94342926D01*
X147506181Y-94363750D01*
X147498949Y-94383962D01*
X147489770Y-94403368D01*
X147478734Y-94421781D01*
X147465946Y-94439024D01*
X147451530Y-94454930D01*
X147435624Y-94469346D01*
X147418381Y-94482134D01*
X147399968Y-94493170D01*
X147380562Y-94502349D01*
X147360350Y-94509581D01*
X147339526Y-94514797D01*
X147318291Y-94517947D01*
X147296850Y-94519000D01*
X146784350Y-94519000D01*
X146762909Y-94517947D01*
X146741674Y-94514797D01*
X146720850Y-94509581D01*
X146700638Y-94502349D01*
X146681232Y-94493170D01*
X146662819Y-94482134D01*
X146645576Y-94469346D01*
X146629670Y-94454930D01*
X146615254Y-94439024D01*
X146602466Y-94421781D01*
X146591430Y-94403368D01*
X146582251Y-94383962D01*
X146575019Y-94363750D01*
X146569803Y-94342926D01*
X146566653Y-94321691D01*
X146565600Y-94300250D01*
X146565600Y-93862750D01*
X146566653Y-93841309D01*
X146569803Y-93820074D01*
X146575019Y-93799250D01*
X146582251Y-93779038D01*
X146591430Y-93759632D01*
X146602466Y-93741219D01*
X146615254Y-93723976D01*
X146629670Y-93708070D01*
X146645576Y-93693654D01*
X146662819Y-93680866D01*
X146681232Y-93669830D01*
X146700638Y-93660651D01*
X146720850Y-93653419D01*
X146741674Y-93648203D01*
X146762909Y-93645053D01*
X146784350Y-93644000D01*
X147296850Y-93644000D01*
X147318291Y-93645053D01*
G37*
G36*
X137640091Y-97661253D02*
G01*
X137661326Y-97664403D01*
X137682150Y-97669619D01*
X137702362Y-97676851D01*
X137721768Y-97686030D01*
X137740181Y-97697066D01*
X137757424Y-97709854D01*
X137773330Y-97724270D01*
X137787746Y-97740176D01*
X137800534Y-97757419D01*
X137811570Y-97775832D01*
X137820749Y-97795238D01*
X137827981Y-97815450D01*
X137833197Y-97836274D01*
X137836347Y-97857509D01*
X137837400Y-97878950D01*
X137837400Y-98391450D01*
X137836347Y-98412891D01*
X137833197Y-98434126D01*
X137827981Y-98454950D01*
X137820749Y-98475162D01*
X137811570Y-98494568D01*
X137800534Y-98512981D01*
X137787746Y-98530224D01*
X137773330Y-98546130D01*
X137757424Y-98560546D01*
X137740181Y-98573334D01*
X137721768Y-98584370D01*
X137702362Y-98593549D01*
X137682150Y-98600781D01*
X137661326Y-98605997D01*
X137640091Y-98609147D01*
X137618650Y-98610200D01*
X137181150Y-98610200D01*
X137159709Y-98609147D01*
X137138474Y-98605997D01*
X137117650Y-98600781D01*
X137097438Y-98593549D01*
X137078032Y-98584370D01*
X137059619Y-98573334D01*
X137042376Y-98560546D01*
X137026470Y-98546130D01*
X137012054Y-98530224D01*
X136999266Y-98512981D01*
X136988230Y-98494568D01*
X136979051Y-98475162D01*
X136971819Y-98454950D01*
X136966603Y-98434126D01*
X136963453Y-98412891D01*
X136962400Y-98391450D01*
X136962400Y-97878950D01*
X136963453Y-97857509D01*
X136966603Y-97836274D01*
X136971819Y-97815450D01*
X136979051Y-97795238D01*
X136988230Y-97775832D01*
X136999266Y-97757419D01*
X137012054Y-97740176D01*
X137026470Y-97724270D01*
X137042376Y-97709854D01*
X137059619Y-97697066D01*
X137078032Y-97686030D01*
X137097438Y-97676851D01*
X137117650Y-97669619D01*
X137138474Y-97664403D01*
X137159709Y-97661253D01*
X137181150Y-97660200D01*
X137618650Y-97660200D01*
X137640091Y-97661253D01*
G37*
G36*
X139215091Y-97661253D02*
G01*
X139236326Y-97664403D01*
X139257150Y-97669619D01*
X139277362Y-97676851D01*
X139296768Y-97686030D01*
X139315181Y-97697066D01*
X139332424Y-97709854D01*
X139348330Y-97724270D01*
X139362746Y-97740176D01*
X139375534Y-97757419D01*
X139386570Y-97775832D01*
X139395749Y-97795238D01*
X139402981Y-97815450D01*
X139408197Y-97836274D01*
X139411347Y-97857509D01*
X139412400Y-97878950D01*
X139412400Y-98391450D01*
X139411347Y-98412891D01*
X139408197Y-98434126D01*
X139402981Y-98454950D01*
X139395749Y-98475162D01*
X139386570Y-98494568D01*
X139375534Y-98512981D01*
X139362746Y-98530224D01*
X139348330Y-98546130D01*
X139332424Y-98560546D01*
X139315181Y-98573334D01*
X139296768Y-98584370D01*
X139277362Y-98593549D01*
X139257150Y-98600781D01*
X139236326Y-98605997D01*
X139215091Y-98609147D01*
X139193650Y-98610200D01*
X138756150Y-98610200D01*
X138734709Y-98609147D01*
X138713474Y-98605997D01*
X138692650Y-98600781D01*
X138672438Y-98593549D01*
X138653032Y-98584370D01*
X138634619Y-98573334D01*
X138617376Y-98560546D01*
X138601470Y-98546130D01*
X138587054Y-98530224D01*
X138574266Y-98512981D01*
X138563230Y-98494568D01*
X138554051Y-98475162D01*
X138546819Y-98454950D01*
X138541603Y-98434126D01*
X138538453Y-98412891D01*
X138537400Y-98391450D01*
X138537400Y-97878950D01*
X138538453Y-97857509D01*
X138541603Y-97836274D01*
X138546819Y-97815450D01*
X138554051Y-97795238D01*
X138563230Y-97775832D01*
X138574266Y-97757419D01*
X138587054Y-97740176D01*
X138601470Y-97724270D01*
X138617376Y-97709854D01*
X138634619Y-97697066D01*
X138653032Y-97686030D01*
X138672438Y-97676851D01*
X138692650Y-97669619D01*
X138713474Y-97664403D01*
X138734709Y-97661253D01*
X138756150Y-97660200D01*
X139193650Y-97660200D01*
X139215091Y-97661253D01*
G37*
G36*
X140950091Y-97661253D02*
G01*
X140971326Y-97664403D01*
X140992150Y-97669619D01*
X141012362Y-97676851D01*
X141031768Y-97686030D01*
X141050181Y-97697066D01*
X141067424Y-97709854D01*
X141083330Y-97724270D01*
X141097746Y-97740176D01*
X141110534Y-97757419D01*
X141121570Y-97775832D01*
X141130749Y-97795238D01*
X141137981Y-97815450D01*
X141143197Y-97836274D01*
X141146347Y-97857509D01*
X141147400Y-97878950D01*
X141147400Y-98391450D01*
X141146347Y-98412891D01*
X141143197Y-98434126D01*
X141137981Y-98454950D01*
X141130749Y-98475162D01*
X141121570Y-98494568D01*
X141110534Y-98512981D01*
X141097746Y-98530224D01*
X141083330Y-98546130D01*
X141067424Y-98560546D01*
X141050181Y-98573334D01*
X141031768Y-98584370D01*
X141012362Y-98593549D01*
X140992150Y-98600781D01*
X140971326Y-98605997D01*
X140950091Y-98609147D01*
X140928650Y-98610200D01*
X140491150Y-98610200D01*
X140469709Y-98609147D01*
X140448474Y-98605997D01*
X140427650Y-98600781D01*
X140407438Y-98593549D01*
X140388032Y-98584370D01*
X140369619Y-98573334D01*
X140352376Y-98560546D01*
X140336470Y-98546130D01*
X140322054Y-98530224D01*
X140309266Y-98512981D01*
X140298230Y-98494568D01*
X140289051Y-98475162D01*
X140281819Y-98454950D01*
X140276603Y-98434126D01*
X140273453Y-98412891D01*
X140272400Y-98391450D01*
X140272400Y-97878950D01*
X140273453Y-97857509D01*
X140276603Y-97836274D01*
X140281819Y-97815450D01*
X140289051Y-97795238D01*
X140298230Y-97775832D01*
X140309266Y-97757419D01*
X140322054Y-97740176D01*
X140336470Y-97724270D01*
X140352376Y-97709854D01*
X140369619Y-97697066D01*
X140388032Y-97686030D01*
X140407438Y-97676851D01*
X140427650Y-97669619D01*
X140448474Y-97664403D01*
X140469709Y-97661253D01*
X140491150Y-97660200D01*
X140928650Y-97660200D01*
X140950091Y-97661253D01*
G37*
G36*
X142525091Y-97661253D02*
G01*
X142546326Y-97664403D01*
X142567150Y-97669619D01*
X142587362Y-97676851D01*
X142606768Y-97686030D01*
X142625181Y-97697066D01*
X142642424Y-97709854D01*
X142658330Y-97724270D01*
X142672746Y-97740176D01*
X142685534Y-97757419D01*
X142696570Y-97775832D01*
X142705749Y-97795238D01*
X142712981Y-97815450D01*
X142718197Y-97836274D01*
X142721347Y-97857509D01*
X142722400Y-97878950D01*
X142722400Y-98391450D01*
X142721347Y-98412891D01*
X142718197Y-98434126D01*
X142712981Y-98454950D01*
X142705749Y-98475162D01*
X142696570Y-98494568D01*
X142685534Y-98512981D01*
X142672746Y-98530224D01*
X142658330Y-98546130D01*
X142642424Y-98560546D01*
X142625181Y-98573334D01*
X142606768Y-98584370D01*
X142587362Y-98593549D01*
X142567150Y-98600781D01*
X142546326Y-98605997D01*
X142525091Y-98609147D01*
X142503650Y-98610200D01*
X142066150Y-98610200D01*
X142044709Y-98609147D01*
X142023474Y-98605997D01*
X142002650Y-98600781D01*
X141982438Y-98593549D01*
X141963032Y-98584370D01*
X141944619Y-98573334D01*
X141927376Y-98560546D01*
X141911470Y-98546130D01*
X141897054Y-98530224D01*
X141884266Y-98512981D01*
X141873230Y-98494568D01*
X141864051Y-98475162D01*
X141856819Y-98454950D01*
X141851603Y-98434126D01*
X141848453Y-98412891D01*
X141847400Y-98391450D01*
X141847400Y-97878950D01*
X141848453Y-97857509D01*
X141851603Y-97836274D01*
X141856819Y-97815450D01*
X141864051Y-97795238D01*
X141873230Y-97775832D01*
X141884266Y-97757419D01*
X141897054Y-97740176D01*
X141911470Y-97724270D01*
X141927376Y-97709854D01*
X141944619Y-97697066D01*
X141963032Y-97686030D01*
X141982438Y-97676851D01*
X142002650Y-97669619D01*
X142023474Y-97664403D01*
X142044709Y-97661253D01*
X142066150Y-97660200D01*
X142503650Y-97660200D01*
X142525091Y-97661253D01*
G37*
G36*
X144308891Y-97646253D02*
G01*
X144330126Y-97649403D01*
X144350950Y-97654619D01*
X144371162Y-97661851D01*
X144390568Y-97671030D01*
X144408981Y-97682066D01*
X144426224Y-97694854D01*
X144442130Y-97709270D01*
X144456546Y-97725176D01*
X144469334Y-97742419D01*
X144480370Y-97760832D01*
X144489549Y-97780238D01*
X144496781Y-97800450D01*
X144501997Y-97821274D01*
X144505147Y-97842509D01*
X144506200Y-97863950D01*
X144506200Y-98376450D01*
X144505147Y-98397891D01*
X144501997Y-98419126D01*
X144496781Y-98439950D01*
X144489549Y-98460162D01*
X144480370Y-98479568D01*
X144469334Y-98497981D01*
X144456546Y-98515224D01*
X144442130Y-98531130D01*
X144426224Y-98545546D01*
X144408981Y-98558334D01*
X144390568Y-98569370D01*
X144371162Y-98578549D01*
X144350950Y-98585781D01*
X144330126Y-98590997D01*
X144308891Y-98594147D01*
X144287450Y-98595200D01*
X143849950Y-98595200D01*
X143828509Y-98594147D01*
X143807274Y-98590997D01*
X143786450Y-98585781D01*
X143766238Y-98578549D01*
X143746832Y-98569370D01*
X143728419Y-98558334D01*
X143711176Y-98545546D01*
X143695270Y-98531130D01*
X143680854Y-98515224D01*
X143668066Y-98497981D01*
X143657030Y-98479568D01*
X143647851Y-98460162D01*
X143640619Y-98439950D01*
X143635403Y-98419126D01*
X143632253Y-98397891D01*
X143631200Y-98376450D01*
X143631200Y-97863950D01*
X143632253Y-97842509D01*
X143635403Y-97821274D01*
X143640619Y-97800450D01*
X143647851Y-97780238D01*
X143657030Y-97760832D01*
X143668066Y-97742419D01*
X143680854Y-97725176D01*
X143695270Y-97709270D01*
X143711176Y-97694854D01*
X143728419Y-97682066D01*
X143746832Y-97671030D01*
X143766238Y-97661851D01*
X143786450Y-97654619D01*
X143807274Y-97649403D01*
X143828509Y-97646253D01*
X143849950Y-97645200D01*
X144287450Y-97645200D01*
X144308891Y-97646253D01*
G37*
G36*
X145883891Y-97646253D02*
G01*
X145905126Y-97649403D01*
X145925950Y-97654619D01*
X145946162Y-97661851D01*
X145965568Y-97671030D01*
X145983981Y-97682066D01*
X146001224Y-97694854D01*
X146017130Y-97709270D01*
X146031546Y-97725176D01*
X146044334Y-97742419D01*
X146055370Y-97760832D01*
X146064549Y-97780238D01*
X146071781Y-97800450D01*
X146076997Y-97821274D01*
X146080147Y-97842509D01*
X146081200Y-97863950D01*
X146081200Y-98376450D01*
X146080147Y-98397891D01*
X146076997Y-98419126D01*
X146071781Y-98439950D01*
X146064549Y-98460162D01*
X146055370Y-98479568D01*
X146044334Y-98497981D01*
X146031546Y-98515224D01*
X146017130Y-98531130D01*
X146001224Y-98545546D01*
X145983981Y-98558334D01*
X145965568Y-98569370D01*
X145946162Y-98578549D01*
X145925950Y-98585781D01*
X145905126Y-98590997D01*
X145883891Y-98594147D01*
X145862450Y-98595200D01*
X145424950Y-98595200D01*
X145403509Y-98594147D01*
X145382274Y-98590997D01*
X145361450Y-98585781D01*
X145341238Y-98578549D01*
X145321832Y-98569370D01*
X145303419Y-98558334D01*
X145286176Y-98545546D01*
X145270270Y-98531130D01*
X145255854Y-98515224D01*
X145243066Y-98497981D01*
X145232030Y-98479568D01*
X145222851Y-98460162D01*
X145215619Y-98439950D01*
X145210403Y-98419126D01*
X145207253Y-98397891D01*
X145206200Y-98376450D01*
X145206200Y-97863950D01*
X145207253Y-97842509D01*
X145210403Y-97821274D01*
X145215619Y-97800450D01*
X145222851Y-97780238D01*
X145232030Y-97760832D01*
X145243066Y-97742419D01*
X145255854Y-97725176D01*
X145270270Y-97709270D01*
X145286176Y-97694854D01*
X145303419Y-97682066D01*
X145321832Y-97671030D01*
X145341238Y-97661851D01*
X145361450Y-97654619D01*
X145382274Y-97649403D01*
X145403509Y-97646253D01*
X145424950Y-97645200D01*
X145862450Y-97645200D01*
X145883891Y-97646253D01*
G37*
G36*
X147580091Y-97641253D02*
G01*
X147601326Y-97644403D01*
X147622150Y-97649619D01*
X147642362Y-97656851D01*
X147661768Y-97666030D01*
X147680181Y-97677066D01*
X147697424Y-97689854D01*
X147713330Y-97704270D01*
X147727746Y-97720176D01*
X147740534Y-97737419D01*
X147751570Y-97755832D01*
X147760749Y-97775238D01*
X147767981Y-97795450D01*
X147773197Y-97816274D01*
X147776347Y-97837509D01*
X147777400Y-97858950D01*
X147777400Y-98371450D01*
X147776347Y-98392891D01*
X147773197Y-98414126D01*
X147767981Y-98434950D01*
X147760749Y-98455162D01*
X147751570Y-98474568D01*
X147740534Y-98492981D01*
X147727746Y-98510224D01*
X147713330Y-98526130D01*
X147697424Y-98540546D01*
X147680181Y-98553334D01*
X147661768Y-98564370D01*
X147642362Y-98573549D01*
X147622150Y-98580781D01*
X147601326Y-98585997D01*
X147580091Y-98589147D01*
X147558650Y-98590200D01*
X147121150Y-98590200D01*
X147099709Y-98589147D01*
X147078474Y-98585997D01*
X147057650Y-98580781D01*
X147037438Y-98573549D01*
X147018032Y-98564370D01*
X146999619Y-98553334D01*
X146982376Y-98540546D01*
X146966470Y-98526130D01*
X146952054Y-98510224D01*
X146939266Y-98492981D01*
X146928230Y-98474568D01*
X146919051Y-98455162D01*
X146911819Y-98434950D01*
X146906603Y-98414126D01*
X146903453Y-98392891D01*
X146902400Y-98371450D01*
X146902400Y-97858950D01*
X146903453Y-97837509D01*
X146906603Y-97816274D01*
X146911819Y-97795450D01*
X146919051Y-97775238D01*
X146928230Y-97755832D01*
X146939266Y-97737419D01*
X146952054Y-97720176D01*
X146966470Y-97704270D01*
X146982376Y-97689854D01*
X146999619Y-97677066D01*
X147018032Y-97666030D01*
X147037438Y-97656851D01*
X147057650Y-97649619D01*
X147078474Y-97644403D01*
X147099709Y-97641253D01*
X147121150Y-97640200D01*
X147558650Y-97640200D01*
X147580091Y-97641253D01*
G37*
G36*
X149155091Y-97641253D02*
G01*
X149176326Y-97644403D01*
X149197150Y-97649619D01*
X149217362Y-97656851D01*
X149236768Y-97666030D01*
X149255181Y-97677066D01*
X149272424Y-97689854D01*
X149288330Y-97704270D01*
X149302746Y-97720176D01*
X149315534Y-97737419D01*
X149326570Y-97755832D01*
X149335749Y-97775238D01*
X149342981Y-97795450D01*
X149348197Y-97816274D01*
X149351347Y-97837509D01*
X149352400Y-97858950D01*
X149352400Y-98371450D01*
X149351347Y-98392891D01*
X149348197Y-98414126D01*
X149342981Y-98434950D01*
X149335749Y-98455162D01*
X149326570Y-98474568D01*
X149315534Y-98492981D01*
X149302746Y-98510224D01*
X149288330Y-98526130D01*
X149272424Y-98540546D01*
X149255181Y-98553334D01*
X149236768Y-98564370D01*
X149217362Y-98573549D01*
X149197150Y-98580781D01*
X149176326Y-98585997D01*
X149155091Y-98589147D01*
X149133650Y-98590200D01*
X148696150Y-98590200D01*
X148674709Y-98589147D01*
X148653474Y-98585997D01*
X148632650Y-98580781D01*
X148612438Y-98573549D01*
X148593032Y-98564370D01*
X148574619Y-98553334D01*
X148557376Y-98540546D01*
X148541470Y-98526130D01*
X148527054Y-98510224D01*
X148514266Y-98492981D01*
X148503230Y-98474568D01*
X148494051Y-98455162D01*
X148486819Y-98434950D01*
X148481603Y-98414126D01*
X148478453Y-98392891D01*
X148477400Y-98371450D01*
X148477400Y-97858950D01*
X148478453Y-97837509D01*
X148481603Y-97816274D01*
X148486819Y-97795450D01*
X148494051Y-97775238D01*
X148503230Y-97755832D01*
X148514266Y-97737419D01*
X148527054Y-97720176D01*
X148541470Y-97704270D01*
X148557376Y-97689854D01*
X148574619Y-97677066D01*
X148593032Y-97666030D01*
X148612438Y-97656851D01*
X148632650Y-97649619D01*
X148653474Y-97644403D01*
X148674709Y-97641253D01*
X148696150Y-97640200D01*
X149133650Y-97640200D01*
X149155091Y-97641253D01*
G37*
G36*
X138873491Y-84971653D02*
G01*
X138894726Y-84974803D01*
X138915550Y-84980019D01*
X138935762Y-84987251D01*
X138955168Y-84996430D01*
X138973581Y-85007466D01*
X138990824Y-85020254D01*
X139006730Y-85034670D01*
X139021146Y-85050576D01*
X139033934Y-85067819D01*
X139044970Y-85086232D01*
X139054149Y-85105638D01*
X139061381Y-85125850D01*
X139066597Y-85146674D01*
X139069747Y-85167909D01*
X139070800Y-85189350D01*
X139070800Y-85701850D01*
X139069747Y-85723291D01*
X139066597Y-85744526D01*
X139061381Y-85765350D01*
X139054149Y-85785562D01*
X139044970Y-85804968D01*
X139033934Y-85823381D01*
X139021146Y-85840624D01*
X139006730Y-85856530D01*
X138990824Y-85870946D01*
X138973581Y-85883734D01*
X138955168Y-85894770D01*
X138935762Y-85903949D01*
X138915550Y-85911181D01*
X138894726Y-85916397D01*
X138873491Y-85919547D01*
X138852050Y-85920600D01*
X138414550Y-85920600D01*
X138393109Y-85919547D01*
X138371874Y-85916397D01*
X138351050Y-85911181D01*
X138330838Y-85903949D01*
X138311432Y-85894770D01*
X138293019Y-85883734D01*
X138275776Y-85870946D01*
X138259870Y-85856530D01*
X138245454Y-85840624D01*
X138232666Y-85823381D01*
X138221630Y-85804968D01*
X138212451Y-85785562D01*
X138205219Y-85765350D01*
X138200003Y-85744526D01*
X138196853Y-85723291D01*
X138195800Y-85701850D01*
X138195800Y-85189350D01*
X138196853Y-85167909D01*
X138200003Y-85146674D01*
X138205219Y-85125850D01*
X138212451Y-85105638D01*
X138221630Y-85086232D01*
X138232666Y-85067819D01*
X138245454Y-85050576D01*
X138259870Y-85034670D01*
X138275776Y-85020254D01*
X138293019Y-85007466D01*
X138311432Y-84996430D01*
X138330838Y-84987251D01*
X138351050Y-84980019D01*
X138371874Y-84974803D01*
X138393109Y-84971653D01*
X138414550Y-84970600D01*
X138852050Y-84970600D01*
X138873491Y-84971653D01*
G37*
G36*
X137298491Y-84971653D02*
G01*
X137319726Y-84974803D01*
X137340550Y-84980019D01*
X137360762Y-84987251D01*
X137380168Y-84996430D01*
X137398581Y-85007466D01*
X137415824Y-85020254D01*
X137431730Y-85034670D01*
X137446146Y-85050576D01*
X137458934Y-85067819D01*
X137469970Y-85086232D01*
X137479149Y-85105638D01*
X137486381Y-85125850D01*
X137491597Y-85146674D01*
X137494747Y-85167909D01*
X137495800Y-85189350D01*
X137495800Y-85701850D01*
X137494747Y-85723291D01*
X137491597Y-85744526D01*
X137486381Y-85765350D01*
X137479149Y-85785562D01*
X137469970Y-85804968D01*
X137458934Y-85823381D01*
X137446146Y-85840624D01*
X137431730Y-85856530D01*
X137415824Y-85870946D01*
X137398581Y-85883734D01*
X137380168Y-85894770D01*
X137360762Y-85903949D01*
X137340550Y-85911181D01*
X137319726Y-85916397D01*
X137298491Y-85919547D01*
X137277050Y-85920600D01*
X136839550Y-85920600D01*
X136818109Y-85919547D01*
X136796874Y-85916397D01*
X136776050Y-85911181D01*
X136755838Y-85903949D01*
X136736432Y-85894770D01*
X136718019Y-85883734D01*
X136700776Y-85870946D01*
X136684870Y-85856530D01*
X136670454Y-85840624D01*
X136657666Y-85823381D01*
X136646630Y-85804968D01*
X136637451Y-85785562D01*
X136630219Y-85765350D01*
X136625003Y-85744526D01*
X136621853Y-85723291D01*
X136620800Y-85701850D01*
X136620800Y-85189350D01*
X136621853Y-85167909D01*
X136625003Y-85146674D01*
X136630219Y-85125850D01*
X136637451Y-85105638D01*
X136646630Y-85086232D01*
X136657666Y-85067819D01*
X136670454Y-85050576D01*
X136684870Y-85034670D01*
X136700776Y-85020254D01*
X136718019Y-85007466D01*
X136736432Y-84996430D01*
X136755838Y-84987251D01*
X136776050Y-84980019D01*
X136796874Y-84974803D01*
X136818109Y-84971653D01*
X136839550Y-84970600D01*
X137277050Y-84970600D01*
X137298491Y-84971653D01*
G37*
G36*
X137298491Y-86597253D02*
G01*
X137319726Y-86600403D01*
X137340550Y-86605619D01*
X137360762Y-86612851D01*
X137380168Y-86622030D01*
X137398581Y-86633066D01*
X137415824Y-86645854D01*
X137431730Y-86660270D01*
X137446146Y-86676176D01*
X137458934Y-86693419D01*
X137469970Y-86711832D01*
X137479149Y-86731238D01*
X137486381Y-86751450D01*
X137491597Y-86772274D01*
X137494747Y-86793509D01*
X137495800Y-86814950D01*
X137495800Y-87327450D01*
X137494747Y-87348891D01*
X137491597Y-87370126D01*
X137486381Y-87390950D01*
X137479149Y-87411162D01*
X137469970Y-87430568D01*
X137458934Y-87448981D01*
X137446146Y-87466224D01*
X137431730Y-87482130D01*
X137415824Y-87496546D01*
X137398581Y-87509334D01*
X137380168Y-87520370D01*
X137360762Y-87529549D01*
X137340550Y-87536781D01*
X137319726Y-87541997D01*
X137298491Y-87545147D01*
X137277050Y-87546200D01*
X136839550Y-87546200D01*
X136818109Y-87545147D01*
X136796874Y-87541997D01*
X136776050Y-87536781D01*
X136755838Y-87529549D01*
X136736432Y-87520370D01*
X136718019Y-87509334D01*
X136700776Y-87496546D01*
X136684870Y-87482130D01*
X136670454Y-87466224D01*
X136657666Y-87448981D01*
X136646630Y-87430568D01*
X136637451Y-87411162D01*
X136630219Y-87390950D01*
X136625003Y-87370126D01*
X136621853Y-87348891D01*
X136620800Y-87327450D01*
X136620800Y-86814950D01*
X136621853Y-86793509D01*
X136625003Y-86772274D01*
X136630219Y-86751450D01*
X136637451Y-86731238D01*
X136646630Y-86711832D01*
X136657666Y-86693419D01*
X136670454Y-86676176D01*
X136684870Y-86660270D01*
X136700776Y-86645854D01*
X136718019Y-86633066D01*
X136736432Y-86622030D01*
X136755838Y-86612851D01*
X136776050Y-86605619D01*
X136796874Y-86600403D01*
X136818109Y-86597253D01*
X136839550Y-86596200D01*
X137277050Y-86596200D01*
X137298491Y-86597253D01*
G37*
G36*
X138873491Y-86597253D02*
G01*
X138894726Y-86600403D01*
X138915550Y-86605619D01*
X138935762Y-86612851D01*
X138955168Y-86622030D01*
X138973581Y-86633066D01*
X138990824Y-86645854D01*
X139006730Y-86660270D01*
X139021146Y-86676176D01*
X139033934Y-86693419D01*
X139044970Y-86711832D01*
X139054149Y-86731238D01*
X139061381Y-86751450D01*
X139066597Y-86772274D01*
X139069747Y-86793509D01*
X139070800Y-86814950D01*
X139070800Y-87327450D01*
X139069747Y-87348891D01*
X139066597Y-87370126D01*
X139061381Y-87390950D01*
X139054149Y-87411162D01*
X139044970Y-87430568D01*
X139033934Y-87448981D01*
X139021146Y-87466224D01*
X139006730Y-87482130D01*
X138990824Y-87496546D01*
X138973581Y-87509334D01*
X138955168Y-87520370D01*
X138935762Y-87529549D01*
X138915550Y-87536781D01*
X138894726Y-87541997D01*
X138873491Y-87545147D01*
X138852050Y-87546200D01*
X138414550Y-87546200D01*
X138393109Y-87545147D01*
X138371874Y-87541997D01*
X138351050Y-87536781D01*
X138330838Y-87529549D01*
X138311432Y-87520370D01*
X138293019Y-87509334D01*
X138275776Y-87496546D01*
X138259870Y-87482130D01*
X138245454Y-87466224D01*
X138232666Y-87448981D01*
X138221630Y-87430568D01*
X138212451Y-87411162D01*
X138205219Y-87390950D01*
X138200003Y-87370126D01*
X138196853Y-87348891D01*
X138195800Y-87327450D01*
X138195800Y-86814950D01*
X138196853Y-86793509D01*
X138200003Y-86772274D01*
X138205219Y-86751450D01*
X138212451Y-86731238D01*
X138221630Y-86711832D01*
X138232666Y-86693419D01*
X138245454Y-86676176D01*
X138259870Y-86660270D01*
X138275776Y-86645854D01*
X138293019Y-86633066D01*
X138311432Y-86622030D01*
X138330838Y-86612851D01*
X138351050Y-86605619D01*
X138371874Y-86600403D01*
X138393109Y-86597253D01*
X138414550Y-86596200D01*
X138852050Y-86596200D01*
X138873491Y-86597253D01*
G37*
G36*
X143000291Y-86863253D02*
G01*
X143021526Y-86866403D01*
X143042350Y-86871619D01*
X143062562Y-86878851D01*
X143081968Y-86888030D01*
X143100381Y-86899066D01*
X143117624Y-86911854D01*
X143133530Y-86926270D01*
X143147946Y-86942176D01*
X143160734Y-86959419D01*
X143171770Y-86977832D01*
X143180949Y-86997238D01*
X143188181Y-87017450D01*
X143193397Y-87038274D01*
X143196547Y-87059509D01*
X143197600Y-87080950D01*
X143197600Y-87518450D01*
X143196547Y-87539891D01*
X143193397Y-87561126D01*
X143188181Y-87581950D01*
X143180949Y-87602162D01*
X143171770Y-87621568D01*
X143160734Y-87639981D01*
X143147946Y-87657224D01*
X143133530Y-87673130D01*
X143117624Y-87687546D01*
X143100381Y-87700334D01*
X143081968Y-87711370D01*
X143062562Y-87720549D01*
X143042350Y-87727781D01*
X143021526Y-87732997D01*
X143000291Y-87736147D01*
X142978850Y-87737200D01*
X142466350Y-87737200D01*
X142444909Y-87736147D01*
X142423674Y-87732997D01*
X142402850Y-87727781D01*
X142382638Y-87720549D01*
X142363232Y-87711370D01*
X142344819Y-87700334D01*
X142327576Y-87687546D01*
X142311670Y-87673130D01*
X142297254Y-87657224D01*
X142284466Y-87639981D01*
X142273430Y-87621568D01*
X142264251Y-87602162D01*
X142257019Y-87581950D01*
X142251803Y-87561126D01*
X142248653Y-87539891D01*
X142247600Y-87518450D01*
X142247600Y-87080950D01*
X142248653Y-87059509D01*
X142251803Y-87038274D01*
X142257019Y-87017450D01*
X142264251Y-86997238D01*
X142273430Y-86977832D01*
X142284466Y-86959419D01*
X142297254Y-86942176D01*
X142311670Y-86926270D01*
X142327576Y-86911854D01*
X142344819Y-86899066D01*
X142363232Y-86888030D01*
X142382638Y-86878851D01*
X142402850Y-86871619D01*
X142423674Y-86866403D01*
X142444909Y-86863253D01*
X142466350Y-86862200D01*
X142978850Y-86862200D01*
X143000291Y-86863253D01*
G37*
G36*
X143000291Y-88438253D02*
G01*
X143021526Y-88441403D01*
X143042350Y-88446619D01*
X143062562Y-88453851D01*
X143081968Y-88463030D01*
X143100381Y-88474066D01*
X143117624Y-88486854D01*
X143133530Y-88501270D01*
X143147946Y-88517176D01*
X143160734Y-88534419D01*
X143171770Y-88552832D01*
X143180949Y-88572238D01*
X143188181Y-88592450D01*
X143193397Y-88613274D01*
X143196547Y-88634509D01*
X143197600Y-88655950D01*
X143197600Y-89093450D01*
X143196547Y-89114891D01*
X143193397Y-89136126D01*
X143188181Y-89156950D01*
X143180949Y-89177162D01*
X143171770Y-89196568D01*
X143160734Y-89214981D01*
X143147946Y-89232224D01*
X143133530Y-89248130D01*
X143117624Y-89262546D01*
X143100381Y-89275334D01*
X143081968Y-89286370D01*
X143062562Y-89295549D01*
X143042350Y-89302781D01*
X143021526Y-89307997D01*
X143000291Y-89311147D01*
X142978850Y-89312200D01*
X142466350Y-89312200D01*
X142444909Y-89311147D01*
X142423674Y-89307997D01*
X142402850Y-89302781D01*
X142382638Y-89295549D01*
X142363232Y-89286370D01*
X142344819Y-89275334D01*
X142327576Y-89262546D01*
X142311670Y-89248130D01*
X142297254Y-89232224D01*
X142284466Y-89214981D01*
X142273430Y-89196568D01*
X142264251Y-89177162D01*
X142257019Y-89156950D01*
X142251803Y-89136126D01*
X142248653Y-89114891D01*
X142247600Y-89093450D01*
X142247600Y-88655950D01*
X142248653Y-88634509D01*
X142251803Y-88613274D01*
X142257019Y-88592450D01*
X142264251Y-88572238D01*
X142273430Y-88552832D01*
X142284466Y-88534419D01*
X142297254Y-88517176D01*
X142311670Y-88501270D01*
X142327576Y-88486854D01*
X142344819Y-88474066D01*
X142363232Y-88463030D01*
X142382638Y-88453851D01*
X142402850Y-88446619D01*
X142423674Y-88441403D01*
X142444909Y-88438253D01*
X142466350Y-88437200D01*
X142978850Y-88437200D01*
X143000291Y-88438253D01*
G37*
G36*
X141298491Y-86863253D02*
G01*
X141319726Y-86866403D01*
X141340550Y-86871619D01*
X141360762Y-86878851D01*
X141380168Y-86888030D01*
X141398581Y-86899066D01*
X141415824Y-86911854D01*
X141431730Y-86926270D01*
X141446146Y-86942176D01*
X141458934Y-86959419D01*
X141469970Y-86977832D01*
X141479149Y-86997238D01*
X141486381Y-87017450D01*
X141491597Y-87038274D01*
X141494747Y-87059509D01*
X141495800Y-87080950D01*
X141495800Y-87518450D01*
X141494747Y-87539891D01*
X141491597Y-87561126D01*
X141486381Y-87581950D01*
X141479149Y-87602162D01*
X141469970Y-87621568D01*
X141458934Y-87639981D01*
X141446146Y-87657224D01*
X141431730Y-87673130D01*
X141415824Y-87687546D01*
X141398581Y-87700334D01*
X141380168Y-87711370D01*
X141360762Y-87720549D01*
X141340550Y-87727781D01*
X141319726Y-87732997D01*
X141298491Y-87736147D01*
X141277050Y-87737200D01*
X140764550Y-87737200D01*
X140743109Y-87736147D01*
X140721874Y-87732997D01*
X140701050Y-87727781D01*
X140680838Y-87720549D01*
X140661432Y-87711370D01*
X140643019Y-87700334D01*
X140625776Y-87687546D01*
X140609870Y-87673130D01*
X140595454Y-87657224D01*
X140582666Y-87639981D01*
X140571630Y-87621568D01*
X140562451Y-87602162D01*
X140555219Y-87581950D01*
X140550003Y-87561126D01*
X140546853Y-87539891D01*
X140545800Y-87518450D01*
X140545800Y-87080950D01*
X140546853Y-87059509D01*
X140550003Y-87038274D01*
X140555219Y-87017450D01*
X140562451Y-86997238D01*
X140571630Y-86977832D01*
X140582666Y-86959419D01*
X140595454Y-86942176D01*
X140609870Y-86926270D01*
X140625776Y-86911854D01*
X140643019Y-86899066D01*
X140661432Y-86888030D01*
X140680838Y-86878851D01*
X140701050Y-86871619D01*
X140721874Y-86866403D01*
X140743109Y-86863253D01*
X140764550Y-86862200D01*
X141277050Y-86862200D01*
X141298491Y-86863253D01*
G37*
G36*
X141298491Y-88438253D02*
G01*
X141319726Y-88441403D01*
X141340550Y-88446619D01*
X141360762Y-88453851D01*
X141380168Y-88463030D01*
X141398581Y-88474066D01*
X141415824Y-88486854D01*
X141431730Y-88501270D01*
X141446146Y-88517176D01*
X141458934Y-88534419D01*
X141469970Y-88552832D01*
X141479149Y-88572238D01*
X141486381Y-88592450D01*
X141491597Y-88613274D01*
X141494747Y-88634509D01*
X141495800Y-88655950D01*
X141495800Y-89093450D01*
X141494747Y-89114891D01*
X141491597Y-89136126D01*
X141486381Y-89156950D01*
X141479149Y-89177162D01*
X141469970Y-89196568D01*
X141458934Y-89214981D01*
X141446146Y-89232224D01*
X141431730Y-89248130D01*
X141415824Y-89262546D01*
X141398581Y-89275334D01*
X141380168Y-89286370D01*
X141360762Y-89295549D01*
X141340550Y-89302781D01*
X141319726Y-89307997D01*
X141298491Y-89311147D01*
X141277050Y-89312200D01*
X140764550Y-89312200D01*
X140743109Y-89311147D01*
X140721874Y-89307997D01*
X140701050Y-89302781D01*
X140680838Y-89295549D01*
X140661432Y-89286370D01*
X140643019Y-89275334D01*
X140625776Y-89262546D01*
X140609870Y-89248130D01*
X140595454Y-89232224D01*
X140582666Y-89214981D01*
X140571630Y-89196568D01*
X140562451Y-89177162D01*
X140555219Y-89156950D01*
X140550003Y-89136126D01*
X140546853Y-89114891D01*
X140545800Y-89093450D01*
X140545800Y-88655950D01*
X140546853Y-88634509D01*
X140550003Y-88613274D01*
X140555219Y-88592450D01*
X140562451Y-88572238D01*
X140571630Y-88552832D01*
X140582666Y-88534419D01*
X140595454Y-88517176D01*
X140609870Y-88501270D01*
X140625776Y-88486854D01*
X140643019Y-88474066D01*
X140661432Y-88463030D01*
X140680838Y-88453851D01*
X140701050Y-88446619D01*
X140721874Y-88441403D01*
X140743109Y-88438253D01*
X140764550Y-88437200D01*
X141277050Y-88437200D01*
X141298491Y-88438253D01*
G37*
G36*
X138873491Y-92007453D02*
G01*
X138894726Y-92010603D01*
X138915550Y-92015819D01*
X138935762Y-92023051D01*
X138955168Y-92032230D01*
X138973581Y-92043266D01*
X138990824Y-92056054D01*
X139006730Y-92070470D01*
X139021146Y-92086376D01*
X139033934Y-92103619D01*
X139044970Y-92122032D01*
X139054149Y-92141438D01*
X139061381Y-92161650D01*
X139066597Y-92182474D01*
X139069747Y-92203709D01*
X139070800Y-92225150D01*
X139070800Y-92737650D01*
X139069747Y-92759091D01*
X139066597Y-92780326D01*
X139061381Y-92801150D01*
X139054149Y-92821362D01*
X139044970Y-92840768D01*
X139033934Y-92859181D01*
X139021146Y-92876424D01*
X139006730Y-92892330D01*
X138990824Y-92906746D01*
X138973581Y-92919534D01*
X138955168Y-92930570D01*
X138935762Y-92939749D01*
X138915550Y-92946981D01*
X138894726Y-92952197D01*
X138873491Y-92955347D01*
X138852050Y-92956400D01*
X138414550Y-92956400D01*
X138393109Y-92955347D01*
X138371874Y-92952197D01*
X138351050Y-92946981D01*
X138330838Y-92939749D01*
X138311432Y-92930570D01*
X138293019Y-92919534D01*
X138275776Y-92906746D01*
X138259870Y-92892330D01*
X138245454Y-92876424D01*
X138232666Y-92859181D01*
X138221630Y-92840768D01*
X138212451Y-92821362D01*
X138205219Y-92801150D01*
X138200003Y-92780326D01*
X138196853Y-92759091D01*
X138195800Y-92737650D01*
X138195800Y-92225150D01*
X138196853Y-92203709D01*
X138200003Y-92182474D01*
X138205219Y-92161650D01*
X138212451Y-92141438D01*
X138221630Y-92122032D01*
X138232666Y-92103619D01*
X138245454Y-92086376D01*
X138259870Y-92070470D01*
X138275776Y-92056054D01*
X138293019Y-92043266D01*
X138311432Y-92032230D01*
X138330838Y-92023051D01*
X138351050Y-92015819D01*
X138371874Y-92010603D01*
X138393109Y-92007453D01*
X138414550Y-92006400D01*
X138852050Y-92006400D01*
X138873491Y-92007453D01*
G37*
G36*
X137298491Y-92007453D02*
G01*
X137319726Y-92010603D01*
X137340550Y-92015819D01*
X137360762Y-92023051D01*
X137380168Y-92032230D01*
X137398581Y-92043266D01*
X137415824Y-92056054D01*
X137431730Y-92070470D01*
X137446146Y-92086376D01*
X137458934Y-92103619D01*
X137469970Y-92122032D01*
X137479149Y-92141438D01*
X137486381Y-92161650D01*
X137491597Y-92182474D01*
X137494747Y-92203709D01*
X137495800Y-92225150D01*
X137495800Y-92737650D01*
X137494747Y-92759091D01*
X137491597Y-92780326D01*
X137486381Y-92801150D01*
X137479149Y-92821362D01*
X137469970Y-92840768D01*
X137458934Y-92859181D01*
X137446146Y-92876424D01*
X137431730Y-92892330D01*
X137415824Y-92906746D01*
X137398581Y-92919534D01*
X137380168Y-92930570D01*
X137360762Y-92939749D01*
X137340550Y-92946981D01*
X137319726Y-92952197D01*
X137298491Y-92955347D01*
X137277050Y-92956400D01*
X136839550Y-92956400D01*
X136818109Y-92955347D01*
X136796874Y-92952197D01*
X136776050Y-92946981D01*
X136755838Y-92939749D01*
X136736432Y-92930570D01*
X136718019Y-92919534D01*
X136700776Y-92906746D01*
X136684870Y-92892330D01*
X136670454Y-92876424D01*
X136657666Y-92859181D01*
X136646630Y-92840768D01*
X136637451Y-92821362D01*
X136630219Y-92801150D01*
X136625003Y-92780326D01*
X136621853Y-92759091D01*
X136620800Y-92737650D01*
X136620800Y-92225150D01*
X136621853Y-92203709D01*
X136625003Y-92182474D01*
X136630219Y-92161650D01*
X136637451Y-92141438D01*
X136646630Y-92122032D01*
X136657666Y-92103619D01*
X136670454Y-92086376D01*
X136684870Y-92070470D01*
X136700776Y-92056054D01*
X136718019Y-92043266D01*
X136736432Y-92032230D01*
X136755838Y-92023051D01*
X136776050Y-92015819D01*
X136796874Y-92010603D01*
X136818109Y-92007453D01*
X136839550Y-92006400D01*
X137277050Y-92006400D01*
X137298491Y-92007453D01*
G37*
G36*
X141337091Y-85200253D02*
G01*
X141358326Y-85203403D01*
X141379150Y-85208619D01*
X141399362Y-85215851D01*
X141418768Y-85225030D01*
X141437181Y-85236066D01*
X141454424Y-85248854D01*
X141470330Y-85263270D01*
X141484746Y-85279176D01*
X141497534Y-85296419D01*
X141508570Y-85314832D01*
X141517749Y-85334238D01*
X141524981Y-85354450D01*
X141530197Y-85375274D01*
X141533347Y-85396509D01*
X141534400Y-85417950D01*
X141534400Y-85930450D01*
X141533347Y-85951891D01*
X141530197Y-85973126D01*
X141524981Y-85993950D01*
X141517749Y-86014162D01*
X141508570Y-86033568D01*
X141497534Y-86051981D01*
X141484746Y-86069224D01*
X141470330Y-86085130D01*
X141454424Y-86099546D01*
X141437181Y-86112334D01*
X141418768Y-86123370D01*
X141399362Y-86132549D01*
X141379150Y-86139781D01*
X141358326Y-86144997D01*
X141337091Y-86148147D01*
X141315650Y-86149200D01*
X140878150Y-86149200D01*
X140856709Y-86148147D01*
X140835474Y-86144997D01*
X140814650Y-86139781D01*
X140794438Y-86132549D01*
X140775032Y-86123370D01*
X140756619Y-86112334D01*
X140739376Y-86099546D01*
X140723470Y-86085130D01*
X140709054Y-86069224D01*
X140696266Y-86051981D01*
X140685230Y-86033568D01*
X140676051Y-86014162D01*
X140668819Y-85993950D01*
X140663603Y-85973126D01*
X140660453Y-85951891D01*
X140659400Y-85930450D01*
X140659400Y-85417950D01*
X140660453Y-85396509D01*
X140663603Y-85375274D01*
X140668819Y-85354450D01*
X140676051Y-85334238D01*
X140685230Y-85314832D01*
X140696266Y-85296419D01*
X140709054Y-85279176D01*
X140723470Y-85263270D01*
X140739376Y-85248854D01*
X140756619Y-85236066D01*
X140775032Y-85225030D01*
X140794438Y-85215851D01*
X140814650Y-85208619D01*
X140835474Y-85203403D01*
X140856709Y-85200253D01*
X140878150Y-85199200D01*
X141315650Y-85199200D01*
X141337091Y-85200253D01*
G37*
G36*
X142912091Y-85200253D02*
G01*
X142933326Y-85203403D01*
X142954150Y-85208619D01*
X142974362Y-85215851D01*
X142993768Y-85225030D01*
X143012181Y-85236066D01*
X143029424Y-85248854D01*
X143045330Y-85263270D01*
X143059746Y-85279176D01*
X143072534Y-85296419D01*
X143083570Y-85314832D01*
X143092749Y-85334238D01*
X143099981Y-85354450D01*
X143105197Y-85375274D01*
X143108347Y-85396509D01*
X143109400Y-85417950D01*
X143109400Y-85930450D01*
X143108347Y-85951891D01*
X143105197Y-85973126D01*
X143099981Y-85993950D01*
X143092749Y-86014162D01*
X143083570Y-86033568D01*
X143072534Y-86051981D01*
X143059746Y-86069224D01*
X143045330Y-86085130D01*
X143029424Y-86099546D01*
X143012181Y-86112334D01*
X142993768Y-86123370D01*
X142974362Y-86132549D01*
X142954150Y-86139781D01*
X142933326Y-86144997D01*
X142912091Y-86148147D01*
X142890650Y-86149200D01*
X142453150Y-86149200D01*
X142431709Y-86148147D01*
X142410474Y-86144997D01*
X142389650Y-86139781D01*
X142369438Y-86132549D01*
X142350032Y-86123370D01*
X142331619Y-86112334D01*
X142314376Y-86099546D01*
X142298470Y-86085130D01*
X142284054Y-86069224D01*
X142271266Y-86051981D01*
X142260230Y-86033568D01*
X142251051Y-86014162D01*
X142243819Y-85993950D01*
X142238603Y-85973126D01*
X142235453Y-85951891D01*
X142234400Y-85930450D01*
X142234400Y-85417950D01*
X142235453Y-85396509D01*
X142238603Y-85375274D01*
X142243819Y-85354450D01*
X142251051Y-85334238D01*
X142260230Y-85314832D01*
X142271266Y-85296419D01*
X142284054Y-85279176D01*
X142298470Y-85263270D01*
X142314376Y-85248854D01*
X142331619Y-85236066D01*
X142350032Y-85225030D01*
X142369438Y-85215851D01*
X142389650Y-85208619D01*
X142410474Y-85203403D01*
X142431709Y-85200253D01*
X142453150Y-85199200D01*
X142890650Y-85199200D01*
X142912091Y-85200253D01*
G37*
M02*
