G04 #@! TF.GenerationSoftware,KiCad,Pcbnew,(5.1.5)-3*
G04 #@! TF.CreationDate,2022-01-21T17:51:05-06:00*
G04 #@! TF.ProjectId,test_stand_smd,74657374-5f73-4746-916e-645f736d642e,rev?*
G04 #@! TF.SameCoordinates,Original*
G04 #@! TF.FileFunction,Copper,L2,Bot*
G04 #@! TF.FilePolarity,Positive*
%FSLAX46Y46*%
G04 Gerber Fmt 4.6, Leading zero omitted, Abs format (unit mm)*
G04 Created by KiCad (PCBNEW (5.1.5)-3) date 2022-01-21 17:51:05*
%MOMM*%
%LPD*%
G04 APERTURE LIST*
%ADD10O,0.900000X1.700000*%
%ADD11O,0.900000X2.000000*%
%ADD12C,1.000000*%
%ADD13O,1.700000X1.700000*%
%ADD14R,1.700000X1.700000*%
%ADD15C,0.800000*%
%ADD16C,0.250000*%
%ADD17C,0.200000*%
%ADD18C,0.254000*%
G04 APERTURE END LIST*
D10*
X138933460Y-78645200D03*
X147573460Y-78645200D03*
D11*
X138933460Y-82815200D03*
X147573460Y-82815200D03*
D12*
X148336000Y-84836000D03*
D13*
X138209020Y-101152960D03*
X140749020Y-101152960D03*
X143289020Y-101152960D03*
X145829020Y-101152960D03*
D14*
X148369020Y-101152960D03*
D15*
X144602200Y-86106000D03*
X147574000Y-91440000D03*
X148590000Y-92456000D03*
X149860000Y-96266000D03*
X144018000Y-89636600D03*
X141147800Y-91440000D03*
X144500600Y-81788000D03*
X141173200Y-80619600D03*
D16*
X138941080Y-82823920D02*
X138941080Y-78653920D01*
X147581080Y-82823920D02*
X147581080Y-78653920D01*
X148590000Y-92456000D02*
X148590000Y-93218000D01*
X148590000Y-93218000D02*
X149098000Y-93726000D01*
X149098000Y-95504000D02*
X149098000Y-94996000D01*
X149860000Y-96266000D02*
X149098000Y-95504000D01*
X149098000Y-93726000D02*
X149098000Y-94996000D01*
X149098000Y-94996000D02*
X149098000Y-95250000D01*
X138684000Y-96266000D02*
X149860000Y-96266000D01*
D17*
X138933460Y-84015200D02*
X138938000Y-84019740D01*
X138933460Y-82815200D02*
X138933460Y-84015200D01*
X138684000Y-84273740D02*
X138684000Y-96266000D01*
X138938000Y-84019740D02*
X138684000Y-84273740D01*
X147574000Y-91440000D02*
X141147800Y-91440000D01*
X143934915Y-81788000D02*
X142766515Y-80619600D01*
X144500600Y-81788000D02*
X143934915Y-81788000D01*
X142766515Y-80619600D02*
X142494000Y-80619600D01*
X142494000Y-80619600D02*
X141173200Y-80619600D01*
X141173200Y-80619600D02*
X141173200Y-80619600D01*
X145872200Y-84836000D02*
X148336000Y-84836000D01*
X144602200Y-86106000D02*
X145872200Y-84836000D01*
D18*
G36*
X150387197Y-77119047D02*
G01*
X150405662Y-77124622D01*
X150422694Y-77133678D01*
X150437643Y-77145870D01*
X150449938Y-77160732D01*
X150459111Y-77177696D01*
X150464817Y-77196129D01*
X150470001Y-77245455D01*
X150470000Y-104361723D01*
X150464953Y-104413195D01*
X150459377Y-104431663D01*
X150450322Y-104448693D01*
X150438129Y-104463643D01*
X150423266Y-104475939D01*
X150406303Y-104485111D01*
X150387871Y-104490817D01*
X150334539Y-104496422D01*
X136176277Y-104496422D01*
X136124720Y-104491367D01*
X136106178Y-104485769D01*
X136089071Y-104476673D01*
X136074061Y-104464430D01*
X136061712Y-104449504D01*
X136052498Y-104432463D01*
X136046771Y-104413961D01*
X136042000Y-104368568D01*
X136042000Y-101006700D01*
X136724020Y-101006700D01*
X136724020Y-101299220D01*
X136781088Y-101586118D01*
X136893030Y-101856371D01*
X137055545Y-102099592D01*
X137262388Y-102306435D01*
X137505609Y-102468950D01*
X137775862Y-102580892D01*
X138062760Y-102637960D01*
X138355280Y-102637960D01*
X138642178Y-102580892D01*
X138912431Y-102468950D01*
X139155652Y-102306435D01*
X139362495Y-102099592D01*
X139479020Y-101925200D01*
X139595545Y-102099592D01*
X139802388Y-102306435D01*
X140045609Y-102468950D01*
X140315862Y-102580892D01*
X140602760Y-102637960D01*
X140895280Y-102637960D01*
X141182178Y-102580892D01*
X141452431Y-102468950D01*
X141695652Y-102306435D01*
X141902495Y-102099592D01*
X142019020Y-101925200D01*
X142135545Y-102099592D01*
X142342388Y-102306435D01*
X142585609Y-102468950D01*
X142855862Y-102580892D01*
X143142760Y-102637960D01*
X143435280Y-102637960D01*
X143722178Y-102580892D01*
X143992431Y-102468950D01*
X144235652Y-102306435D01*
X144442495Y-102099592D01*
X144559020Y-101925200D01*
X144675545Y-102099592D01*
X144882388Y-102306435D01*
X145125609Y-102468950D01*
X145395862Y-102580892D01*
X145682760Y-102637960D01*
X145975280Y-102637960D01*
X146262178Y-102580892D01*
X146532431Y-102468950D01*
X146775652Y-102306435D01*
X146907507Y-102174580D01*
X146929518Y-102247140D01*
X146988483Y-102357454D01*
X147067835Y-102454145D01*
X147164526Y-102533497D01*
X147274840Y-102592462D01*
X147394538Y-102628772D01*
X147519020Y-102641032D01*
X148083270Y-102637960D01*
X148242020Y-102479210D01*
X148242020Y-101279960D01*
X148496020Y-101279960D01*
X148496020Y-102479210D01*
X148654770Y-102637960D01*
X149219020Y-102641032D01*
X149343502Y-102628772D01*
X149463200Y-102592462D01*
X149573514Y-102533497D01*
X149670205Y-102454145D01*
X149749557Y-102357454D01*
X149808522Y-102247140D01*
X149844832Y-102127442D01*
X149857092Y-102002960D01*
X149854020Y-101438710D01*
X149695270Y-101279960D01*
X148496020Y-101279960D01*
X148242020Y-101279960D01*
X148222020Y-101279960D01*
X148222020Y-101025960D01*
X148242020Y-101025960D01*
X148242020Y-99826710D01*
X148496020Y-99826710D01*
X148496020Y-101025960D01*
X149695270Y-101025960D01*
X149854020Y-100867210D01*
X149857092Y-100302960D01*
X149844832Y-100178478D01*
X149808522Y-100058780D01*
X149749557Y-99948466D01*
X149670205Y-99851775D01*
X149573514Y-99772423D01*
X149463200Y-99713458D01*
X149343502Y-99677148D01*
X149219020Y-99664888D01*
X148654770Y-99667960D01*
X148496020Y-99826710D01*
X148242020Y-99826710D01*
X148083270Y-99667960D01*
X147519020Y-99664888D01*
X147394538Y-99677148D01*
X147274840Y-99713458D01*
X147164526Y-99772423D01*
X147067835Y-99851775D01*
X146988483Y-99948466D01*
X146929518Y-100058780D01*
X146907507Y-100131340D01*
X146775652Y-99999485D01*
X146532431Y-99836970D01*
X146262178Y-99725028D01*
X145975280Y-99667960D01*
X145682760Y-99667960D01*
X145395862Y-99725028D01*
X145125609Y-99836970D01*
X144882388Y-99999485D01*
X144675545Y-100206328D01*
X144559020Y-100380720D01*
X144442495Y-100206328D01*
X144235652Y-99999485D01*
X143992431Y-99836970D01*
X143722178Y-99725028D01*
X143435280Y-99667960D01*
X143142760Y-99667960D01*
X142855862Y-99725028D01*
X142585609Y-99836970D01*
X142342388Y-99999485D01*
X142135545Y-100206328D01*
X142019020Y-100380720D01*
X141902495Y-100206328D01*
X141695652Y-99999485D01*
X141452431Y-99836970D01*
X141182178Y-99725028D01*
X140895280Y-99667960D01*
X140602760Y-99667960D01*
X140315862Y-99725028D01*
X140045609Y-99836970D01*
X139802388Y-99999485D01*
X139595545Y-100206328D01*
X139479020Y-100380720D01*
X139362495Y-100206328D01*
X139155652Y-99999485D01*
X138912431Y-99836970D01*
X138642178Y-99725028D01*
X138355280Y-99667960D01*
X138062760Y-99667960D01*
X137775862Y-99725028D01*
X137505609Y-99836970D01*
X137262388Y-99999485D01*
X137055545Y-100206328D01*
X136893030Y-100449549D01*
X136781088Y-100719802D01*
X136724020Y-101006700D01*
X136042000Y-101006700D01*
X136042000Y-91338061D01*
X140112800Y-91338061D01*
X140112800Y-91541939D01*
X140152574Y-91741898D01*
X140230595Y-91930256D01*
X140343863Y-92099774D01*
X140488026Y-92243937D01*
X140657544Y-92357205D01*
X140845902Y-92435226D01*
X141045861Y-92475000D01*
X141249739Y-92475000D01*
X141449698Y-92435226D01*
X141638056Y-92357205D01*
X141807574Y-92243937D01*
X141876511Y-92175000D01*
X146845289Y-92175000D01*
X146914226Y-92243937D01*
X147083744Y-92357205D01*
X147272102Y-92435226D01*
X147472061Y-92475000D01*
X147675939Y-92475000D01*
X147875898Y-92435226D01*
X148064256Y-92357205D01*
X148233774Y-92243937D01*
X148377937Y-92099774D01*
X148491205Y-91930256D01*
X148569226Y-91741898D01*
X148609000Y-91541939D01*
X148609000Y-91338061D01*
X148569226Y-91138102D01*
X148491205Y-90949744D01*
X148377937Y-90780226D01*
X148233774Y-90636063D01*
X148064256Y-90522795D01*
X147875898Y-90444774D01*
X147675939Y-90405000D01*
X147472061Y-90405000D01*
X147272102Y-90444774D01*
X147083744Y-90522795D01*
X146914226Y-90636063D01*
X146845289Y-90705000D01*
X141876511Y-90705000D01*
X141807574Y-90636063D01*
X141638056Y-90522795D01*
X141449698Y-90444774D01*
X141249739Y-90405000D01*
X141045861Y-90405000D01*
X140845902Y-90444774D01*
X140657544Y-90522795D01*
X140488026Y-90636063D01*
X140343863Y-90780226D01*
X140230595Y-90949744D01*
X140152574Y-91138102D01*
X140112800Y-91338061D01*
X136042000Y-91338061D01*
X136042000Y-82942200D01*
X137848460Y-82942200D01*
X137848460Y-83492200D01*
X137894084Y-83701433D01*
X137979651Y-83897745D01*
X138101873Y-84073591D01*
X138256052Y-84222214D01*
X138436263Y-84337902D01*
X138639459Y-84409608D01*
X138806460Y-84282702D01*
X138806460Y-82942200D01*
X137848460Y-82942200D01*
X136042000Y-82942200D01*
X136042000Y-82138200D01*
X137848460Y-82138200D01*
X137848460Y-82688200D01*
X138806460Y-82688200D01*
X138806460Y-81347698D01*
X139060460Y-81347698D01*
X139060460Y-82688200D01*
X139080460Y-82688200D01*
X139080460Y-82942200D01*
X139060460Y-82942200D01*
X139060460Y-84282702D01*
X139227461Y-84409608D01*
X139430657Y-84337902D01*
X139610868Y-84222214D01*
X139765047Y-84073591D01*
X139887269Y-83897745D01*
X139972836Y-83701433D01*
X140018460Y-83492200D01*
X140018460Y-83204333D01*
X140090731Y-83234268D01*
X140271371Y-83270200D01*
X140455549Y-83270200D01*
X140636189Y-83234268D01*
X140806349Y-83163786D01*
X140959488Y-83061462D01*
X141089722Y-82931228D01*
X141192046Y-82778089D01*
X141262528Y-82607929D01*
X141298460Y-82427289D01*
X141298460Y-82243111D01*
X141262528Y-82062471D01*
X141192046Y-81892311D01*
X141089722Y-81739172D01*
X140988735Y-81638185D01*
X141071261Y-81654600D01*
X141275139Y-81654600D01*
X141475098Y-81614826D01*
X141663456Y-81536805D01*
X141832974Y-81423537D01*
X141901911Y-81354600D01*
X142462069Y-81354600D01*
X143389661Y-82282193D01*
X143412677Y-82310238D01*
X143524595Y-82402087D01*
X143652282Y-82470337D01*
X143748376Y-82499487D01*
X143840826Y-82591937D01*
X144010344Y-82705205D01*
X144198702Y-82783226D01*
X144398661Y-82823000D01*
X144602539Y-82823000D01*
X144802498Y-82783226D01*
X144990856Y-82705205D01*
X145160374Y-82591937D01*
X145227799Y-82524512D01*
X145244392Y-82607929D01*
X145314874Y-82778089D01*
X145417198Y-82931228D01*
X145547432Y-83061462D01*
X145700571Y-83163786D01*
X145870731Y-83234268D01*
X146051371Y-83270200D01*
X146235549Y-83270200D01*
X146416189Y-83234268D01*
X146488460Y-83204333D01*
X146488460Y-83492200D01*
X146534084Y-83701433D01*
X146619651Y-83897745D01*
X146741873Y-84073591D01*
X146770307Y-84101000D01*
X145908294Y-84101000D01*
X145872199Y-84097445D01*
X145836104Y-84101000D01*
X145836095Y-84101000D01*
X145728115Y-84111635D01*
X145589567Y-84153663D01*
X145461880Y-84221913D01*
X145349962Y-84313762D01*
X145326946Y-84341807D01*
X144597754Y-85071000D01*
X144500261Y-85071000D01*
X144300302Y-85110774D01*
X144111944Y-85188795D01*
X143942426Y-85302063D01*
X143798263Y-85446226D01*
X143684995Y-85615744D01*
X143606974Y-85804102D01*
X143567200Y-86004061D01*
X143567200Y-86207939D01*
X143606974Y-86407898D01*
X143684995Y-86596256D01*
X143798263Y-86765774D01*
X143942426Y-86909937D01*
X144111944Y-87023205D01*
X144300302Y-87101226D01*
X144500261Y-87141000D01*
X144704139Y-87141000D01*
X144904098Y-87101226D01*
X145092456Y-87023205D01*
X145261974Y-86909937D01*
X145406137Y-86765774D01*
X145519405Y-86596256D01*
X145597426Y-86407898D01*
X145637200Y-86207939D01*
X145637200Y-86110446D01*
X146176647Y-85571000D01*
X147465868Y-85571000D01*
X147612480Y-85717612D01*
X147798376Y-85841824D01*
X148004933Y-85927383D01*
X148224212Y-85971000D01*
X148447788Y-85971000D01*
X148667067Y-85927383D01*
X148873624Y-85841824D01*
X149059520Y-85717612D01*
X149217612Y-85559520D01*
X149341824Y-85373624D01*
X149427383Y-85167067D01*
X149471000Y-84947788D01*
X149471000Y-84724212D01*
X149427383Y-84504933D01*
X149341824Y-84298376D01*
X149217612Y-84112480D01*
X149059520Y-83954388D01*
X148873624Y-83830176D01*
X148667067Y-83744617D01*
X148599842Y-83731245D01*
X148612836Y-83701433D01*
X148658460Y-83492200D01*
X148658460Y-82942200D01*
X147700460Y-82942200D01*
X147700460Y-82962200D01*
X147446460Y-82962200D01*
X147446460Y-82942200D01*
X147426460Y-82942200D01*
X147426460Y-82688200D01*
X147446460Y-82688200D01*
X147446460Y-81347698D01*
X147700460Y-81347698D01*
X147700460Y-82688200D01*
X148658460Y-82688200D01*
X148658460Y-82138200D01*
X148612836Y-81928967D01*
X148527269Y-81732655D01*
X148405047Y-81556809D01*
X148250868Y-81408186D01*
X148070657Y-81292498D01*
X147867461Y-81220792D01*
X147700460Y-81347698D01*
X147446460Y-81347698D01*
X147279459Y-81220792D01*
X147076263Y-81292498D01*
X146896052Y-81408186D01*
X146741873Y-81556809D01*
X146716375Y-81593494D01*
X146586349Y-81506614D01*
X146416189Y-81436132D01*
X146235549Y-81400200D01*
X146051371Y-81400200D01*
X145870731Y-81436132D01*
X145700571Y-81506614D01*
X145547432Y-81608938D01*
X145524768Y-81631602D01*
X145495826Y-81486102D01*
X145417805Y-81297744D01*
X145304537Y-81128226D01*
X145160374Y-80984063D01*
X144990856Y-80870795D01*
X144802498Y-80792774D01*
X144602539Y-80753000D01*
X144398661Y-80753000D01*
X144198702Y-80792774D01*
X144043445Y-80857084D01*
X143311773Y-80125412D01*
X143288753Y-80097362D01*
X143176835Y-80005513D01*
X143049148Y-79937263D01*
X142910600Y-79895235D01*
X142802620Y-79884600D01*
X142766515Y-79881044D01*
X142730410Y-79884600D01*
X141901911Y-79884600D01*
X141832974Y-79815663D01*
X141663456Y-79702395D01*
X141475098Y-79624374D01*
X141275139Y-79584600D01*
X141071261Y-79584600D01*
X140871302Y-79624374D01*
X140682944Y-79702395D01*
X140513426Y-79815663D01*
X140369263Y-79959826D01*
X140255995Y-80129344D01*
X140177974Y-80317702D01*
X140138200Y-80517661D01*
X140138200Y-80721539D01*
X140177974Y-80921498D01*
X140255995Y-81109856D01*
X140369263Y-81279374D01*
X140498666Y-81408777D01*
X140455549Y-81400200D01*
X140271371Y-81400200D01*
X140090731Y-81436132D01*
X139920571Y-81506614D01*
X139790545Y-81593494D01*
X139765047Y-81556809D01*
X139610868Y-81408186D01*
X139430657Y-81292498D01*
X139227461Y-81220792D01*
X139060460Y-81347698D01*
X138806460Y-81347698D01*
X138639459Y-81220792D01*
X138436263Y-81292498D01*
X138256052Y-81408186D01*
X138101873Y-81556809D01*
X137979651Y-81732655D01*
X137894084Y-81928967D01*
X137848460Y-82138200D01*
X136042000Y-82138200D01*
X136042000Y-78772200D01*
X137848460Y-78772200D01*
X137848460Y-79172200D01*
X137894084Y-79381433D01*
X137979651Y-79577745D01*
X138101873Y-79753591D01*
X138256052Y-79902214D01*
X138436263Y-80017902D01*
X138639459Y-80089608D01*
X138806460Y-79962702D01*
X138806460Y-78772200D01*
X139060460Y-78772200D01*
X139060460Y-79962702D01*
X139227461Y-80089608D01*
X139430657Y-80017902D01*
X139610868Y-79902214D01*
X139765047Y-79753591D01*
X139887269Y-79577745D01*
X139972836Y-79381433D01*
X140018460Y-79172200D01*
X140018460Y-78772200D01*
X146488460Y-78772200D01*
X146488460Y-79172200D01*
X146534084Y-79381433D01*
X146619651Y-79577745D01*
X146741873Y-79753591D01*
X146896052Y-79902214D01*
X147076263Y-80017902D01*
X147279459Y-80089608D01*
X147446460Y-79962702D01*
X147446460Y-78772200D01*
X147700460Y-78772200D01*
X147700460Y-79962702D01*
X147867461Y-80089608D01*
X148070657Y-80017902D01*
X148250868Y-79902214D01*
X148405047Y-79753591D01*
X148527269Y-79577745D01*
X148612836Y-79381433D01*
X148658460Y-79172200D01*
X148658460Y-78772200D01*
X147700460Y-78772200D01*
X147446460Y-78772200D01*
X146488460Y-78772200D01*
X140018460Y-78772200D01*
X139060460Y-78772200D01*
X138806460Y-78772200D01*
X137848460Y-78772200D01*
X136042000Y-78772200D01*
X136042000Y-78118200D01*
X137848460Y-78118200D01*
X137848460Y-78518200D01*
X138806460Y-78518200D01*
X138806460Y-77327698D01*
X139060460Y-77327698D01*
X139060460Y-78518200D01*
X140018460Y-78518200D01*
X140018460Y-78118200D01*
X146488460Y-78118200D01*
X146488460Y-78518200D01*
X147446460Y-78518200D01*
X147446460Y-77327698D01*
X147700460Y-77327698D01*
X147700460Y-78518200D01*
X148658460Y-78518200D01*
X148658460Y-78118200D01*
X148612836Y-77908967D01*
X148527269Y-77712655D01*
X148405047Y-77536809D01*
X148250868Y-77388186D01*
X148070657Y-77272498D01*
X147867461Y-77200792D01*
X147700460Y-77327698D01*
X147446460Y-77327698D01*
X147279459Y-77200792D01*
X147076263Y-77272498D01*
X146896052Y-77388186D01*
X146741873Y-77536809D01*
X146619651Y-77712655D01*
X146534084Y-77908967D01*
X146488460Y-78118200D01*
X140018460Y-78118200D01*
X139972836Y-77908967D01*
X139887269Y-77712655D01*
X139765047Y-77536809D01*
X139610868Y-77388186D01*
X139430657Y-77272498D01*
X139227461Y-77200792D01*
X139060460Y-77327698D01*
X138806460Y-77327698D01*
X138639459Y-77200792D01*
X138436263Y-77272498D01*
X138256052Y-77388186D01*
X138101873Y-77536809D01*
X137979651Y-77712655D01*
X137894084Y-77908967D01*
X137848460Y-78118200D01*
X136042000Y-78118200D01*
X136042000Y-77248277D01*
X136047047Y-77196803D01*
X136052622Y-77178338D01*
X136061678Y-77161306D01*
X136073870Y-77146357D01*
X136088732Y-77134062D01*
X136105696Y-77124889D01*
X136124129Y-77119183D01*
X136173446Y-77114000D01*
X150335723Y-77114000D01*
X150387197Y-77119047D01*
G37*
X150387197Y-77119047D02*
X150405662Y-77124622D01*
X150422694Y-77133678D01*
X150437643Y-77145870D01*
X150449938Y-77160732D01*
X150459111Y-77177696D01*
X150464817Y-77196129D01*
X150470001Y-77245455D01*
X150470000Y-104361723D01*
X150464953Y-104413195D01*
X150459377Y-104431663D01*
X150450322Y-104448693D01*
X150438129Y-104463643D01*
X150423266Y-104475939D01*
X150406303Y-104485111D01*
X150387871Y-104490817D01*
X150334539Y-104496422D01*
X136176277Y-104496422D01*
X136124720Y-104491367D01*
X136106178Y-104485769D01*
X136089071Y-104476673D01*
X136074061Y-104464430D01*
X136061712Y-104449504D01*
X136052498Y-104432463D01*
X136046771Y-104413961D01*
X136042000Y-104368568D01*
X136042000Y-101006700D01*
X136724020Y-101006700D01*
X136724020Y-101299220D01*
X136781088Y-101586118D01*
X136893030Y-101856371D01*
X137055545Y-102099592D01*
X137262388Y-102306435D01*
X137505609Y-102468950D01*
X137775862Y-102580892D01*
X138062760Y-102637960D01*
X138355280Y-102637960D01*
X138642178Y-102580892D01*
X138912431Y-102468950D01*
X139155652Y-102306435D01*
X139362495Y-102099592D01*
X139479020Y-101925200D01*
X139595545Y-102099592D01*
X139802388Y-102306435D01*
X140045609Y-102468950D01*
X140315862Y-102580892D01*
X140602760Y-102637960D01*
X140895280Y-102637960D01*
X141182178Y-102580892D01*
X141452431Y-102468950D01*
X141695652Y-102306435D01*
X141902495Y-102099592D01*
X142019020Y-101925200D01*
X142135545Y-102099592D01*
X142342388Y-102306435D01*
X142585609Y-102468950D01*
X142855862Y-102580892D01*
X143142760Y-102637960D01*
X143435280Y-102637960D01*
X143722178Y-102580892D01*
X143992431Y-102468950D01*
X144235652Y-102306435D01*
X144442495Y-102099592D01*
X144559020Y-101925200D01*
X144675545Y-102099592D01*
X144882388Y-102306435D01*
X145125609Y-102468950D01*
X145395862Y-102580892D01*
X145682760Y-102637960D01*
X145975280Y-102637960D01*
X146262178Y-102580892D01*
X146532431Y-102468950D01*
X146775652Y-102306435D01*
X146907507Y-102174580D01*
X146929518Y-102247140D01*
X146988483Y-102357454D01*
X147067835Y-102454145D01*
X147164526Y-102533497D01*
X147274840Y-102592462D01*
X147394538Y-102628772D01*
X147519020Y-102641032D01*
X148083270Y-102637960D01*
X148242020Y-102479210D01*
X148242020Y-101279960D01*
X148496020Y-101279960D01*
X148496020Y-102479210D01*
X148654770Y-102637960D01*
X149219020Y-102641032D01*
X149343502Y-102628772D01*
X149463200Y-102592462D01*
X149573514Y-102533497D01*
X149670205Y-102454145D01*
X149749557Y-102357454D01*
X149808522Y-102247140D01*
X149844832Y-102127442D01*
X149857092Y-102002960D01*
X149854020Y-101438710D01*
X149695270Y-101279960D01*
X148496020Y-101279960D01*
X148242020Y-101279960D01*
X148222020Y-101279960D01*
X148222020Y-101025960D01*
X148242020Y-101025960D01*
X148242020Y-99826710D01*
X148496020Y-99826710D01*
X148496020Y-101025960D01*
X149695270Y-101025960D01*
X149854020Y-100867210D01*
X149857092Y-100302960D01*
X149844832Y-100178478D01*
X149808522Y-100058780D01*
X149749557Y-99948466D01*
X149670205Y-99851775D01*
X149573514Y-99772423D01*
X149463200Y-99713458D01*
X149343502Y-99677148D01*
X149219020Y-99664888D01*
X148654770Y-99667960D01*
X148496020Y-99826710D01*
X148242020Y-99826710D01*
X148083270Y-99667960D01*
X147519020Y-99664888D01*
X147394538Y-99677148D01*
X147274840Y-99713458D01*
X147164526Y-99772423D01*
X147067835Y-99851775D01*
X146988483Y-99948466D01*
X146929518Y-100058780D01*
X146907507Y-100131340D01*
X146775652Y-99999485D01*
X146532431Y-99836970D01*
X146262178Y-99725028D01*
X145975280Y-99667960D01*
X145682760Y-99667960D01*
X145395862Y-99725028D01*
X145125609Y-99836970D01*
X144882388Y-99999485D01*
X144675545Y-100206328D01*
X144559020Y-100380720D01*
X144442495Y-100206328D01*
X144235652Y-99999485D01*
X143992431Y-99836970D01*
X143722178Y-99725028D01*
X143435280Y-99667960D01*
X143142760Y-99667960D01*
X142855862Y-99725028D01*
X142585609Y-99836970D01*
X142342388Y-99999485D01*
X142135545Y-100206328D01*
X142019020Y-100380720D01*
X141902495Y-100206328D01*
X141695652Y-99999485D01*
X141452431Y-99836970D01*
X141182178Y-99725028D01*
X140895280Y-99667960D01*
X140602760Y-99667960D01*
X140315862Y-99725028D01*
X140045609Y-99836970D01*
X139802388Y-99999485D01*
X139595545Y-100206328D01*
X139479020Y-100380720D01*
X139362495Y-100206328D01*
X139155652Y-99999485D01*
X138912431Y-99836970D01*
X138642178Y-99725028D01*
X138355280Y-99667960D01*
X138062760Y-99667960D01*
X137775862Y-99725028D01*
X137505609Y-99836970D01*
X137262388Y-99999485D01*
X137055545Y-100206328D01*
X136893030Y-100449549D01*
X136781088Y-100719802D01*
X136724020Y-101006700D01*
X136042000Y-101006700D01*
X136042000Y-91338061D01*
X140112800Y-91338061D01*
X140112800Y-91541939D01*
X140152574Y-91741898D01*
X140230595Y-91930256D01*
X140343863Y-92099774D01*
X140488026Y-92243937D01*
X140657544Y-92357205D01*
X140845902Y-92435226D01*
X141045861Y-92475000D01*
X141249739Y-92475000D01*
X141449698Y-92435226D01*
X141638056Y-92357205D01*
X141807574Y-92243937D01*
X141876511Y-92175000D01*
X146845289Y-92175000D01*
X146914226Y-92243937D01*
X147083744Y-92357205D01*
X147272102Y-92435226D01*
X147472061Y-92475000D01*
X147675939Y-92475000D01*
X147875898Y-92435226D01*
X148064256Y-92357205D01*
X148233774Y-92243937D01*
X148377937Y-92099774D01*
X148491205Y-91930256D01*
X148569226Y-91741898D01*
X148609000Y-91541939D01*
X148609000Y-91338061D01*
X148569226Y-91138102D01*
X148491205Y-90949744D01*
X148377937Y-90780226D01*
X148233774Y-90636063D01*
X148064256Y-90522795D01*
X147875898Y-90444774D01*
X147675939Y-90405000D01*
X147472061Y-90405000D01*
X147272102Y-90444774D01*
X147083744Y-90522795D01*
X146914226Y-90636063D01*
X146845289Y-90705000D01*
X141876511Y-90705000D01*
X141807574Y-90636063D01*
X141638056Y-90522795D01*
X141449698Y-90444774D01*
X141249739Y-90405000D01*
X141045861Y-90405000D01*
X140845902Y-90444774D01*
X140657544Y-90522795D01*
X140488026Y-90636063D01*
X140343863Y-90780226D01*
X140230595Y-90949744D01*
X140152574Y-91138102D01*
X140112800Y-91338061D01*
X136042000Y-91338061D01*
X136042000Y-82942200D01*
X137848460Y-82942200D01*
X137848460Y-83492200D01*
X137894084Y-83701433D01*
X137979651Y-83897745D01*
X138101873Y-84073591D01*
X138256052Y-84222214D01*
X138436263Y-84337902D01*
X138639459Y-84409608D01*
X138806460Y-84282702D01*
X138806460Y-82942200D01*
X137848460Y-82942200D01*
X136042000Y-82942200D01*
X136042000Y-82138200D01*
X137848460Y-82138200D01*
X137848460Y-82688200D01*
X138806460Y-82688200D01*
X138806460Y-81347698D01*
X139060460Y-81347698D01*
X139060460Y-82688200D01*
X139080460Y-82688200D01*
X139080460Y-82942200D01*
X139060460Y-82942200D01*
X139060460Y-84282702D01*
X139227461Y-84409608D01*
X139430657Y-84337902D01*
X139610868Y-84222214D01*
X139765047Y-84073591D01*
X139887269Y-83897745D01*
X139972836Y-83701433D01*
X140018460Y-83492200D01*
X140018460Y-83204333D01*
X140090731Y-83234268D01*
X140271371Y-83270200D01*
X140455549Y-83270200D01*
X140636189Y-83234268D01*
X140806349Y-83163786D01*
X140959488Y-83061462D01*
X141089722Y-82931228D01*
X141192046Y-82778089D01*
X141262528Y-82607929D01*
X141298460Y-82427289D01*
X141298460Y-82243111D01*
X141262528Y-82062471D01*
X141192046Y-81892311D01*
X141089722Y-81739172D01*
X140988735Y-81638185D01*
X141071261Y-81654600D01*
X141275139Y-81654600D01*
X141475098Y-81614826D01*
X141663456Y-81536805D01*
X141832974Y-81423537D01*
X141901911Y-81354600D01*
X142462069Y-81354600D01*
X143389661Y-82282193D01*
X143412677Y-82310238D01*
X143524595Y-82402087D01*
X143652282Y-82470337D01*
X143748376Y-82499487D01*
X143840826Y-82591937D01*
X144010344Y-82705205D01*
X144198702Y-82783226D01*
X144398661Y-82823000D01*
X144602539Y-82823000D01*
X144802498Y-82783226D01*
X144990856Y-82705205D01*
X145160374Y-82591937D01*
X145227799Y-82524512D01*
X145244392Y-82607929D01*
X145314874Y-82778089D01*
X145417198Y-82931228D01*
X145547432Y-83061462D01*
X145700571Y-83163786D01*
X145870731Y-83234268D01*
X146051371Y-83270200D01*
X146235549Y-83270200D01*
X146416189Y-83234268D01*
X146488460Y-83204333D01*
X146488460Y-83492200D01*
X146534084Y-83701433D01*
X146619651Y-83897745D01*
X146741873Y-84073591D01*
X146770307Y-84101000D01*
X145908294Y-84101000D01*
X145872199Y-84097445D01*
X145836104Y-84101000D01*
X145836095Y-84101000D01*
X145728115Y-84111635D01*
X145589567Y-84153663D01*
X145461880Y-84221913D01*
X145349962Y-84313762D01*
X145326946Y-84341807D01*
X144597754Y-85071000D01*
X144500261Y-85071000D01*
X144300302Y-85110774D01*
X144111944Y-85188795D01*
X143942426Y-85302063D01*
X143798263Y-85446226D01*
X143684995Y-85615744D01*
X143606974Y-85804102D01*
X143567200Y-86004061D01*
X143567200Y-86207939D01*
X143606974Y-86407898D01*
X143684995Y-86596256D01*
X143798263Y-86765774D01*
X143942426Y-86909937D01*
X144111944Y-87023205D01*
X144300302Y-87101226D01*
X144500261Y-87141000D01*
X144704139Y-87141000D01*
X144904098Y-87101226D01*
X145092456Y-87023205D01*
X145261974Y-86909937D01*
X145406137Y-86765774D01*
X145519405Y-86596256D01*
X145597426Y-86407898D01*
X145637200Y-86207939D01*
X145637200Y-86110446D01*
X146176647Y-85571000D01*
X147465868Y-85571000D01*
X147612480Y-85717612D01*
X147798376Y-85841824D01*
X148004933Y-85927383D01*
X148224212Y-85971000D01*
X148447788Y-85971000D01*
X148667067Y-85927383D01*
X148873624Y-85841824D01*
X149059520Y-85717612D01*
X149217612Y-85559520D01*
X149341824Y-85373624D01*
X149427383Y-85167067D01*
X149471000Y-84947788D01*
X149471000Y-84724212D01*
X149427383Y-84504933D01*
X149341824Y-84298376D01*
X149217612Y-84112480D01*
X149059520Y-83954388D01*
X148873624Y-83830176D01*
X148667067Y-83744617D01*
X148599842Y-83731245D01*
X148612836Y-83701433D01*
X148658460Y-83492200D01*
X148658460Y-82942200D01*
X147700460Y-82942200D01*
X147700460Y-82962200D01*
X147446460Y-82962200D01*
X147446460Y-82942200D01*
X147426460Y-82942200D01*
X147426460Y-82688200D01*
X147446460Y-82688200D01*
X147446460Y-81347698D01*
X147700460Y-81347698D01*
X147700460Y-82688200D01*
X148658460Y-82688200D01*
X148658460Y-82138200D01*
X148612836Y-81928967D01*
X148527269Y-81732655D01*
X148405047Y-81556809D01*
X148250868Y-81408186D01*
X148070657Y-81292498D01*
X147867461Y-81220792D01*
X147700460Y-81347698D01*
X147446460Y-81347698D01*
X147279459Y-81220792D01*
X147076263Y-81292498D01*
X146896052Y-81408186D01*
X146741873Y-81556809D01*
X146716375Y-81593494D01*
X146586349Y-81506614D01*
X146416189Y-81436132D01*
X146235549Y-81400200D01*
X146051371Y-81400200D01*
X145870731Y-81436132D01*
X145700571Y-81506614D01*
X145547432Y-81608938D01*
X145524768Y-81631602D01*
X145495826Y-81486102D01*
X145417805Y-81297744D01*
X145304537Y-81128226D01*
X145160374Y-80984063D01*
X144990856Y-80870795D01*
X144802498Y-80792774D01*
X144602539Y-80753000D01*
X144398661Y-80753000D01*
X144198702Y-80792774D01*
X144043445Y-80857084D01*
X143311773Y-80125412D01*
X143288753Y-80097362D01*
X143176835Y-80005513D01*
X143049148Y-79937263D01*
X142910600Y-79895235D01*
X142802620Y-79884600D01*
X142766515Y-79881044D01*
X142730410Y-79884600D01*
X141901911Y-79884600D01*
X141832974Y-79815663D01*
X141663456Y-79702395D01*
X141475098Y-79624374D01*
X141275139Y-79584600D01*
X141071261Y-79584600D01*
X140871302Y-79624374D01*
X140682944Y-79702395D01*
X140513426Y-79815663D01*
X140369263Y-79959826D01*
X140255995Y-80129344D01*
X140177974Y-80317702D01*
X140138200Y-80517661D01*
X140138200Y-80721539D01*
X140177974Y-80921498D01*
X140255995Y-81109856D01*
X140369263Y-81279374D01*
X140498666Y-81408777D01*
X140455549Y-81400200D01*
X140271371Y-81400200D01*
X140090731Y-81436132D01*
X139920571Y-81506614D01*
X139790545Y-81593494D01*
X139765047Y-81556809D01*
X139610868Y-81408186D01*
X139430657Y-81292498D01*
X139227461Y-81220792D01*
X139060460Y-81347698D01*
X138806460Y-81347698D01*
X138639459Y-81220792D01*
X138436263Y-81292498D01*
X138256052Y-81408186D01*
X138101873Y-81556809D01*
X137979651Y-81732655D01*
X137894084Y-81928967D01*
X137848460Y-82138200D01*
X136042000Y-82138200D01*
X136042000Y-78772200D01*
X137848460Y-78772200D01*
X137848460Y-79172200D01*
X137894084Y-79381433D01*
X137979651Y-79577745D01*
X138101873Y-79753591D01*
X138256052Y-79902214D01*
X138436263Y-80017902D01*
X138639459Y-80089608D01*
X138806460Y-79962702D01*
X138806460Y-78772200D01*
X139060460Y-78772200D01*
X139060460Y-79962702D01*
X139227461Y-80089608D01*
X139430657Y-80017902D01*
X139610868Y-79902214D01*
X139765047Y-79753591D01*
X139887269Y-79577745D01*
X139972836Y-79381433D01*
X140018460Y-79172200D01*
X140018460Y-78772200D01*
X146488460Y-78772200D01*
X146488460Y-79172200D01*
X146534084Y-79381433D01*
X146619651Y-79577745D01*
X146741873Y-79753591D01*
X146896052Y-79902214D01*
X147076263Y-80017902D01*
X147279459Y-80089608D01*
X147446460Y-79962702D01*
X147446460Y-78772200D01*
X147700460Y-78772200D01*
X147700460Y-79962702D01*
X147867461Y-80089608D01*
X148070657Y-80017902D01*
X148250868Y-79902214D01*
X148405047Y-79753591D01*
X148527269Y-79577745D01*
X148612836Y-79381433D01*
X148658460Y-79172200D01*
X148658460Y-78772200D01*
X147700460Y-78772200D01*
X147446460Y-78772200D01*
X146488460Y-78772200D01*
X140018460Y-78772200D01*
X139060460Y-78772200D01*
X138806460Y-78772200D01*
X137848460Y-78772200D01*
X136042000Y-78772200D01*
X136042000Y-78118200D01*
X137848460Y-78118200D01*
X137848460Y-78518200D01*
X138806460Y-78518200D01*
X138806460Y-77327698D01*
X139060460Y-77327698D01*
X139060460Y-78518200D01*
X140018460Y-78518200D01*
X140018460Y-78118200D01*
X146488460Y-78118200D01*
X146488460Y-78518200D01*
X147446460Y-78518200D01*
X147446460Y-77327698D01*
X147700460Y-77327698D01*
X147700460Y-78518200D01*
X148658460Y-78518200D01*
X148658460Y-78118200D01*
X148612836Y-77908967D01*
X148527269Y-77712655D01*
X148405047Y-77536809D01*
X148250868Y-77388186D01*
X148070657Y-77272498D01*
X147867461Y-77200792D01*
X147700460Y-77327698D01*
X147446460Y-77327698D01*
X147279459Y-77200792D01*
X147076263Y-77272498D01*
X146896052Y-77388186D01*
X146741873Y-77536809D01*
X146619651Y-77712655D01*
X146534084Y-77908967D01*
X146488460Y-78118200D01*
X140018460Y-78118200D01*
X139972836Y-77908967D01*
X139887269Y-77712655D01*
X139765047Y-77536809D01*
X139610868Y-77388186D01*
X139430657Y-77272498D01*
X139227461Y-77200792D01*
X139060460Y-77327698D01*
X138806460Y-77327698D01*
X138639459Y-77200792D01*
X138436263Y-77272498D01*
X138256052Y-77388186D01*
X138101873Y-77536809D01*
X137979651Y-77712655D01*
X137894084Y-77908967D01*
X137848460Y-78118200D01*
X136042000Y-78118200D01*
X136042000Y-77248277D01*
X136047047Y-77196803D01*
X136052622Y-77178338D01*
X136061678Y-77161306D01*
X136073870Y-77146357D01*
X136088732Y-77134062D01*
X136105696Y-77124889D01*
X136124129Y-77119183D01*
X136173446Y-77114000D01*
X150335723Y-77114000D01*
X150387197Y-77119047D01*
M02*
